# 3ds Max Wavefront OBJ Exporter v0.99 - (c)2007 guruware
# File Created: 19.05.2025 11:23:30

mtllib Bathroom-accessories-047.mtl

#
# object Bathroom_accessories_047
#

v  5.0317 38.8374 5.0108
v  -5.0560 38.8374 4.9892
v  -5.0496 38.3374 4.9892
v  5.0253 38.3374 5.0108
v  -5.0254 38.3375 -5.0108
v  5.0496 38.3375 -4.9892
v  -5.0317 38.8375 -5.0108
v  5.0559 38.8375 -4.9892
v  -5.1873 38.8341 4.9889
v  -5.1617 38.3346 4.9889
v  -5.1346 38.3347 -5.0110
v  -5.1602 38.8342 -5.0111
v  -5.3187 38.8241 4.9885
v  -5.2678 38.3265 4.9886
v  -5.2406 38.3266 -5.0113
v  -5.2916 38.8242 -5.0115
v  -5.4480 38.8076 4.9881
v  -5.3725 38.3132 4.9883
v  -5.3454 38.3133 -5.0116
v  -5.4209 38.8077 -5.0118
v  -5.5755 38.7848 4.9878
v  -5.4752 38.2948 4.9881
v  -5.4481 38.2949 -5.0119
v  -5.5484 38.7849 -5.0122
v  -5.7008 38.7558 4.9875
v  -5.5762 38.2715 4.9878
v  -5.5491 38.2716 -5.0122
v  -5.6738 38.7560 -5.0125
v  -5.8238 38.7209 4.9871
v  -5.6751 38.2433 4.9875
v  -5.6481 38.2434 -5.0124
v  -5.7967 38.7210 -5.0128
v  -5.9442 38.6801 4.9868
v  -5.7721 38.2105 4.9873
v  -5.7450 38.2106 -5.0127
v  -5.9171 38.6802 -5.0132
v  -6.0619 38.6337 4.9865
v  -5.8669 38.1731 4.9870
v  -5.8398 38.1732 -5.0130
v  -6.0348 38.6338 -5.0135
v  -6.1766 38.5817 4.9862
v  -5.9594 38.1312 4.9868
v  -5.9323 38.1313 -5.0132
v  -6.1495 38.5819 -5.0138
v  -6.2882 38.5245 4.9859
v  -6.0494 38.0850 4.9865
v  -6.0224 38.0852 -5.0135
v  -6.2612 38.5246 -5.0141
v  -6.3969 38.4620 4.9856
v  -6.1367 38.0348 4.9863
v  -6.1097 38.0350 -5.0137
v  -6.3699 38.4621 -5.0144
v  -6.5019 38.3946 4.9853
v  -6.2215 37.9804 4.9860
v  -6.1945 37.9806 -5.0139
v  -6.4749 38.3947 -5.0147
v  -6.6034 38.3224 4.9850
v  -6.3036 37.9221 4.9858
v  -6.2765 37.9222 -5.0141
v  -6.5763 38.3225 -5.0150
v  -6.7011 38.2456 4.9847
v  -6.3826 37.8599 4.9856
v  -6.3556 37.8600 -5.0144
v  -6.6741 38.2457 -5.0152
v  -6.7950 38.1642 4.9845
v  -6.4586 37.7942 4.9854
v  -6.4315 37.7943 -5.0146
v  -6.7680 38.1643 -5.0155
v  -6.8848 38.0786 4.9842
v  -6.5313 37.7248 4.9852
v  -6.5042 37.7249 -5.0148
v  -6.8578 38.0787 -5.0157
v  -6.9705 37.9887 4.9840
v  -6.6006 37.6521 4.9850
v  -6.5736 37.6522 -5.0150
v  -6.9435 37.9888 -5.0159
v  -7.0520 37.8947 4.9838
v  -6.6662 37.5764 4.9848
v  -6.6392 37.5764 -5.0151
v  -7.0250 37.8948 -5.0162
v  -7.1289 37.7968 4.9836
v  -6.7283 37.4975 4.9847
v  -6.7012 37.4975 -5.0153
v  -7.1019 37.7969 -5.0164
v  -7.2011 37.6954 4.9834
v  -6.7866 37.4155 4.9845
v  -6.7596 37.4155 -5.0155
v  -7.1741 37.6954 -5.0166
v  -7.2684 37.5904 4.9832
v  -6.8411 37.3306 4.9844
v  -6.8141 37.3306 -5.0156
v  -7.2414 37.5905 -5.0168
v  -7.3308 37.4819 4.9830
v  -6.8914 37.2431 4.9842
v  -6.8644 37.2432 -5.0157
v  -7.3038 37.4820 -5.0169
v  -7.3881 37.3702 4.9829
v  -6.9375 37.1531 4.9841
v  -6.9105 37.1532 -5.0159
v  -7.3611 37.3702 -5.0171
v  -7.4400 37.2554 4.9827
v  -6.9794 37.0606 4.9840
v  -6.9524 37.0606 -5.0160
v  -7.4130 37.2555 -5.0172
v  -7.4864 37.1379 4.9826
v  -7.0168 36.9657 4.9839
v  -6.9898 36.9658 -5.0161
v  -7.4594 37.1379 -5.0173
v  -7.5272 37.0175 4.9825
v  -7.0497 36.8688 4.9838
v  -7.0227 36.8688 -5.0162
v  -7.5002 37.0176 -5.0175
v  -7.5622 36.8945 4.9824
v  -7.0778 36.7698 4.9837
v  -7.0508 36.7698 -5.0162
v  -7.5352 36.8946 -5.0176
v  -7.5911 36.7692 4.9823
v  -7.1012 36.6688 4.9837
v  -7.0742 36.6688 -5.0163
v  -7.5641 36.7693 -5.0176
v  -7.6139 36.6417 4.9823
v  -7.1195 36.5661 4.9836
v  -7.0925 36.5661 -5.0164
v  -7.5869 36.6418 -5.0177
v  -7.6304 36.5122 4.9822
v  -7.1328 36.4616 4.9836
v  -7.1058 36.4616 -5.0164
v  -7.6034 36.5122 -5.0177
v  -7.6404 36.3809 4.9822
v  -7.1409 36.3554 4.9835
v  -7.1139 36.3555 -5.0164
v  -7.6134 36.3809 -5.0178
v  -7.6437 36.2510 4.9822
v  -7.1437 36.2447 4.9835
v  -7.1167 36.2447 -5.0164
v  -7.6167 36.2510 -5.0178
v  -7.6437 2.5864 4.9822
v  -7.1437 2.5928 4.9835
v  -7.1167 2.5928 -5.0165
v  -7.6167 2.5864 -5.0178
v  -7.6404 2.4566 4.9822
v  -7.1409 2.4820 4.9835
v  -7.1139 2.4820 -5.0164
v  -7.6134 2.4566 -5.0178
v  -7.6304 2.3252 4.9822
v  -7.1328 2.3759 4.9835
v  -7.1058 2.3759 -5.0164
v  -7.6034 2.3252 -5.0178
v  -7.6139 2.1957 4.9822
v  -7.1195 2.2714 4.9836
v  -7.0925 2.2714 -5.0164
v  -7.5869 2.1957 -5.0177
v  -7.5911 2.0682 4.9823
v  -7.1012 2.1686 4.9836
v  -7.0742 2.1686 -5.0163
v  -7.5641 2.0682 -5.0177
v  -7.5622 1.9429 4.9824
v  -7.0778 2.0677 4.9837
v  -7.0508 2.0676 -5.0163
v  -7.5352 1.9429 -5.0176
v  -7.5272 1.8199 4.9825
v  -7.0497 1.9687 4.9838
v  -7.0227 1.9687 -5.0162
v  -7.5002 1.8199 -5.0175
v  -7.4864 1.6996 4.9826
v  -7.0168 1.8717 4.9839
v  -6.9898 1.8717 -5.0161
v  -7.4594 1.6996 -5.0174
v  -7.4400 1.5820 4.9827
v  -6.9794 1.7769 4.9840
v  -6.9524 1.7768 -5.0160
v  -7.4130 1.5820 -5.0173
v  -7.3881 1.4673 4.9829
v  -6.9375 1.6844 4.9841
v  -6.9105 1.6843 -5.0159
v  -7.3611 1.4672 -5.0171
v  -7.3308 1.3556 4.9830
v  -6.8914 1.5944 4.9842
v  -6.8644 1.5943 -5.0158
v  -7.3038 1.3555 -5.0170
v  -7.2684 1.2471 4.9832
v  -6.8411 1.5069 4.9843
v  -6.8141 1.5069 -5.0156
v  -7.2414 1.2470 -5.0168
v  -7.2011 1.1421 4.9834
v  -6.7866 1.4220 4.9845
v  -6.7596 1.4219 -5.0155
v  -7.1741 1.1421 -5.0166
v  -7.1289 1.0407 4.9836
v  -6.7283 1.3400 4.9846
v  -6.7012 1.3399 -5.0153
v  -7.1019 1.0406 -5.0164
v  -7.0520 0.9428 4.9838
v  -6.6662 1.2611 4.9848
v  -6.6392 1.2610 -5.0152
v  -7.0250 0.9427 -5.0162
v  -6.9705 0.8487 4.9840
v  -6.6006 1.1853 4.9850
v  -6.5736 1.1852 -5.0150
v  -6.9435 0.8486 -5.0160
v  -6.8848 0.7589 4.9842
v  -6.5313 1.1126 4.9852
v  -6.5042 1.1125 -5.0148
v  -6.8578 0.7588 -5.0157
v  -6.7950 0.6732 4.9845
v  -6.4586 1.0433 4.9854
v  -6.4315 1.0432 -5.0146
v  -6.7680 0.6731 -5.0155
v  -6.7011 0.5919 4.9847
v  -6.3826 0.9775 4.9856
v  -6.3556 0.9774 -5.0144
v  -6.6741 0.5918 -5.0152
v  -6.6034 0.5150 4.9850
v  -6.3036 0.9154 4.9858
v  -6.2765 0.9153 -5.0142
v  -6.5763 0.5149 -5.0150
v  -6.5019 0.4429 4.9853
v  -6.2215 0.8570 4.9860
v  -6.1945 0.8569 -5.0140
v  -6.4749 0.4428 -5.0147
v  -6.3969 0.3755 4.9855
v  -6.1367 0.8026 4.9862
v  -6.1097 0.8025 -5.0137
v  -6.3699 0.3754 -5.0144
v  -6.2882 0.3130 4.9858
v  -6.0494 0.7524 4.9865
v  -6.0224 0.7523 -5.0135
v  -6.2612 0.3129 -5.0141
v  -6.1766 0.2557 4.9861
v  -5.9594 0.7062 4.9867
v  -5.9323 0.7061 -5.0132
v  -6.1495 0.2556 -5.0138
v  -6.0619 0.2038 4.9864
v  -5.8669 0.6644 4.9870
v  -5.8398 0.6643 -5.0130
v  -6.0348 0.2037 -5.0135
v  -5.9442 0.1574 4.9868
v  -5.7721 0.6270 4.9872
v  -5.7450 0.6269 -5.0127
v  -5.9171 0.1573 -5.0132
v  -5.8238 0.1166 4.9871
v  -5.6752 0.5941 4.9875
v  -5.6481 0.5940 -5.0125
v  -5.7967 0.1165 -5.0129
v  -5.7008 0.0816 4.9874
v  -5.5762 0.5660 4.9878
v  -5.5491 0.5659 -5.0122
v  -5.6738 0.0815 -5.0125
v  -5.5755 0.0527 4.9878
v  -5.4752 0.5427 4.9880
v  -5.4481 0.5426 -5.0119
v  -5.5484 0.0525 -5.0122
v  -5.4480 0.0299 4.9881
v  -5.3725 0.5243 4.9883
v  -5.3454 0.5242 -5.0117
v  -5.4209 0.0297 -5.0119
v  -5.3187 0.0134 4.9885
v  -5.2678 0.5110 4.9886
v  -5.2406 0.5108 -5.0114
v  -5.2916 0.0133 -5.0115
v  -5.1873 0.0034 4.9888
v  -5.1617 0.5029 4.9889
v  -5.1346 0.5028 -5.0111
v  -5.1602 0.0033 -5.0111
v  -5.0560 0.0000 4.9892
v  -5.0496 0.5000 4.9892
v  -5.0254 0.5000 -5.0108
v  -5.0317 0.0000 -5.0108
v  5.0317 0.0001 5.0108
v  5.0253 0.5001 5.0107
v  5.0496 0.5000 -4.9892
v  5.0559 0.0000 -4.9892
v  5.1601 0.0033 5.0111
v  5.1346 0.5028 5.0110
v  5.1617 0.5029 -4.9889
v  5.1873 0.0034 -4.9889
v  5.2916 0.0133 5.0115
v  5.2406 0.5109 5.0113
v  5.2677 0.5109 -4.9886
v  5.3187 0.0134 -4.9885
v  5.4208 0.0298 5.0118
v  5.3454 0.5242 5.0116
v  5.3725 0.5243 -4.9883
v  5.4479 0.0298 -4.9881
v  5.5484 0.0526 5.0122
v  5.4481 0.5426 5.0119
v  5.4752 0.5426 -4.9881
v  5.5755 0.0526 -4.9878
v  5.6737 0.0815 5.0125
v  5.5490 0.5659 5.0122
v  5.5761 0.5660 -4.9878
v  5.7008 0.0816 -4.9875
v  5.7967 0.1165 5.0128
v  5.6480 0.5941 5.0124
v  5.6751 0.5941 -4.9875
v  5.8238 0.1166 -4.9871
v  5.9171 0.1573 5.0132
v  5.7450 0.6269 5.0127
v  5.7721 0.6270 -4.9873
v  5.9442 0.1573 -4.9868
v  6.0347 0.2037 5.0135
v  5.8398 0.6643 5.0130
v  5.8669 0.6644 -4.9870
v  6.0618 0.2038 -4.9865
v  6.1495 0.2556 5.0138
v  5.9323 0.7062 5.0132
v  5.9594 0.7062 -4.9868
v  6.1766 0.2557 -4.9862
v  6.2611 0.3129 5.0141
v  6.0223 0.7523 5.0135
v  6.0494 0.7524 -4.9865
v  6.2882 0.3129 -4.9859
v  6.3698 0.3754 5.0144
v  6.1096 0.8026 5.0137
v  6.1367 0.8026 -4.9863
v  6.3969 0.3755 -4.9856
v  6.4748 0.4428 5.0147
v  6.1945 0.8570 5.0139
v  6.2216 0.8570 -4.9860
v  6.5019 0.4428 -4.9853
v  6.5763 0.5150 5.0150
v  6.2765 0.9153 5.0141
v  6.3036 0.9154 -4.9858
v  6.6034 0.5150 -4.9850
v  6.6740 0.5918 5.0152
v  6.3555 0.9774 5.0144
v  6.3826 0.9775 -4.9856
v  6.7011 0.5919 -4.9847
v  6.7679 0.6731 5.0155
v  6.4315 1.0432 5.0146
v  6.4586 1.0433 -4.9854
v  6.7950 0.6732 -4.9845
v  6.8577 0.7588 5.0157
v  6.5042 1.1125 5.0148
v  6.5313 1.1126 -4.9852
v  6.8848 0.7589 -4.9842
v  6.9434 0.8487 5.0159
v  6.5735 1.1852 5.0150
v  6.6006 1.1853 -4.9850
v  6.9705 0.8487 -4.9840
v  7.0249 0.9427 5.0162
v  6.6392 1.2611 5.0151
v  6.6662 1.2611 -4.9848
v  7.0520 0.9427 -4.9838
v  7.1018 1.0406 5.0164
v  6.7012 1.3400 5.0153
v  6.7283 1.3400 -4.9847
v  7.1289 1.0406 -4.9836
v  7.1740 1.1420 5.0166
v  6.7595 1.4220 5.0155
v  6.7866 1.4220 -4.9845
v  7.2011 1.1421 -4.9834
v  7.2413 1.2470 5.0168
v  6.8140 1.5069 5.0156
v  6.8411 1.5069 -4.9844
v  7.2684 1.2471 -4.9832
v  7.3038 1.3556 5.0169
v  6.8643 1.5943 5.0157
v  6.8914 1.5943 -4.9842
v  7.3309 1.3556 -4.9830
v  7.3611 1.4673 5.0171
v  6.9104 1.6843 5.0159
v  6.9375 1.6843 -4.9841
v  7.3881 1.4673 -4.9829
v  7.4129 1.5820 5.0172
v  6.9523 1.7768 5.0160
v  6.9794 1.7769 -4.9840
v  7.4400 1.5820 -4.9827
v  7.4594 1.6996 5.0173
v  6.9898 1.8717 5.0161
v  7.0168 1.8717 -4.9839
v  7.4864 1.6996 -4.9826
v  7.5001 1.8200 5.0175
v  7.0226 1.9686 5.0162
v  7.0497 1.9686 -4.9838
v  7.5272 1.8200 -4.9825
v  7.5351 1.9430 5.0176
v  7.0507 2.0676 5.0162
v  7.0778 2.0676 -4.9837
v  7.5622 1.9430 -4.9824
v  7.5641 2.0682 5.0176
v  7.0741 2.1686 5.0163
v  7.1011 2.1686 -4.9837
v  7.5911 2.0683 -4.9823
v  7.5869 2.1957 5.0177
v  7.0925 2.2714 5.0164
v  7.1195 2.2714 -4.9836
v  7.6139 2.1957 -4.9823
v  7.6034 2.3253 5.0177
v  7.1058 2.3759 5.0164
v  7.1328 2.3759 -4.9836
v  7.6304 2.3253 -4.9822
v  7.6134 2.4566 5.0178
v  7.1138 2.4820 5.0164
v  7.1409 2.4820 -4.9835
v  7.6404 2.4566 -4.9822
v  7.6166 2.5864 5.0178
v  7.1167 2.5928 5.0164
v  7.1437 2.5928 -4.9835
v  7.6437 2.5864 -4.9822
v  7.6166 36.2510 5.0178
v  7.1167 36.2447 5.0165
v  7.1437 36.2447 -4.9835
v  7.6437 36.2510 -4.9822
v  7.6134 36.3808 5.0178
v  7.1138 36.3555 5.0164
v  7.1409 36.3555 -4.9835
v  7.6404 36.3808 -4.9822
v  7.6034 36.5122 5.0178
v  7.1058 36.4616 5.0164
v  7.1328 36.4616 -4.9835
v  7.6304 36.5122 -4.9822
v  7.5869 36.6417 5.0177
v  7.0925 36.5661 5.0164
v  7.1195 36.5661 -4.9836
v  7.6139 36.6417 -4.9822
v  7.5641 36.7692 5.0177
v  7.0741 36.6689 5.0163
v  7.1011 36.6689 -4.9836
v  7.5911 36.7692 -4.9823
v  7.5351 36.8945 5.0176
v  7.0507 36.7699 5.0163
v  7.0778 36.7699 -4.9837
v  7.5622 36.8945 -4.9824
v  7.5001 37.0175 5.0175
v  7.0226 36.8689 5.0162
v  7.0497 36.8688 -4.9838
v  7.5272 37.0175 -4.9825
v  7.4594 37.1379 5.0174
v  6.9898 36.9658 5.0161
v  7.0168 36.9658 -4.9839
v  7.4864 37.1379 -4.9826
v  7.4129 37.2555 5.0173
v  6.9523 37.0606 5.0160
v  6.9794 37.0606 -4.9840
v  7.4400 37.2555 -4.9827
v  7.3611 37.3702 5.0171
v  6.9104 37.1532 5.0159
v  6.9375 37.1532 -4.9841
v  7.3881 37.3701 -4.9829
v  7.3038 37.4819 5.0170
v  6.8643 37.2432 5.0158
v  6.8914 37.2432 -4.9842
v  7.3309 37.4819 -4.9830
v  7.2413 37.5904 5.0168
v  6.8140 37.3306 5.0156
v  6.8411 37.3306 -4.9843
v  7.2684 37.5904 -4.9832
v  7.1740 37.6954 5.0166
v  6.7595 37.4155 5.0155
v  6.7866 37.4155 -4.9845
v  7.2011 37.6954 -4.9834
v  7.1018 37.7969 5.0164
v  6.7012 37.4975 5.0153
v  6.7283 37.4975 -4.9846
v  7.1289 37.7969 -4.9836
v  7.0249 37.8948 5.0162
v  6.6392 37.5764 5.0152
v  6.6662 37.5764 -4.9848
v  7.0520 37.8947 -4.9838
v  6.9434 37.9888 5.0160
v  6.5735 37.6522 5.0150
v  6.6006 37.6522 -4.9850
v  6.9705 37.9887 -4.9840
v  6.8577 38.0787 5.0157
v  6.5042 37.7249 5.0148
v  6.5313 37.7249 -4.9852
v  6.8848 38.0786 -4.9842
v  6.7679 38.1643 5.0155
v  6.4315 37.7942 5.0146
v  6.4586 37.7942 -4.9854
v  6.7950 38.1643 -4.9845
v  6.6740 38.2457 5.0152
v  6.3555 37.8600 5.0144
v  6.3826 37.8600 -4.9856
v  6.7011 38.2456 -4.9847
v  6.5763 38.3225 5.0150
v  6.2765 37.9222 5.0142
v  6.3036 37.9221 -4.9858
v  6.6034 38.3225 -4.9850
v  6.4748 38.3947 5.0147
v  6.1945 37.9805 5.0140
v  6.2215 37.9805 -4.9860
v  6.5019 38.3946 -4.9853
v  6.3698 38.4620 5.0144
v  6.1096 38.0349 5.0137
v  6.1367 38.0349 -4.9862
v  6.3969 38.4620 -4.9855
v  6.2611 38.5246 5.0141
v  6.0223 38.0851 5.0135
v  6.0494 38.0851 -4.9865
v  6.2882 38.5245 -4.9858
v  6.1495 38.5818 5.0138
v  5.9323 38.1313 5.0132
v  5.9594 38.1313 -4.9867
v  6.1766 38.5818 -4.9861
v  6.0347 38.6337 5.0135
v  5.8398 38.1732 5.0130
v  5.8669 38.1731 -4.9870
v  6.0618 38.6337 -4.9864
v  5.9171 38.6802 5.0132
v  5.7450 38.2106 5.0127
v  5.7721 38.2105 -4.9872
v  5.9442 38.6801 -4.9868
v  5.7967 38.7210 5.0129
v  5.6480 38.2434 5.0125
v  5.6751 38.2434 -4.9875
v  5.8238 38.7209 -4.9871
v  5.6737 38.7559 5.0125
v  5.5490 38.2716 5.0122
v  5.5761 38.2715 -4.9878
v  5.7008 38.7559 -4.9874
v  5.5484 38.7849 5.0122
v  5.4481 38.2949 5.0119
v  5.4752 38.2948 -4.9880
v  5.5755 38.7848 -4.9878
v  5.4208 38.8077 5.0119
v  5.3454 38.3133 5.0116
v  5.3725 38.3132 -4.9883
v  5.4479 38.8076 -4.9881
v  5.2916 38.8242 5.0115
v  5.2406 38.3266 5.0114
v  5.2677 38.3266 -4.9886
v  5.3187 38.8241 -4.9885
v  5.1601 38.8342 5.0111
v  5.1346 38.3347 5.0111
v  5.1617 38.3346 -4.9889
v  5.1873 38.8341 -4.9888
v  -7.2580 19.5832 4.7307
v  7.1591 19.5817 4.7635
v  7.1591 19.8817 4.7636
v  -7.2580 19.8832 4.7307
v  7.1797 19.8848 -4.2363
v  -7.2375 19.8832 -4.2693
v  7.1797 19.5848 -4.2364
v  -7.2375 19.5832 -4.2693
# 536 vertices

o Bathroom_accessories_047
g Bathroom_accessories_047
usemtl Base
f 1 2 3 4 
f 4 3 5 6 
f 6 5 7 8 
f 8 7 2 1 
f 2 9 10 3 
f 3 10 11 5 
f 5 11 12 7 
f 7 12 9 2 
f 9 13 14 10 
f 10 14 15 11 
f 11 15 16 12 
f 12 16 13 9 
f 13 17 18 14 
f 14 18 19 15 
f 15 19 20 16 
f 16 20 17 13 
f 17 21 22 18 
f 18 22 23 19 
f 19 23 24 20 
f 20 24 21 17 
f 21 25 26 22 
f 22 26 27 23 
f 23 27 28 24 
f 24 28 25 21 
f 25 29 30 26 
f 26 30 31 27 
f 27 31 32 28 
f 28 32 29 25 
f 29 33 34 30 
f 30 34 35 31 
f 31 35 36 32 
f 32 36 33 29 
f 33 37 38 34 
f 34 38 39 35 
f 35 39 40 36 
f 36 40 37 33 
f 37 41 42 38 
f 38 42 43 39 
f 39 43 44 40 
f 40 44 41 37 
f 41 45 46 42 
f 42 46 47 43 
f 43 47 48 44 
f 44 48 45 41 
f 45 49 50 46 
f 46 50 51 47 
f 47 51 52 48 
f 48 52 49 45 
f 49 53 54 50 
f 50 54 55 51 
f 51 55 56 52 
f 52 56 53 49 
f 53 57 58 54 
f 54 58 59 55 
f 55 59 60 56 
f 56 60 57 53 
f 57 61 62 58 
f 58 62 63 59 
f 59 63 64 60 
f 60 64 61 57 
f 61 65 66 62 
f 62 66 67 63 
f 63 67 68 64 
f 64 68 65 61 
f 65 69 70 66 
f 66 70 71 67 
f 67 71 72 68 
f 68 72 69 65 
f 69 73 74 70 
f 70 74 75 71 
f 71 75 76 72 
f 72 76 73 69 
f 73 77 78 74 
f 74 78 79 75 
f 75 79 80 76 
f 76 80 77 73 
f 77 81 82 78 
f 78 82 83 79 
f 79 83 84 80 
f 80 84 81 77 
f 81 85 86 82 
f 82 86 87 83 
f 83 87 88 84 
f 84 88 85 81 
f 85 89 90 86 
f 86 90 91 87 
f 87 91 92 88 
f 88 92 89 85 
f 89 93 94 90 
f 90 94 95 91 
f 91 95 96 92 
f 92 96 93 89 
f 93 97 98 94 
f 94 98 99 95 
f 95 99 100 96 
f 96 100 97 93 
f 97 101 102 98 
f 98 102 103 99 
f 99 103 104 100 
f 100 104 101 97 
f 101 105 106 102 
f 102 106 107 103 
f 103 107 108 104 
f 104 108 105 101 
f 105 109 110 106 
f 106 110 111 107 
f 107 111 112 108 
f 108 112 109 105 
f 109 113 114 110 
f 110 114 115 111 
f 111 115 116 112 
f 112 116 113 109 
f 113 117 118 114 
f 114 118 119 115 
f 115 119 120 116 
f 116 120 117 113 
f 117 121 122 118 
f 118 122 123 119 
f 119 123 124 120 
f 120 124 121 117 
f 121 125 126 122 
f 122 126 127 123 
f 123 127 128 124 
f 124 128 125 121 
f 125 129 130 126 
f 126 130 131 127 
f 127 131 132 128 
f 128 132 129 125 
f 129 133 134 130 
f 130 134 135 131 
f 131 135 136 132 
f 132 136 133 129 
f 133 137 138 134 
f 134 138 139 135 
f 135 139 140 136 
f 136 140 137 133 
f 137 141 142 138 
f 138 142 143 139 
f 139 143 144 140 
f 140 144 141 137 
f 141 145 146 142 
f 142 146 147 143 
f 143 147 148 144 
f 144 148 145 141 
f 145 149 150 146 
f 146 150 151 147 
f 147 151 152 148 
f 148 152 149 145 
f 149 153 154 150 
f 150 154 155 151 
f 151 155 156 152 
f 152 156 153 149 
f 153 157 158 154 
f 154 158 159 155 
f 155 159 160 156 
f 156 160 157 153 
f 157 161 162 158 
f 158 162 163 159 
f 159 163 164 160 
f 160 164 161 157 
f 161 165 166 162 
f 162 166 167 163 
f 163 167 168 164 
f 164 168 165 161 
f 165 169 170 166 
f 166 170 171 167 
f 167 171 172 168 
f 168 172 169 165 
f 169 173 174 170 
f 170 174 175 171 
f 171 175 176 172 
f 172 176 173 169 
f 173 177 178 174 
f 174 178 179 175 
f 175 179 180 176 
f 176 180 177 173 
f 177 181 182 178 
f 178 182 183 179 
f 179 183 184 180 
f 180 184 181 177 
f 181 185 186 182 
f 182 186 187 183 
f 183 187 188 184 
f 184 188 185 181 
f 185 189 190 186 
f 186 190 191 187 
f 187 191 192 188 
f 188 192 189 185 
f 189 193 194 190 
f 190 194 195 191 
f 191 195 196 192 
f 192 196 193 189 
f 193 197 198 194 
f 194 198 199 195 
f 195 199 200 196 
f 196 200 197 193 
f 197 201 202 198 
f 198 202 203 199 
f 199 203 204 200 
f 200 204 201 197 
f 201 205 206 202 
f 202 206 207 203 
f 203 207 208 204 
f 204 208 205 201 
f 205 209 210 206 
f 206 210 211 207 
f 207 211 212 208 
f 208 212 209 205 
f 209 213 214 210 
f 210 214 215 211 
f 211 215 216 212 
f 212 216 213 209 
f 213 217 218 214 
f 214 218 219 215 
f 215 219 220 216 
f 216 220 217 213 
f 217 221 222 218 
f 218 222 223 219 
f 219 223 224 220 
f 220 224 221 217 
f 221 225 226 222 
f 222 226 227 223 
f 223 227 228 224 
f 224 228 225 221 
f 225 229 230 226 
f 226 230 231 227 
f 227 231 232 228 
f 228 232 229 225 
f 229 233 234 230 
f 230 234 235 231 
f 231 235 236 232 
f 232 236 233 229 
f 233 237 238 234 
f 234 238 239 235 
f 235 239 240 236 
f 236 240 237 233 
f 237 241 242 238 
f 238 242 243 239 
f 239 243 244 240 
f 240 244 241 237 
f 241 245 246 242 
f 242 246 247 243 
f 243 247 248 244 
f 244 248 245 241 
f 245 249 250 246 
f 246 250 251 247 
f 247 251 252 248 
f 248 252 249 245 
f 249 253 254 250 
f 250 254 255 251 
f 251 255 256 252 
f 252 256 253 249 
f 253 257 258 254 
f 254 258 259 255 
f 255 259 260 256 
f 256 260 257 253 
f 257 261 262 258 
f 258 262 263 259 
f 259 263 264 260 
f 260 264 261 257 
f 261 265 266 262 
f 262 266 267 263 
f 263 267 268 264 
f 264 268 265 261 
f 265 269 270 266 
f 266 270 271 267 
f 267 271 272 268 
f 268 272 269 265 
f 269 273 274 270 
f 270 274 275 271 
f 271 275 276 272 
f 272 276 273 269 
f 273 277 278 274 
f 274 278 279 275 
f 275 279 280 276 
f 276 280 277 273 
f 277 281 282 278 
f 278 282 283 279 
f 279 283 284 280 
f 280 284 281 277 
f 281 285 286 282 
f 282 286 287 283 
f 283 287 288 284 
f 284 288 285 281 
f 285 289 290 286 
f 286 290 291 287 
f 287 291 292 288 
f 288 292 289 285 
f 289 293 294 290 
f 290 294 295 291 
f 291 295 296 292 
f 292 296 293 289 
f 293 297 298 294 
f 294 298 299 295 
f 295 299 300 296 
f 296 300 297 293 
f 297 301 302 298 
f 298 302 303 299 
f 299 303 304 300 
f 300 304 301 297 
f 301 305 306 302 
f 302 306 307 303 
f 303 307 308 304 
f 304 308 305 301 
f 305 309 310 306 
f 306 310 311 307 
f 307 311 312 308 
f 308 312 309 305 
f 309 313 314 310 
f 310 314 315 311 
f 311 315 316 312 
f 312 316 313 309 
f 313 317 318 314 
f 314 318 319 315 
f 315 319 320 316 
f 316 320 317 313 
f 317 321 322 318 
f 318 322 323 319 
f 319 323 324 320 
f 320 324 321 317 
f 321 325 326 322 
f 322 326 327 323 
f 323 327 328 324 
f 324 328 325 321 
f 325 329 330 326 
f 326 330 331 327 
f 327 331 332 328 
f 328 332 329 325 
f 329 333 334 330 
f 330 334 335 331 
f 331 335 336 332 
f 332 336 333 329 
f 333 337 338 334 
f 334 338 339 335 
f 335 339 340 336 
f 336 340 337 333 
f 337 341 342 338 
f 338 342 343 339 
f 339 343 344 340 
f 340 344 341 337 
f 341 345 346 342 
f 342 346 347 343 
f 343 347 348 344 
f 344 348 345 341 
f 345 349 350 346 
f 346 350 351 347 
f 347 351 352 348 
f 348 352 349 345 
f 349 353 354 350 
f 350 354 355 351 
f 351 355 356 352 
f 352 356 353 349 
f 353 357 358 354 
f 354 358 359 355 
f 355 359 360 356 
f 356 360 357 353 
f 357 361 362 358 
f 358 362 363 359 
f 359 363 364 360 
f 360 364 361 357 
f 361 365 366 362 
f 362 366 367 363 
f 363 367 368 364 
f 364 368 365 361 
f 365 369 370 366 
f 366 370 371 367 
f 367 371 372 368 
f 368 372 369 365 
f 369 373 374 370 
f 370 374 375 371 
f 371 375 376 372 
f 372 376 373 369 
f 373 377 378 374 
f 374 378 379 375 
f 375 379 380 376 
f 376 380 377 373 
f 377 381 382 378 
f 378 382 383 379 
f 379 383 384 380 
f 380 384 381 377 
f 381 385 386 382 
f 382 386 387 383 
f 383 387 388 384 
f 384 388 385 381 
f 385 389 390 386 
f 386 390 391 387 
f 387 391 392 388 
f 388 392 389 385 
f 389 393 394 390 
f 390 394 395 391 
f 391 395 396 392 
f 392 396 393 389 
f 393 397 398 394 
f 394 398 399 395 
f 395 399 400 396 
f 396 400 397 393 
f 397 401 402 398 
f 398 402 403 399 
f 399 403 404 400 
f 400 404 401 397 
f 401 405 406 402 
f 402 406 407 403 
f 403 407 408 404 
f 404 408 405 401 
f 405 409 410 406 
f 406 410 411 407 
f 407 411 412 408 
f 408 412 409 405 
f 409 413 414 410 
f 410 414 415 411 
f 411 415 416 412 
f 412 416 413 409 
f 413 417 418 414 
f 414 418 419 415 
f 415 419 420 416 
f 416 420 417 413 
f 417 421 422 418 
f 418 422 423 419 
f 419 423 424 420 
f 420 424 421 417 
f 421 425 426 422 
f 422 426 427 423 
f 423 427 428 424 
f 424 428 425 421 
f 425 429 430 426 
f 426 430 431 427 
f 427 431 432 428 
f 428 432 429 425 
f 429 433 434 430 
f 430 434 435 431 
f 431 435 436 432 
f 432 436 433 429 
f 433 437 438 434 
f 434 438 439 435 
f 435 439 440 436 
f 436 440 437 433 
f 437 441 442 438 
f 438 442 443 439 
f 439 443 444 440 
f 440 444 441 437 
f 441 445 446 442 
f 442 446 447 443 
f 443 447 448 444 
f 444 448 445 441 
f 445 449 450 446 
f 446 450 451 447 
f 447 451 452 448 
f 448 452 449 445 
f 449 453 454 450 
f 450 454 455 451 
f 451 455 456 452 
f 452 456 453 449 
f 453 457 458 454 
f 454 458 459 455 
f 455 459 460 456 
f 456 460 457 453 
f 457 461 462 458 
f 458 462 463 459 
f 459 463 464 460 
f 460 464 461 457 
f 461 465 466 462 
f 462 466 467 463 
f 463 467 468 464 
f 464 468 465 461 
f 465 469 470 466 
f 466 470 471 467 
f 467 471 472 468 
f 468 472 469 465 
f 469 473 474 470 
f 470 474 475 471 
f 471 475 476 472 
f 472 476 473 469 
f 473 477 478 474 
f 474 478 479 475 
f 475 479 480 476 
f 476 480 477 473 
f 477 481 482 478 
f 478 482 483 479 
f 479 483 484 480 
f 480 484 481 477 
f 481 485 486 482 
f 482 486 487 483 
f 483 487 488 484 
f 484 488 485 481 
f 485 489 490 486 
f 486 490 491 487 
f 487 491 492 488 
f 488 492 489 485 
f 489 493 494 490 
f 490 494 495 491 
f 491 495 496 492 
f 492 496 493 489 
f 493 497 498 494 
f 494 498 499 495 
f 495 499 500 496 
f 496 500 497 493 
f 497 501 502 498 
f 498 502 503 499 
f 499 503 504 500 
f 500 504 501 497 
f 501 505 506 502 
f 502 506 507 503 
f 503 507 508 504 
f 504 508 505 501 
f 505 509 510 506 
f 506 510 511 507 
f 507 511 512 508 
f 508 512 509 505 
f 509 513 514 510 
f 510 514 515 511 
f 511 515 516 512 
f 512 516 513 509 
f 513 517 518 514 
f 514 518 519 515 
f 515 519 520 516 
f 516 520 517 513 
f 517 521 522 518 
f 518 522 523 519 
f 519 523 524 520 
f 520 524 521 517 
f 521 525 526 522 
f 522 526 527 523 
f 523 527 528 524 
f 524 528 525 521 
f 525 1 4 526 
f 526 4 6 527 
f 527 6 8 528 
f 528 8 1 525 
f 529 530 531 532 
f 532 531 533 534 
f 534 533 535 536 
f 536 535 530 529 
f 529 532 534 536 
f 533 531 530 535 
# 534 polygons

