# Blender 5.0.0
# www.blender.org
mtllib photo-frame-3.mtl
o Lifestyle_092
v -9.216796 -7.575694 -0.989013
v -9.216798 7.352308 -2.076904
v 9.217284 7.352309 -2.076905
v 9.217286 -7.575693 -0.988892
v -7.221191 -5.524893 -0.304687
v 7.221680 -5.524892 -0.304688
v 7.221679 5.422308 -1.102539
v -7.221192 5.422307 -1.102539
v 9.217286 -7.454893 0.669799
v -9.216796 -7.454894 0.669800
v 9.217284 7.473208 -0.418335
v -9.216798 7.473207 -0.418335
v 9.158692 -7.393693 0.701171
v -9.158202 -7.393694 0.701172
v 9.158690 7.417208 -0.378296
v -9.158204 7.417207 -0.378296
v -8.385253 -6.625494 0.609253
v 8.385743 -6.625494 0.609253
v 8.385743 -6.661792 0.111694
v -8.385253 -6.661793 0.111695
v 8.385741 6.643809 -0.357788
v 8.385741 6.607607 -0.855469
v -8.385255 6.643808 -0.357788
v -8.385255 6.607606 -0.855468
v 7.221680 -5.500694 0.027099
v -7.221191 -5.500695 0.027100
v 7.221679 5.446505 -0.770874
v -7.221192 5.446504 -0.770874
v -8.444091 -6.681494 0.649292
v 8.444337 -6.681493 0.649292
v 8.444335 6.705008 -0.326416
v -8.444093 6.705007 -0.326416
v -9.093261 -7.326294 0.732422
v 9.093751 -7.326293 0.732421
v 9.093749 7.355109 -0.337647
v -9.093263 7.355108 -0.337646
v -9.028319 -7.259493 0.756470
v 9.028810 -7.259492 0.756469
v -8.963378 -7.193194 0.773194
v 8.963624 -7.193193 0.773315
v -8.898437 -7.127394 0.782959
v 8.898927 -7.127393 0.782959
v -8.833495 -7.062094 0.785401
v 8.833985 -7.062093 0.785400
v -8.768798 -6.997294 0.780640
v 8.769044 -6.997293 0.780639
v -8.703612 -6.933095 0.768799
v 8.704103 -6.933094 0.768798
v -8.638915 -6.869395 0.749634
v 8.639405 -6.869394 0.749633
v -8.573974 -6.806195 0.723389
v 8.574220 -6.806194 0.723388
v -8.508788 -6.743594 0.689942
v 8.509522 -6.743593 0.689941
v 9.028808 7.292407 -0.304200
v 8.963622 7.229308 -0.277954
v 8.898925 7.165606 -0.258789
v 8.833983 7.101305 -0.246949
v 8.769042 7.036608 -0.242188
v 8.704101 6.971308 -0.244629
v 8.639403 6.905509 -0.254395
v 8.574218 6.839205 -0.271119
v 8.509521 6.772307 -0.295166
v -9.028321 7.292406 -0.304199
v -8.963380 7.229307 -0.277954
v -8.898438 7.165605 -0.258789
v -8.833497 7.101305 -0.246948
v -8.768800 7.036607 -0.242187
v -8.703614 6.971307 -0.244629
v -8.638917 6.905508 -0.254394
v -8.573976 6.839204 -0.271118
v -8.508790 6.772306 -0.295166
vn -0.0000 -0.0727 -0.9974
vn -0.0000 0.0727 0.9974
vn -0.0000 -0.9974 0.0726
vn 1.0000 -0.0000 -0.0000
vn -0.0000 0.9974 -0.0727
vn -1.0000 -0.0000 -0.0000
vn -0.0000 -0.4554 0.8903
vn -0.0000 -0.4460 0.8951
vn 0.5207 0.0620 0.8515
vn 0.5112 0.0624 0.8572
vn -0.0000 0.5809 0.8140
vn -0.0000 0.5720 0.8202
vn -0.5206 0.0619 0.8516
vn -0.5108 0.0624 0.8574
vn -0.0000 0.9974 -0.0728
vn -1.0000 -0.0000 0.0006
vn -0.0000 -0.9974 0.0725
vn -0.0000 0.9973 -0.0728
vn -1.0000 -0.0000 -0.0005
vn -0.0000 -0.9973 0.0728
vn 1.0000 -0.0000 0.0005
vn -0.0000 0.5805 0.8143
vn -0.0000 0.5567 0.8307
vn -0.5212 0.0620 0.8512
vn -0.4951 0.0633 0.8665
vn -0.0000 -0.4557 0.8901
vn -0.0000 -0.4303 0.9027
vn 0.5175 0.0618 0.8535
vn 0.4960 0.0632 0.8660
vn -0.0000 -0.3991 0.9169
vn 0.4648 0.0644 0.8831
vn 0.4648 0.0644 0.8830
vn -0.0000 0.5280 0.8493
vn -0.4638 0.0643 0.8836
vn -0.1987 -0.1285 0.9716
vn 0.1990 -0.1283 0.9716
vn -0.1485 -0.0770 0.9859
vn 0.1481 -0.0772 0.9860
vn -0.0966 -0.0241 0.9950
vn 0.0965 -0.0241 0.9950
vn -0.0412 0.0316 0.9987
vn 0.0412 0.0316 0.9987
vn 0.0138 0.0870 0.9961
vn -0.0137 0.0870 0.9961
vn 0.0689 0.1407 0.9876
vn -0.0689 0.1405 0.9877
vn 0.1238 0.1946 0.9730
vn -0.1236 0.1944 0.9731
vn 0.1746 0.2441 0.9539
vn -0.1741 0.2444 0.9539
vn -0.0000 0.4918 0.8707
vn 0.1991 0.2678 0.9427
vn 0.1481 0.2197 0.9643
vn 0.0965 0.1684 0.9810
vn 0.0412 0.1133 0.9927
vn -0.0137 0.0594 0.9981
vn -0.0689 0.0031 0.9976
vn -0.1236 -0.0515 0.9910
vn -0.1740 -0.1039 0.9792
vn -0.4275 0.0656 0.9016
vn -0.1988 0.2679 0.9427
vn -0.1485 0.2196 0.9642
vn -0.0966 0.1685 0.9810
vn -0.0412 0.1132 0.9927
vn 0.0138 0.0595 0.9981
vn 0.0690 0.0032 0.9976
vn 0.1238 -0.0516 0.9910
vn 0.1746 -0.1035 0.9792
vn -0.0000 -0.3609 0.9326
vn 0.4265 0.0657 0.9021
vt 1.000000 0.000000
vt 1.000000 1.000000
vt 0.000000 1.000000
vt 0.000000 0.000000
s 1
usemtl Base
f 1/1/1 2/2/1 3/3/1 4/4/1
f 1/4/3 4/1/3 9/2/3 10/3/3
f 4/4/4 3/1/4 11/2/4 9/3/4
f 3/4/5 2/1/5 12/2/5 11/3/5
f 2/4/6 1/1/6 10/2/6 12/3/6
f 9/1/7 13/1/8 14/4/8 10/4/7
f 11/2/9 15/2/10 13/1/10 9/1/9
f 12/3/11 16/3/12 15/2/12 11/2/11
f 10/4/13 14/4/14 16/3/14 12/3/13
f 17/4/15 18/1/15 19/1/15 20/4/15
f 18/1/16 21/2/16 22/2/16 19/1/16
f 21/2/17 23/3/17 24/3/17 22/2/17
f 23/3/4 17/4/4 20/4/4 24/3/4
f 20/4/2 19/1/2 25/1/2 26/4/2
f 19/1/2 22/2/2 27/2/2 25/1/2
f 22/2/2 24/3/2 28/3/2 27/2/2
f 24/3/2 20/4/2 26/4/2 28/3/2
f 26/4/18 25/1/18 6/1/18 5/4/18
f 25/1/19 27/2/19 7/2/19 6/1/19
f 27/2/20 28/3/20 8/3/20 7/2/20
f 28/3/21 26/4/21 5/4/21 8/3/21
f 18/1/22 17/4/22 29/4/23 30/1/23
f 21/2/24 18/1/24 30/1/25 31/2/25
f 23/3/26 21/2/26 31/2/27 32/3/27
f 17/4/28 23/3/28 32/3/29 29/4/29
f 33/4/30 14/4/8 13/1/8 34/1/30
f 34/1/31 13/1/10 15/2/10 35/2/32
f 35/2/33 15/2/12 16/3/12 36/3/33
f 36/3/34 16/3/14 14/4/14 33/4/34
f 37/4/35 33/4/30 34/1/30 38/1/36
f 39/4/37 37/4/35 38/1/36 40/1/38
f 41/4/39 39/4/37 40/1/38 42/1/40
f 43/4/41 41/4/39 42/1/40 44/1/42
f 45/4/43 43/4/41 44/1/42 46/1/44
f 47/4/45 45/4/43 46/1/44 48/1/46
f 49/4/47 47/4/45 48/1/46 50/1/48
f 51/4/49 49/4/47 50/1/48 52/1/50
f 53/4/51 51/4/49 52/1/50 54/1/51
f 29/4/23 53/4/51 54/1/51 30/1/23
f 38/1/36 34/1/31 35/2/32 55/2/52
f 40/1/38 38/1/36 55/2/52 56/2/53
f 42/1/40 40/1/38 56/2/53 57/2/54
f 44/1/42 42/1/40 57/2/54 58/2/55
f 46/1/44 44/1/42 58/2/55 59/2/56
f 48/1/46 46/1/44 59/2/56 60/2/57
f 50/1/48 48/1/46 60/2/57 61/2/58
f 52/1/50 50/1/48 61/2/58 62/2/59
f 54/1/60 52/1/50 62/2/59 63/2/60
f 30/1/25 54/1/60 63/2/60 31/2/25
f 55/2/52 35/2/33 36/3/33 64/3/61
f 56/2/53 55/2/52 64/3/61 65/3/62
f 57/2/54 56/2/53 65/3/62 66/3/63
f 58/2/55 57/2/54 66/3/63 67/3/64
f 59/2/56 58/2/55 67/3/64 68/3/65
f 60/2/57 59/2/56 68/3/65 69/3/66
f 61/2/58 60/2/57 69/3/66 70/3/67
f 62/2/59 61/2/58 70/3/67 71/3/68
f 63/2/69 62/2/59 71/3/68 72/3/69
f 31/2/27 63/2/69 72/3/69 32/3/27
f 64/3/61 36/3/34 33/4/34 37/4/35
f 65/3/62 64/3/61 37/4/35 39/4/37
f 66/3/63 65/3/62 39/4/37 41/4/39
f 67/3/64 66/3/63 41/4/39 43/4/41
f 68/3/65 67/3/64 43/4/41 45/4/43
f 69/3/66 68/3/65 45/4/43 47/4/45
f 70/3/67 69/3/66 47/4/45 49/4/47
f 71/3/68 70/3/67 49/4/47 51/4/49
f 72/3/70 71/3/68 51/4/49 53/4/70
f 32/3/29 72/3/70 53/4/70 29/4/29
usemtl Picture
f 5/4/2 6/1/2 7/2/2 8/3/2
