# 3ds Max Wavefront OBJ Exporter v0.99 - (c)2007 guruware
# File Created: 27.05.2025 19:52:54

mtllib Bathroom fixture-046.mtl

#
# object Bathroom_fixture_046
#

v  -8.13 4.07 -0.20
v  -8.13 4.07 -0.55
v  -7.89 4.62 -0.55
v  -7.89 4.62 -0.20
v  -7.53 4.80 -0.55
v  -7.53 4.80 -0.20
v  -7.89 3.47 -0.20
v  -7.89 3.47 -0.55
v  -7.53 3.29 -0.20
v  -7.53 3.29 -0.55
v  -8.10 4.07 -0.58
v  -8.06 4.07 -0.58
v  -7.83 4.55 -0.58
v  -7.87 4.60 -0.58
v  -7.51 4.71 -0.58
v  -7.52 4.77 -0.58
v  -6.39 4.71 -0.58
v  -6.40 4.77 -0.58
v  -7.52 3.32 -0.58
v  -7.51 3.38 -0.58
v  -7.83 3.53 -0.58
v  -7.87 3.49 -0.58
v  -7.81 4.53 -0.55
v  -8.03 4.07 -0.55
v  -8.01 4.07 0.03
v  -7.81 4.53 0.17
v  -7.81 3.56 -0.55
v  -7.81 3.56 0.17
v  -7.51 3.41 -0.55
v  -7.51 3.41 0.36
v  -6.38 3.41 -0.55
v  -6.38 3.41 0.67
v  -7.51 4.68 -0.55
v  -7.51 4.68 0.36
v  -7.61 4.07 0.53
v  -6.47 4.07 0.84
v  -7.91 4.65 -0.17
v  -8.15 4.07 -0.17
v  -7.54 4.82 -0.17
v  -7.92 3.44 -0.17
v  -7.55 3.27 -0.17
v  -6.40 3.29 -0.55
v  -6.40 3.32 -0.58
v  -6.42 3.27 -0.17
v  -6.40 3.29 -0.20
v  -6.39 3.38 -0.58
v  -6.42 10.31 -0.17
v  -3.47 10.31 -0.17
v  -3.47 14.00 -0.17
v  -6.42 14.00 -0.17
v  -8.99 4.07 -0.17
v  -8.66 5.26 -0.17
v  -7.92 5.51 -0.17
v  -8.67 3.17 -0.17
v  -7.93 2.92 -0.17
v  -6.41 4.82 -0.17
v  -3.47 4.82 -0.17
v  -3.47 5.51 -0.17
v  -6.41 5.51 -0.17
v  -3.47 0.45 -0.17
v  -3.47 1.11 -0.17
v  -6.42 1.11 -0.17
v  -6.42 0.45 -0.17
v  -3.47 4.71 -0.58
v  -3.47 4.77 -0.58
v  -3.47 3.41 -0.55
v  -3.47 3.41 0.67
v  -3.47 4.07 0.84
v  -3.47 3.29 -0.55
v  -3.47 3.32 -0.58
v  -3.47 3.27 -0.17
v  -3.47 3.29 -0.20
v  -3.47 3.38 -0.58
v  -6.40 4.80 -0.55
v  -6.40 4.80 -0.20
v  -6.38 4.68 0.67
v  -6.38 4.68 -0.55
v  -3.47 -0.00 -0.17
v  -3.47 0.32 -0.17
v  -6.42 0.32 -0.17
v  -6.42 -0.00 -0.17
v  -6.42 2.92 -0.17
v  -12.53 14.40 -0.17
v  -12.65 14.19 -0.17
v  -12.32 14.19 -0.17
v  -12.32 14.50 -0.17
v  -12.30 -0.00 -0.17
v  -12.11 -0.00 -0.17
v  -12.11 0.32 -0.17
v  -12.30 0.32 -0.17
v  -12.65 14.00 -0.17
v  -12.32 14.00 -0.17
v  -12.64 5.14 -0.17
v  -12.65 0.45 -0.17
v  -12.30 0.45 -0.17
v  -12.31 5.14 -0.17
v  -12.65 0.32 -0.17
v  -12.53 0.10 -0.17
v  -12.11 14.19 -0.17
v  -12.11 14.50 -0.17
v  -12.11 14.00 -0.17
v  -12.11 0.45 -0.17
v  -12.11 5.14 -0.17
v  -9.26 -0.00 -0.17
v  -9.26 0.32 -0.17
v  -9.26 14.19 -0.17
v  -9.26 14.50 -0.17
v  -6.42 14.19 -0.17
v  -9.26 14.00 -0.17
v  -9.26 0.45 -0.17
v  -11.18 10.24 -0.17
v  -11.27 4.85 -0.17
v  -8.90 10.31 -0.17
v  -6.42 14.50 -0.17
v  -11.18 1.18 -0.17
v  -8.90 1.11 -0.17
v  -12.65 14.19 -0.37
v  -12.65 14.00 -0.37
v  -12.53 14.40 -0.37
v  -12.64 5.14 -0.37
v  -12.65 0.45 -0.37
v  -12.53 0.10 -0.37
v  -12.30 -0.00 -0.37
v  -12.11 -0.00 -0.37
v  -3.47 14.50 -0.17
v  -3.47 14.50 -0.37
v  -6.42 14.50 -0.37
v  -9.26 14.50 -0.37
v  -12.65 0.32 -0.37
v  -12.32 14.50 -0.37
v  -9.26 -0.00 -0.37
v  -12.11 14.50 -0.37
v  -6.42 -0.00 -0.37
v  -3.37 4.80 -0.20
v  -3.37 4.80 -0.55
v  -3.18 4.80 -0.55
v  -3.18 4.80 -0.20
v  -3.37 3.29 -0.55
v  -3.37 3.29 -0.20
v  -3.18 3.29 -0.20
v  -3.18 3.29 -0.55
v  -3.37 3.38 -0.58
v  -3.37 3.32 -0.58
v  -3.18 3.32 -0.58
v  -3.18 3.38 -0.58
v  -3.37 4.52 -0.55
v  -3.37 4.54 0.30
v  -3.18 4.54 0.30
v  -3.18 4.52 -0.55
v  -3.37 4.07 0.44
v  -3.18 4.07 0.44
v  -3.37 4.82 -0.17
v  -3.18 4.82 -0.17
v  -3.37 4.77 -0.58
v  -3.18 4.77 -0.58
v  -3.37 4.71 -0.58
v  -3.37 4.68 -0.55
v  -3.18 4.68 -0.55
v  -3.18 4.71 -0.58
v  -3.37 3.27 -0.17
v  -3.37 2.92 -0.17
v  -3.18 2.92 -0.17
v  -3.18 3.27 -0.17
v  -3.37 14.50 -0.17
v  -3.37 14.19 -0.17
v  -3.18 14.19 -0.17
v  -3.18 14.50 -0.17
v  -3.37 0.45 -0.17
v  -3.37 0.32 -0.17
v  -3.18 0.32 -0.17
v  -3.18 0.45 -0.17
v  -3.37 14.00 -0.17
v  -3.18 14.00 -0.17
v  -3.37 -0.00 -0.17
v  -3.37 -0.00 -0.37
v  -3.18 -0.00 -0.37
v  -3.18 -0.00 -0.17
v  8.13 4.07 -0.20
v  7.89 4.62 -0.20
v  7.89 4.62 -0.55
v  8.13 4.07 -0.55
v  7.53 4.80 -0.20
v  7.53 4.80 -0.55
v  7.89 3.47 -0.55
v  7.89 3.47 -0.20
v  7.53 3.29 -0.55
v  7.53 3.29 -0.20
v  8.10 4.07 -0.58
v  7.87 4.60 -0.58
v  7.83 4.55 -0.58
v  8.06 4.07 -0.58
v  7.52 4.77 -0.58
v  7.51 4.71 -0.58
v  6.40 4.77 -0.58
v  6.39 4.71 -0.58
v  7.52 3.32 -0.58
v  7.87 3.49 -0.58
v  7.83 3.53 -0.58
v  7.51 3.38 -0.58
v  7.81 4.53 -0.55
v  7.81 4.53 0.17
v  8.01 4.07 0.03
v  8.03 4.07 -0.55
v  7.81 3.56 0.17
v  7.81 3.56 -0.55
v  7.51 3.41 0.36
v  7.51 3.41 -0.55
v  6.38 3.41 -0.55
v  6.38 3.41 0.67
v  7.51 4.68 -0.55
v  7.51 4.68 0.36
v  7.61 4.07 0.53
v  6.47 4.07 0.84
v  8.15 4.07 -0.17
v  7.91 4.65 -0.17
v  7.54 4.82 -0.17
v  7.92 3.44 -0.17
v  7.55 3.27 -0.17
v  6.40 3.32 -0.58
v  6.40 3.29 -0.55
v  6.40 3.29 -0.20
v  6.42 3.27 -0.17
v  6.39 3.38 -0.58
v  3.81 14.00 -0.17
v  3.81 10.31 -0.17
v  6.42 10.31 -0.17
v  6.42 14.00 -0.17
v  8.99 4.07 -0.17
v  8.66 5.26 -0.17
v  7.92 5.51 -0.17
v  8.67 3.17 -0.17
v  7.93 2.92 -0.17
v  6.41 4.82 -0.17
v  6.41 5.51 -0.17
v  3.81 5.51 -0.17
v  3.81 4.82 -0.17
v  3.81 2.92 -0.17
v  3.81 1.11 -0.17
v  6.42 1.11 -0.17
v  6.42 2.92 -0.17
v  3.81 4.71 -0.58
v  3.81 4.77 -0.58
v  3.81 3.41 -0.55
v  3.81 3.41 0.67
v  3.81 4.07 0.84
v  3.81 3.29 -0.55
v  3.81 3.32 -0.58
v  3.81 3.27 -0.17
v  3.81 3.29 -0.20
v  3.81 3.38 -0.58
v  6.40 4.80 -0.20
v  6.40 4.80 -0.55
v  6.38 4.68 -0.55
v  6.38 4.68 0.67
v  3.81 -0.00 -0.17
v  6.42 -0.00 -0.17
v  6.42 0.32 -0.17
v  3.81 0.32 -0.17
v  12.53 14.40 -0.17
v  12.32 14.50 -0.17
v  12.32 14.19 -0.17
v  12.65 14.19 -0.17
v  12.30 -0.00 -0.17
v  12.30 0.32 -0.17
v  12.11 0.32 -0.17
v  12.11 -0.00 -0.17
v  12.32 14.00 -0.17
v  12.65 14.00 -0.17
v  12.64 5.14 -0.17
v  12.31 5.14 -0.17
v  12.30 0.45 -0.17
v  12.65 0.45 -0.17
v  12.53 0.10 -0.17
v  12.65 0.32 -0.17
v  12.11 14.19 -0.17
v  12.11 14.50 -0.17
v  12.11 14.00 -0.17
v  12.11 5.14 -0.17
v  12.11 0.45 -0.17
v  9.26 -0.00 -0.17
v  9.26 0.32 -0.17
v  9.26 14.19 -0.17
v  9.26 14.50 -0.17
v  6.42 14.19 -0.17
v  9.26 14.00 -0.17
v  9.26 0.45 -0.17
v  11.27 4.85 -0.17
v  11.18 10.24 -0.17
v  8.90 10.31 -0.17
v  6.42 14.50 -0.17
v  11.18 1.18 -0.17
v  6.42 0.45 -0.17
v  8.90 1.11 -0.17
v  12.65 14.00 -0.37
v  12.65 14.19 -0.37
v  12.53 14.40 -0.37
v  12.65 0.45 -0.37
v  12.64 5.14 -0.37
v  12.30 -0.00 -0.37
v  12.53 0.10 -0.37
v  12.11 -0.00 -0.37
v  6.42 14.50 -0.37
v  3.81 14.50 -0.37
v  3.81 14.50 -0.17
v  9.26 14.50 -0.37
v  12.65 0.32 -0.37
v  12.32 14.50 -0.37
v  9.26 -0.00 -0.37
v  12.11 14.50 -0.37
v  6.42 -0.00 -0.37
v  3.81 4.80 -0.20
v  3.81 4.80 -0.55
v  3.81 4.68 -0.55
v  3.81 4.68 0.67
v  3.81 14.19 -0.17
v  3.81 0.45 -0.17
v  3.81 -0.00 -0.37
v  -12.65 14.19 -0.81
v  -12.62 14.19 -0.84
v  -12.62 14.00 -0.84
v  -12.65 14.00 -0.81
v  -12.53 14.40 -0.81
v  -12.51 14.37 -0.84
v  -12.64 5.14 -0.81
v  -12.61 5.14 -0.84
v  -12.62 0.45 -0.84
v  -12.65 0.45 -0.81
v  -12.53 0.10 -0.81
v  -12.51 0.13 -0.84
v  -12.29 0.03 -0.84
v  -12.30 -0.00 -0.81
v  -12.11 0.03 -0.84
v  -12.11 -0.00 -0.81
v  -6.42 0.03 -0.84
v  -3.47 0.03 -0.84
v  -3.47 -0.00 -0.81
v  -6.42 -0.00 -0.81
v  -6.42 14.50 -0.81
v  -6.42 14.47 -0.84
v  -9.26 14.47 -0.84
v  -9.26 14.50 -0.81
v  -12.65 0.32 -0.81
v  -12.62 0.33 -0.84
v  -12.32 14.50 -0.81
v  -12.31 14.47 -0.84
v  -9.26 0.03 -0.84
v  -9.26 -0.00 -0.81
v  -12.11 14.50 -0.81
v  -12.11 14.47 -0.84
v  -3.18 14.47 -0.84
v  -3.37 14.47 -0.84
v  -3.37 14.50 -0.81
v  -3.18 14.50 -0.81
v  12.65 14.00 -0.81
v  12.62 14.00 -0.84
v  12.62 14.19 -0.84
v  12.65 14.19 -0.81
v  12.51 14.37 -0.84
v  12.53 14.40 -0.81
v  12.65 0.45 -0.81
v  12.62 0.45 -0.84
v  12.61 5.14 -0.84
v  12.64 5.14 -0.81
v  12.30 -0.00 -0.81
v  12.29 0.03 -0.84
v  12.51 0.13 -0.84
v  12.53 0.10 -0.81
v  12.11 -0.00 -0.81
v  12.11 0.03 -0.84
v  6.42 14.50 -0.81
v  6.42 14.47 -0.84
v  3.81 14.47 -0.84
v  3.81 14.50 -0.81
v  9.26 14.50 -0.81
v  9.26 14.47 -0.84
v  12.62 0.33 -0.84
v  12.65 0.32 -0.81
v  12.31 14.47 -0.84
v  12.32 14.50 -0.81
v  9.26 -0.00 -0.81
v  9.26 0.03 -0.84
v  12.11 14.47 -0.84
v  12.11 14.50 -0.81
v  6.42 -0.00 -0.81
v  6.42 0.03 -0.84
v  3.81 -0.00 -0.81
v  3.81 0.03 -0.84
v  -3.37 14.50 -0.37
v  -3.18 14.50 -0.37
v  -3.47 -0.00 -0.37
v  -12.38 14.12 -0.84
v  -12.38 14.00 -0.84
v  -12.34 14.19 -0.84
v  -12.26 14.24 -0.84
v  -12.11 14.24 -0.84
v  -9.26 14.24 -0.84
v  -6.42 14.24 -0.84
v  -3.47 14.47 -0.84
v  -3.47 14.24 -0.84
v  6.42 14.24 -0.84
v  3.81 14.24 -0.84
v  9.26 14.24 -0.84
v  12.11 14.24 -0.84
v  12.26 14.24 -0.84
v  12.34 14.19 -0.84
v  12.38 14.12 -0.84
v  12.38 14.00 -0.84
v  12.38 5.14 -0.84
v  12.38 0.45 -0.84
v  12.38 0.39 -0.84
v  12.34 0.31 -0.84
v  12.24 0.26 -0.84
v  12.11 0.26 -0.84
v  9.26 0.26 -0.84
v  6.42 0.26 -0.84
v  3.81 0.26 -0.84
v  -3.37 0.03 -0.84
v  -3.37 0.26 -0.84
v  -3.18 0.26 -0.84
v  -3.18 0.03 -0.84
v  -9.26 0.26 -0.84
v  -6.42 0.26 -0.84
v  -12.11 0.26 -0.84
v  -12.24 0.26 -0.84
v  -12.34 0.31 -0.84
v  -12.38 0.39 -0.84
v  -12.38 0.45 -0.84
v  -12.38 5.14 -0.84
v  -9.26 14.00 -0.84
v  -12.11 14.00 -0.84
v  -9.26 0.45 -0.84
v  -12.11 0.45 -0.84
v  -12.11 5.14 -0.84
v  -9.26 4.07 -0.84
v  12.11 14.00 -0.84
v  12.11 0.45 -0.84
v  12.11 5.14 -0.84
v  6.42 14.00 -0.84
v  3.81 14.00 -0.84
v  6.42 0.45 -0.84
v  3.81 0.45 -0.84
v  3.81 4.07 -0.84
v  6.42 4.07 -0.84
v  -6.42 0.45 -0.84
v  -6.42 4.07 -0.84
v  -6.42 14.00 -0.84
v  -3.37 0.45 -0.84
v  -3.18 0.45 -0.84
v  -3.37 4.07 -0.84
v  -3.18 4.07 -0.84
v  -3.37 14.00 -0.84
v  -3.37 14.24 -0.84
v  -3.18 14.24 -0.84
v  -3.18 14.00 -0.84
v  9.26 14.00 -0.84
v  9.26 0.45 -0.84
v  9.26 4.07 -0.84
v  -3.47 14.00 -0.84
v  -3.47 4.07 -0.84
v  -3.11 5.51 -0.17
v  -3.11 10.31 -0.17
v  -3.18 10.31 -0.17
v  -3.18 5.51 -0.17
v  -3.11 4.68 0.67
v  -3.11 4.68 -0.55
v  -3.18 4.68 0.67
v  -3.11 4.07 0.84
v  -3.18 4.07 0.84
v  -3.11 4.71 -0.58
v  -3.11 2.92 -0.17
v  -3.11 3.27 -0.17
v  -3.11 4.82 -0.17
v  -3.11 0.45 -0.17
v  -3.11 1.11 -0.17
v  -3.18 1.11 -0.17
v  -3.11 3.41 -0.55
v  -3.11 3.41 0.67
v  -3.18 3.41 0.67
v  -3.18 3.41 -0.55
v  -3.11 3.29 -0.55
v  -3.11 3.32 -0.58
v  -3.11 3.29 -0.20
v  -3.11 -0.00 -0.17
v  -3.11 0.32 -0.17
v  -3.11 14.19 -0.17
v  -3.11 14.50 -0.17
v  -3.11 14.00 -0.17
v  -3.11 14.50 -0.37
v  -3.11 -0.00 -0.81
v  -3.11 -0.00 -0.37
v  -3.18 -0.00 -0.81
v  -3.11 4.77 -0.58
v  -3.11 3.38 -0.58
v  -3.11 4.80 -0.20
v  -3.11 4.80 -0.55
v  -3.11 14.47 -0.84
v  -3.11 14.50 -0.81
v  -3.11 0.03 -0.84
v  -3.11 14.24 -0.84
v  -3.11 0.26 -0.84
v  -3.11 0.45 -0.84
v  -3.11 4.07 -0.84
v  -3.11 14.00 -0.84
v  -3.37 10.31 -0.17
v  -3.37 5.51 -0.17
v  -3.37 1.11 -0.17
v  -3.18 3.56 -0.55
v  -3.18 3.54 0.30
v  -3.37 3.54 0.30
v  -3.37 3.56 -0.55
v  -3.37 3.41 -0.55
v  -3.47 4.80 -0.20
v  -3.47 4.80 -0.55
v  -3.47 4.68 -0.55
v  -3.47 4.68 0.67
v  -3.37 4.68 0.67
v  -3.37 4.07 0.84
v  -3.47 2.92 -0.17
v  -3.47 14.19 -0.17
v  -3.37 -0.00 -0.81
v  -3.47 14.50 -0.81
v  -3.47 0.26 -0.84
v  -3.47 0.45 -0.84
v  -3.37 3.41 0.67
# 524 vertices

vn 0.92 -0.40 -0.00
vn 0.44 -0.90 -0.00
vn 0.22 -0.97 -0.00
vn 0.93 0.37 0.00
vn 0.44 0.90 0.00
vn 0.22 0.97 0.00
vn 0.00 -0.00 1.00
vn -0.00 -0.00 1.00
vn -0.91 0.41 0.02
vn -0.90 0.43 0.04
vn -0.92 0.39 0.00
vn -0.93 -0.37 0.02
vn -0.92 -0.39 -0.00
vn -0.94 -0.34 0.04
vn -0.44 -0.90 -0.00
vn -0.22 -0.97 0.00
vn -0.16 -0.99 -0.00
vn -0.00 -1.00 -0.00
vn -0.22 0.97 0.00
vn -0.44 0.90 0.00
vn -0.16 0.99 0.00
vn -0.76 0.04 0.65
vn -0.76 0.05 0.65
vn -0.70 0.20 0.69
vn -0.53 -0.02 0.85
vn -0.69 -0.22 0.69
vn -0.61 -0.28 0.74
vn -0.25 -0.27 0.93
vn -0.12 -0.26 0.96
vn -0.14 0.01 0.99
vn -0.26 0.01 0.97
vn 0.73 -0.31 0.61
vn 0.80 -0.35 0.48
vn 0.81 -0.35 0.47
vn 0.14 -0.71 0.69
vn 0.18 -0.70 0.70
vn 0.31 -0.64 0.71
vn 0.52 -0.48 0.71
vn 0.51 -0.50 0.71
vn 0.68 -0.30 0.67
vn 0.16 -0.69 0.71
vn 0.15 -0.69 0.71
vn 0.82 0.31 0.49
vn 0.82 0.31 0.48
vn 0.69 0.27 0.67
vn 0.68 0.27 0.68
vn 0.70 0.27 0.66
vn 0.32 0.66 0.68
vn 0.21 0.73 0.65
vn 0.12 0.78 0.62
vn 0.31 0.65 0.69
vn 0.15 0.69 0.71
vn 0.16 0.69 0.71
vn 0.00 0.71 0.70
vn 0.00 0.83 0.56
vn -0.51 0.49 0.71
vn -0.50 0.50 0.71
vn -0.67 0.32 0.67
vn -0.16 0.69 0.71
vn -0.15 0.69 0.71
vn -0.16 -0.69 0.71
vn -0.15 -0.69 0.71
vn 0.00 -0.71 0.70
vn -0.52 -0.48 0.70
vn -0.51 -0.49 0.71
vn -0.68 -0.29 0.67
vn -0.68 -0.29 0.68
vn 0.00 -0.25 0.97
vn 0.00 0.01 1.00
vn 0.00 1.00 0.00
vn -0.25 0.30 0.92
vn -0.12 0.28 0.95
vn 0.00 -0.75 0.66
vn -0.97 0.26 0.00
vn -0.97 0.26 -0.00
vn -1.00 -0.00 -0.00
vn -1.00 -0.00 0.00
vn -0.87 0.50 0.00
vn -1.00 0.00 0.00
vn -0.40 -0.92 -0.00
vn -0.21 -0.98 -0.00
vn -0.97 -0.23 0.00
vn -0.89 -0.45 -0.00
vn -0.43 0.90 0.00
vn 0.00 1.00 -0.02
vn -0.00 1.00 -0.02
vn -0.00 0.27 0.96
vn -0.00 0.01 1.00
vn -0.00 -0.75 0.66
vn -0.00 -0.71 0.70
vn -0.92 -0.40 -0.00
vn -0.22 -0.97 -0.00
vn -0.93 0.37 0.00
vn 0.91 0.41 0.02
vn 0.92 0.39 0.00
vn 0.90 0.43 0.04
vn 0.93 -0.37 0.02
vn 0.94 -0.34 0.04
vn 0.92 -0.39 -0.00
vn 0.16 -0.99 -0.00
vn 0.22 -0.97 0.00
vn 0.00 -1.00 -0.00
vn 0.16 0.99 0.00
vn 0.76 0.04 0.65
vn 0.53 -0.02 0.85
vn 0.70 0.20 0.69
vn 0.76 0.05 0.65
vn 0.69 -0.22 0.69
vn 0.61 -0.28 0.74
vn 0.25 -0.27 0.93
vn 0.26 0.01 0.97
vn 0.14 0.01 0.99
vn 0.12 -0.26 0.96
vn -0.73 -0.31 0.61
vn -0.81 -0.35 0.47
vn -0.80 -0.35 0.48
vn -0.14 -0.71 0.69
vn -0.31 -0.64 0.71
vn -0.18 -0.70 0.70
vn -0.52 -0.48 0.71
vn -0.68 -0.30 0.67
vn -0.51 -0.50 0.71
vn -0.82 0.31 0.49
vn -0.68 0.27 0.68
vn -0.69 0.27 0.67
vn -0.82 0.31 0.48
vn -0.70 0.27 0.66
vn -0.32 0.66 0.68
vn -0.12 0.78 0.62
vn -0.21 0.73 0.65
vn -0.31 0.65 0.69
vn 0.51 0.49 0.71
vn 0.67 0.32 0.67
vn 0.50 0.50 0.71
vn 0.52 -0.48 0.70
vn 0.51 -0.49 0.71
vn 0.68 -0.29 0.67
vn 0.68 -0.29 0.68
vn -0.00 1.00 0.00
vn 0.25 0.30 0.92
vn 0.12 0.28 0.95
vn 1.00 -0.00 -0.00
vn 0.97 0.26 -0.00
vn 0.87 0.50 0.00
vn 1.00 0.00 -0.00
vn 0.21 -0.98 -0.00
vn 0.40 -0.92 -0.00
vn 0.89 -0.45 -0.00
vn 0.97 -0.23 -0.00
vn 0.43 0.90 0.00
vn 0.00 0.27 0.96
vn -0.67 0.18 -0.72
vn -0.71 -0.00 -0.71
vn -0.47 0.51 -0.72
vn -0.71 0.00 -0.71
vn -0.47 -0.50 -0.73
vn -0.14 -0.68 -0.71
vn -0.00 -0.71 -0.71
vn -0.00 0.71 -0.71
vn -0.68 -0.16 -0.72
vn -0.16 0.68 -0.72
vn 0.71 -0.00 -0.71
vn 0.67 0.18 -0.72
vn 0.47 0.51 -0.72
vn 0.71 0.00 -0.71
vn 0.14 -0.68 -0.71
vn 0.47 -0.50 -0.73
vn 0.68 -0.16 -0.72
vn 0.16 0.68 -0.72
vn -0.87 0.50 -0.00
vn -0.00 0.00 -1.00
vn 0.00 0.00 -1.00
vn 0.00 -1.00 -0.02
vn -0.00 -1.00 -0.02
vn -0.00 -0.25 0.97
vn 0.00 0.00 1.00
vn 1.00 -0.01 0.00
vn 1.00 0.01 0.00
vn 1.00 0.01 -0.00
# 179 vertex normals

vt 0.02 0.10 -17358.57
vt 0.02 0.10 -217196.08
vt 0.04 0.14 -217196.06
vt 0.04 0.14 -17358.59
vt 0.06 0.16 -217196.06
vt 0.06 0.16 -17358.60
vt 0.04 0.05 -17358.58
vt 0.04 0.05 -217196.08
vt 0.06 0.04 -17358.59
vt 0.06 0.04 -217196.03
vt 0.03 0.10 -234555.52
vt 0.04 0.14 -234555.48
vt 0.06 0.15 -234555.56
vt 0.06 0.16 -234555.48
vt 0.13 0.15 -234555.56
vt 0.12 0.16 -234555.48
vt 0.06 0.04 -234555.45
vt 0.04 0.06 -234555.52
vt 0.04 0.05 -234555.52
vt 0.03 0.10 -217196.08
vt 0.03 0.10 118521.23
vt 0.04 0.14 195973.88
vt 0.04 0.06 -217196.08
vt 0.04 0.06 195973.80
vt 0.06 0.05 -217196.03
vt 0.06 0.05 309988.06
vt 0.13 0.05 -217196.03
vt 0.13 0.05 489579.84
vt 0.06 0.15 -217196.11
vt 0.06 0.15 309988.03
vt 0.05 0.10 406978.25
vt 0.12 0.10 586570.00
vt 0.04 0.15 0.84
vt 0.02 0.10 0.86
vt 0.06 0.16 0.83
vt 0.04 0.05 0.85
vt 0.06 0.04 0.85
vt 0.12 0.04 -217196.03
vt 0.12 0.04 -234555.45
vt 0.12 0.04 0.85
vt 0.12 0.04 -17358.59
vt 0.13 0.04 -234555.45
vt 0.12 0.61 0.42
vt 0.29 0.61 0.42
vt 0.29 0.90 0.19
vt 0.12 0.90 0.19
vt -0.02 0.10 0.80
vt -0.01 0.20 0.80
vt 0.04 0.22 0.78
vt -0.01 0.03 0.78
vt 0.04 0.01 0.78
vt 0.12 0.16 0.83
vt 0.29 0.16 0.83
vt 0.29 0.22 0.78
vt 0.12 0.22 0.78
vt 0.29 -0.19 -0.06
vt 0.29 -0.14 0.15
vt 0.12 -0.14 0.15
vt 0.12 -0.19 -0.08
vt 0.29 0.15 -234555.59
vt 0.29 0.16 -234555.48
vt 0.29 0.05 -217196.00
vt 0.29 0.05 489579.91
vt 0.29 0.10 586570.06
vt 0.29 0.04 -217196.00
vt 0.29 0.04 -234555.44
vt 0.29 0.04 0.87
vt 0.29 0.04 -17358.59
vt 0.12 0.16 -217196.06
vt 0.12 0.16 -17358.60
vt 0.13 0.15 489579.75
vt 0.13 0.15 -217196.11
vt 0.29 -0.23 -0.15
vt 0.29 -0.20 -0.09
vt 0.12 -0.20 -0.10
vt 0.12 -0.23 -0.14
vt 0.12 0.01 0.78
vt -0.23 0.94 0.16
vt -0.24 0.92 0.16
vt -0.22 0.92 0.17
vt -0.22 0.94 0.15
vt -0.22 -0.23 -0.14
vt -0.20 -0.23 -0.14
vt -0.20 -0.20 -0.13
vt -0.22 -0.20 -0.13
vt -0.24 0.90 0.15
vt -0.22 0.90 0.17
vt -0.24 0.19 0.01
vt -0.24 -0.19 -0.15
vt -0.22 -0.19 -0.13
vt -0.22 0.19 0.03
vt -0.24 -0.20 -0.15
vt -0.23 -0.22 -0.15
vt -0.20 0.92 0.17
vt -0.20 0.94 0.15
vt -0.20 0.90 0.17
vt -0.20 -0.19 -0.13
vt -0.20 0.19 0.04
vt -0.04 -0.23 -0.14
vt -0.04 -0.20 -0.12
vt -0.04 0.92 0.17
vt -0.04 0.94 0.15
vt 0.12 0.92 0.18
vt -0.04 0.90 0.18
vt -0.04 -0.19 -0.10
vt -0.15 0.60 0.41
vt -0.16 0.16 0.25
vt -0.02 0.61 0.41
vt 0.12 0.94 0.15
vt -0.15 -0.13 0.12
vt -0.02 -0.14 0.13
vt -0.24 0.92 -115067.04
vt -0.24 0.90 -115067.04
vt -0.23 0.94 -115067.04
vt -0.24 0.19 -115067.20
vt -0.24 -0.19 -115067.35
vt -0.23 -0.22 -115067.37
vt -0.22 -0.23 -115067.35
vt -0.20 -0.23 -115067.35
vt 0.29 0.94 0.15
vt 0.29 0.94 -115067.07
vt 0.12 0.94 -115067.04
vt -0.04 0.94 -115067.04
vt -0.24 -0.20 -115067.37
vt -0.22 0.94 -115067.05
vt -0.04 -0.23 -115067.35
vt -0.20 0.94 -115067.05
vt 0.12 -0.23 -115067.35
vt 0.30 0.16 -17358.61
vt 0.30 0.16 -217196.06
vt 0.31 0.16 -217196.06
vt 0.31 0.16 -17358.61
vt 0.30 0.04 -217196.00
vt 0.30 0.04 -17358.59
vt 0.31 0.04 -17358.59
vt 0.31 0.04 -217196.00
vt 0.30 0.04 -234555.44
vt 0.31 0.04 -234555.44
vt 0.30 0.14 -217196.06
vt 0.30 0.14 274055.69
vt 0.31 0.14 274125.47
vt 0.31 0.14 -217196.06
vt 0.30 0.10 351635.31
vt 0.31 0.10 351635.31
vt 0.30 0.16 0.83
vt 0.31 0.16 0.84
vt 0.30 0.16 -234555.48
vt 0.31 0.16 -234555.48
vt 0.30 0.15 -234555.59
vt 0.30 0.15 -217196.11
vt 0.31 0.15 -217196.11
vt 0.31 0.15 -234555.59
vt 0.30 0.04 0.87
vt 0.30 0.01 0.78
vt 0.31 0.01 0.79
vt 0.31 0.04 0.87
vt 0.30 0.94 0.15
vt 0.30 0.92 0.18
vt 0.31 0.92 0.18
vt 0.31 0.94 0.15
vt 0.30 -0.19 -0.06
vt 0.30 -0.20 -0.09
vt 0.31 -0.20 -0.09
vt 0.31 -0.19 -0.06
vt 0.30 0.90 0.19
vt 0.31 0.90 0.19
vt 0.30 -0.23 -0.15
vt 0.30 -0.23 -115067.32
vt 0.31 -0.23 -115067.32
vt 0.31 -0.23 -0.14
vt 0.96 0.10 -17358.57
vt 0.95 0.14 -17358.59
vt 0.95 0.14 -217196.06
vt 0.96 0.10 -217196.08
vt 0.93 0.16 -17358.60
vt 0.93 0.16 -217196.06
vt 0.95 0.05 -217196.08
vt 0.95 0.05 -17358.58
vt 0.93 0.04 -217196.03
vt 0.93 0.04 -17358.59
vt 0.96 0.10 -234555.52
vt 0.95 0.14 -234555.48
vt 0.93 0.16 -234555.48
vt 0.93 0.15 -234555.56
vt 0.86 0.16 -234555.48
vt 0.86 0.15 -234555.56
vt 0.93 0.04 -234555.45
vt 0.95 0.05 -234555.52
vt 0.95 0.06 -234555.52
vt 0.94 0.14 -217196.06
vt 0.94 0.14 195973.88
vt 0.96 0.10 118521.23
vt 0.94 0.06 195973.80
vt 0.94 0.06 -217196.08
vt 0.93 0.05 309988.06
vt 0.93 0.05 -217196.03
vt 0.86 0.05 -217196.03
vt 0.86 0.05 489579.84
vt 0.93 0.15 -217196.11
vt 0.93 0.15 309988.03
vt 0.93 0.10 406978.25
vt 0.87 0.10 586570.00
vt 0.96 0.10 0.86
vt 0.95 0.15 0.84
vt 0.93 0.16 0.83
vt 0.95 0.05 0.85
vt 0.93 0.04 0.85
vt 0.86 0.04 -234555.45
vt 0.86 0.04 -217196.03
vt 0.86 0.04 -17358.59
vt 0.86 0.04 0.85
vt 0.71 0.90 0.19
vt 0.71 0.61 0.42
vt 0.86 0.61 0.42
vt 0.86 0.90 0.19
vt 1.01 0.10 0.80
vt 0.99 0.20 0.80
vt 0.95 0.22 0.78
vt 0.99 0.03 0.78
vt 0.95 0.01 0.78
vt 0.86 0.16 0.83
vt 0.86 0.22 0.78
vt 0.71 0.22 0.78
vt 0.71 0.16 0.84
vt 0.71 0.01 0.79
vt 0.71 -0.14 0.15
vt 0.86 -0.14 0.15
vt 0.86 0.01 0.78
vt 0.71 0.15 -234555.59
vt 0.71 0.16 -234555.48
vt 0.71 0.05 -217196.00
vt 0.71 0.05 489579.91
vt 0.71 0.10 586570.06
vt 0.71 0.04 -217196.00
vt 0.71 0.04 -234555.44
vt 0.71 0.04 0.87
vt 0.71 0.04 -17358.59
vt 0.86 0.16 -17358.60
vt 0.86 0.16 -217196.06
vt 0.86 0.15 -217196.11
vt 0.86 0.15 489579.75
vt 0.71 -0.23 -0.14
vt 0.86 -0.23 -0.14
vt 0.86 -0.20 -0.10
vt 0.71 -0.20 -0.09
vt 1.22 0.94 0.16
vt 1.20 0.94 0.15
vt 1.20 0.92 0.17
vt 1.22 0.92 0.16
vt 1.20 -0.23 -0.14
vt 1.20 -0.20 -0.13
vt 1.19 -0.20 -0.13
vt 1.19 -0.23 -0.14
vt 1.20 0.90 0.17
vt 1.22 0.90 0.15
vt 1.22 0.19 0.01
vt 1.20 0.19 0.03
vt 1.20 -0.19 -0.13
vt 1.22 -0.19 -0.15
vt 1.22 -0.22 -0.15
vt 1.22 -0.20 -0.15
vt 1.19 0.92 0.17
vt 1.19 0.94 0.15
vt 1.19 0.90 0.17
vt 1.19 0.19 0.04
vt 1.19 -0.19 -0.13
vt 1.03 -0.23 -0.14
vt 1.03 -0.20 -0.12
vt 1.03 0.92 0.17
vt 1.03 0.94 0.15
vt 0.86 0.92 0.18
vt 1.03 0.90 0.18
vt 1.03 -0.19 -0.10
vt 1.14 0.16 0.25
vt 1.14 0.60 0.41
vt 1.01 0.61 0.41
vt 0.86 0.94 0.15
vt 1.14 -0.13 0.12
vt 0.86 -0.19 -0.08
vt 1.01 -0.14 0.13
vt 1.22 0.90 -115067.04
vt 1.22 0.92 -115067.04
vt 1.22 0.94 -115067.04
vt 1.22 -0.19 -115067.34
vt 1.22 0.19 -115067.20
vt 1.20 -0.23 -115067.37
vt 1.22 -0.22 -115067.37
vt 1.19 -0.23 -115067.37
vt 0.86 0.94 -115067.04
vt 0.71 0.94 -115067.05
vt 0.71 0.94 0.15
vt 1.03 0.94 -115067.04
vt 1.22 -0.20 -115067.37
vt 1.20 0.94 -115067.04
vt 1.03 -0.23 -115067.37
vt 1.19 0.94 -115067.04
vt 0.86 -0.23 -115067.37
vt 0.71 0.16 -17358.61
vt 0.71 0.16 -217196.06
vt 0.71 0.15 -217196.11
vt 0.71 0.15 489579.81
vt 0.71 0.92 0.18
vt 0.71 -0.19 -0.06
vt 0.71 -0.23 -115067.32
vt -0.24 0.92 -370833.09
vt -0.23 0.92 -388192.56
vt -0.23 0.90 -388192.56
vt -0.24 0.90 -370833.09
vt -0.23 0.94 -370833.09
vt -0.23 0.93 -388192.56
vt -0.24 0.19 -370833.25
vt -0.23 0.19 -388192.72
vt -0.23 -0.19 -388192.84
vt -0.24 -0.19 -370833.41
vt -0.23 -0.22 -370833.41
vt -0.23 -0.22 -388192.88
vt -0.22 -0.23 -388192.88
vt -0.22 -0.23 -370833.41
vt -0.20 -0.23 -388192.88
vt -0.20 -0.23 -370833.41
vt 0.12 -0.23 -388192.88
vt 0.29 -0.23 -388192.88
vt 0.29 -0.23 -370833.41
vt 0.12 -0.23 -370833.41
vt 0.12 0.94 -370833.09
vt 0.12 0.94 -388192.56
vt -0.04 0.94 -388192.56
vt -0.04 0.94 -370833.09
vt -0.24 -0.20 -370833.41
vt -0.23 -0.20 -388192.88
vt -0.22 0.94 -370833.09
vt -0.22 0.94 -388192.56
vt -0.04 -0.23 -388192.88
vt -0.04 -0.23 -370833.41
vt -0.20 0.94 -370833.09
vt -0.20 0.94 -388192.56
vt 0.31 0.94 -388192.56
vt 0.30 0.94 -388192.56
vt 0.30 0.94 -370833.03
vt 0.31 0.94 -370833.03
vt 1.22 0.90 -370833.09
vt 1.22 0.90 -388192.56
vt 1.22 0.92 -388192.56
vt 1.22 0.92 -370833.09
vt 1.22 0.93 -388192.56
vt 1.22 0.94 -370833.09
vt 1.22 -0.19 -370833.41
vt 1.22 -0.19 -388192.84
vt 1.22 0.19 -388192.72
vt 1.22 0.19 -370833.25
vt 1.20 -0.23 -370833.41
vt 1.20 -0.23 -388192.88
vt 1.22 -0.22 -388192.88
vt 1.22 -0.22 -370833.41
vt 1.19 -0.23 -370833.41
vt 1.19 -0.23 -388192.88
vt 0.86 0.94 -370833.09
vt 0.86 0.94 -388192.56
vt 0.71 0.94 -388192.56
vt 0.71 0.94 -370833.03
vt 1.03 0.94 -370833.09
vt 1.03 0.94 -388192.56
vt 1.22 -0.20 -388192.88
vt 1.22 -0.20 -370833.41
vt 1.20 0.94 -388192.56
vt 1.20 0.94 -370833.09
vt 1.03 -0.23 -370833.41
vt 1.03 -0.23 -388192.88
vt 1.19 0.94 -388192.56
vt 1.19 0.94 -370833.09
vt 0.86 -0.23 -370833.41
vt 0.86 -0.23 -388192.88
vt 0.71 -0.23 -370833.41
vt 0.71 -0.23 -388192.88
vt 0.30 0.94 -115067.07
vt 0.31 0.94 -115067.05
vt 0.29 -0.23 -115067.32
vt -0.22 0.91 -388192.56
vt -0.22 0.90 -388192.56
vt -0.22 0.92 -388192.56
vt -0.21 0.92 -388192.56
vt -0.20 0.92 -388192.56
vt -0.04 0.92 -388192.56
vt 0.12 0.92 -388192.56
vt 0.29 0.94 -388192.56
vt 0.29 0.92 -388192.56
vt 0.86 0.92 -388192.56
vt 0.71 0.92 -388192.56
vt 1.03 0.92 -388192.56
vt 1.19 0.92 -388192.56
vt 1.20 0.92 -388192.56
vt 1.21 0.92 -388192.56
vt 1.21 0.91 -388192.56
vt 1.21 0.90 -388192.56
vt 1.21 0.19 -388192.72
vt 1.21 -0.19 -388192.84
vt 1.21 -0.20 -388192.88
vt 1.20 -0.21 -388192.88
vt 1.19 -0.21 -388192.88
vt 1.03 -0.21 -388192.88
vt 0.86 -0.21 -388192.88
vt 0.71 -0.21 -388192.88
vt 0.30 -0.23 -388192.88
vt 0.30 -0.21 -388192.84
vt 0.31 -0.21 -388192.88
vt 0.31 -0.23 -388192.88
vt -0.04 -0.21 -388192.88
vt 0.12 -0.21 -388192.88
vt -0.20 -0.21 -388192.88
vt -0.21 -0.21 -388192.88
vt -0.22 -0.20 -388192.88
vt -0.22 -0.19 -388192.84
vt -0.22 0.19 -388192.72
vt -0.04 0.90 -388192.56
vt -0.20 0.90 -388192.56
vt -0.04 -0.19 -388192.84
vt -0.20 -0.19 -388192.84
vt -0.20 0.19 -388192.72
vt -0.04 0.10 -388192.59
vt 1.19 0.90 -388192.56
vt 1.19 -0.19 -388192.88
vt 1.19 0.19 -388192.78
vt 0.86 0.90 -388192.56
vt 0.71 0.90 -388192.56
vt 0.86 -0.19 -388192.88
vt 0.71 -0.19 -388192.88
vt 0.71 0.10 -388192.66
vt 0.86 0.10 -388192.66
vt 0.12 -0.19 -388192.84
vt 0.12 0.10 -388192.59
vt 0.12 0.90 -388192.56
vt 0.30 -0.19 -388192.88
vt 0.31 -0.19 -388192.88
vt 0.30 0.10 -388192.62
vt 0.31 0.10 -388192.62
vt 0.30 0.90 -388192.56
vt 0.30 0.92 -388192.56
vt 0.31 0.92 -388192.56
vt 0.31 0.90 -388192.56
vt 1.03 0.90 -388192.56
vt 1.03 -0.19 -388192.88
vt 1.03 0.10 -388192.66
vt 0.29 0.90 -388192.56
vt 0.29 0.10 -388192.62
vt 0.31 0.22 0.78
vt 0.31 0.61 0.42
vt 0.31 0.15 489579.81
vt 0.31 0.10 586570.06
vt 0.31 -0.14 0.15
vt 0.31 0.05 -217196.00
vt 0.31 0.05 489579.91
vt 0.31 -0.23 -370833.41
vt 0.30 0.61 0.42
vt 0.30 0.22 0.78
vt 0.30 -0.14 0.15
vt 0.31 0.06 -217196.06
vt 0.31 0.06 273686.56
vt 0.30 0.06 273618.25
vt 0.30 0.06 -217196.06
vt 0.30 0.05 -217196.00
vt 0.29 0.16 -17358.61
vt 0.29 0.16 -217196.06
vt 0.29 0.15 -217196.11
vt 0.29 0.15 489579.69
vt 0.30 0.15 489579.69
vt 0.30 0.10 586570.06
vt 0.29 0.01 0.78
vt 0.29 0.92 0.18
vt 0.30 -0.23 -370833.41
vt 0.29 0.94 -370833.03
vt 0.29 -0.21 -388192.84
vt 0.29 -0.19 -388192.88
vt 0.30 0.05 489579.91
# 473 texture coords

o Bathroom_fixture_046
g Bathroom_fixture_046
usemtl Base
s 1
f 1/1/1 2/2/1 3/3/1 
f 3/3/1 4/4/1 1/1/1 
s 2
f 4/4/2 3/3/2 5/5/3 
f 5/5/3 6/6/3 4/4/2 
f 1/1/4 7/7/4 8/8/4 
f 8/8/4 2/2/4 1/1/4 
s 1
f 7/7/5 9/9/6 10/10/6 
f 10/10/6 8/8/5 7/7/5 
f 11/11/7 12/11/7 13/12/7 
f 13/12/7 14/12/7 11/11/7 
f 14/12/7 13/12/7 15/13/7 
f 15/13/7 16/14/7 14/12/7 
f 15/13/7 17/15/7 18/16/7 
f 18/16/7 16/14/7 15/13/7 
f 19/17/8 20/17/8 21/18/8 
f 21/18/8 22/19/8 19/17/8 
f 22/19/8 21/18/8 12/11/7 
f 12/11/7 11/11/7 22/19/8 
f 23/3/9 24/20/10 25/21/9 
f 25/21/9 26/22/11 23/3/9 
s 2
f 24/20/12 27/23/13 28/24/12 
f 28/24/12 25/21/14 24/20/12 
s 1
f 27/23/15 29/25/16 30/26/17 
f 30/26/17 28/24/15 27/23/15 
f 31/27/18 32/28/18 30/26/17 
f 30/26/17 29/25/16 31/27/18 
s 2
f 33/29/19 23/3/20 26/22/20 
f 26/22/20 34/30/21 33/29/19 
s 4
f 25/21/22 35/31/23 34/30/24 
f 34/30/24 26/22/25 25/21/22 
f 28/24/26 30/26/27 35/31/23 
f 35/31/23 25/21/22 28/24/26 
s 8
f 30/26/28 32/28/29 36/32/30 
f 36/32/30 35/31/31 30/26/28 
s 4
f 4/4/32 37/33/32 38/34/33 
f 38/34/33 1/1/34 4/4/32 
s 8
f 6/6/35 39/35/36 37/33/37 
f 37/33/37 4/4/37 6/6/35 
s 4
f 14/12/38 3/3/39 2/2/40 
f 2/2/40 11/11/40 14/12/38 
f 16/14/41 5/5/42 3/3/39 
f 3/3/39 14/12/38 16/14/41 
s 8
f 1/1/43 38/34/44 40/36/45 
f 40/36/45 7/7/46 1/1/43 
f 11/11/46 2/2/46 8/8/47 
f 8/8/47 22/19/47 11/11/46 
s 4
f 7/7/48 40/36/48 41/37/49 
f 41/37/49 9/9/50 7/7/48 
f 22/19/51 8/8/51 10/10/52 
f 10/10/52 19/17/53 22/19/51 
f 19/17/53 10/10/52 42/38/54 
f 42/38/54 43/39/54 19/17/53 
f 9/9/50 41/37/49 44/40/55 
f 44/40/55 45/41/55 9/9/50 
f 23/3/56 13/12/57 12/11/58 
f 12/11/58 24/20/58 23/3/56 
f 33/29/59 15/13/60 13/12/57 
f 13/12/57 23/3/56 33/29/59 
s 8
f 29/25/61 20/17/62 46/42/63 
f 46/42/63 31/27/63 29/25/61 
f 27/23/64 21/18/65 20/17/62 
f 20/17/62 29/25/61 27/23/64 
f 24/20/66 12/11/67 21/18/65 
f 21/18/65 27/23/64 24/20/66 
s 1
f 47/43/7 48/44/7 49/45/7 
f 49/45/7 50/46/7 47/43/7 
f 51/47/8 38/34/8 37/33/7 
f 37/33/7 52/48/8 51/47/8 
f 37/33/7 39/35/7 53/49/7 
f 53/49/7 52/48/8 37/33/7 
f 40/36/8 38/34/8 51/47/8 
f 51/47/8 54/50/8 40/36/8 
f 55/51/8 41/37/7 40/36/8 
f 40/36/8 54/50/8 55/51/8 
f 56/52/7 57/53/7 58/54/7 
f 58/54/7 59/55/7 56/52/7 
f 39/35/7 56/52/7 59/55/7 
f 59/55/7 53/49/7 39/35/7 
f 60/56/7 61/57/7 62/58/7 
f 62/58/7 63/59/7 60/56/7 
f 64/60/7 65/61/7 18/16/7 
f 18/16/7 17/15/7 64/60/7 
f 66/62/18 67/63/18 32/28/18 
f 32/28/18 31/27/18 66/62/18 
s 8
f 32/28/29 67/63/68 68/64/69 
f 68/64/69 36/32/30 32/28/29 
s 4
f 69/65/54 70/66/54 43/39/54 
f 43/39/54 42/38/54 69/65/54 
f 71/67/55 72/68/55 45/41/55 
f 45/41/55 44/40/55 71/67/55 
s 8
f 73/66/63 66/62/63 31/27/63 
f 31/27/63 46/42/63 73/66/63 
s 2
f 6/6/3 5/5/3 74/69/18 
f 74/69/18 75/70/18 6/6/3 
s 1
f 10/10/6 9/9/6 45/41/70 
f 45/41/70 42/38/70 10/10/6 
f 20/17/8 19/17/8 43/39/7 
f 43/39/7 46/42/7 20/17/8 
s 2
f 33/29/19 34/30/21 76/71/70 
f 76/71/70 77/72/70 33/29/19 
s 8
f 34/30/71 35/31/31 36/32/30 
f 36/32/30 76/71/72 34/30/71 
f 56/52/73 39/35/36 6/6/35 
f 6/6/35 75/70/73 56/52/73 
s 4
f 74/69/63 5/5/42 16/14/41 
f 16/14/41 18/16/63 74/69/63 
f 17/15/54 15/13/60 33/29/59 
f 33/29/59 77/72/54 17/15/54 
s 1
f 78/73/7 79/74/7 80/75/7 
f 80/75/7 81/76/7 78/73/7 
f 41/37/7 55/51/8 82/77/7 
f 82/77/7 44/40/7 41/37/7 
f 83/78/7 84/79/8 85/80/7 
f 85/80/7 86/81/7 83/78/7 
f 87/82/7 88/83/7 89/84/7 
f 89/84/7 90/85/7 87/82/7 
f 84/79/8 91/86/8 92/87/7 
f 92/87/7 85/80/7 84/79/8 
f 93/88/8 94/89/8 95/90/8 
f 95/90/8 96/91/8 93/88/8 
f 90/85/7 97/92/8 98/93/8 
f 98/93/8 87/82/7 90/85/7 
f 99/94/7 100/95/7 86/81/7 
f 86/81/7 85/80/7 99/94/7 
f 85/80/7 92/87/7 101/96/7 
f 101/96/7 99/94/7 85/80/7 
f 96/91/8 95/90/8 102/97/8 
f 102/97/8 103/98/8 96/91/8 
f 104/99/7 105/100/7 89/84/7 
f 89/84/7 88/83/7 104/99/7 
f 106/101/7 107/102/7 100/95/7 
f 100/95/7 99/94/7 106/101/7 
f 108/103/7 106/101/7 109/104/7 
f 109/104/7 50/46/7 108/103/7 
f 93/88/8 96/91/8 92/87/7 
f 92/87/7 91/86/8 93/88/8 
f 96/91/8 103/98/8 101/96/7 
f 101/96/7 92/87/7 96/91/8 
f 89/84/7 105/100/7 110/105/7 
f 110/105/7 102/97/8 89/84/7 
f 97/92/8 90/85/7 95/90/8 
f 95/90/8 94/89/8 97/92/8 
f 90/85/7 89/84/7 102/97/8 
f 102/97/8 95/90/8 90/85/7 
f 52/48/8 111/106/8 112/107/8 
f 112/107/8 51/47/8 52/48/8 
f 52/48/8 53/49/7 113/108/7 
f 113/108/7 111/106/8 52/48/8 
f 108/103/7 114/109/7 107/102/7 
f 107/102/7 106/101/7 108/103/7 
f 99/94/7 101/96/7 109/104/7 
f 109/104/7 106/101/7 99/94/7 
f 53/49/7 59/55/7 47/43/7 
f 47/43/7 113/108/7 53/49/7 
f 103/98/8 102/97/8 115/110/8 
f 115/110/8 112/107/8 103/98/8 
f 81/76/7 80/75/7 105/100/7 
f 105/100/7 104/99/7 81/76/7 
f 80/75/7 63/59/7 110/105/7 
f 110/105/7 105/100/7 80/75/7 
f 63/59/7 62/58/7 116/111/7 
f 116/111/7 110/105/7 63/59/7 
f 110/105/7 116/111/7 115/110/8 
f 115/110/8 102/97/8 110/105/7 
s 2
f 84/79/74 117/112/75 118/113/76 
f 118/113/76 91/86/77 84/79/74 
f 83/78/78 119/114/78 117/112/75 
f 117/112/75 84/79/74 83/78/78 
f 93/88/79 120/115/79 121/116/79 
f 121/116/79 94/89/79 93/88/79 
s 4
f 98/93/80 122/117/80 123/118/81 
f 123/118/81 87/82/81 98/93/80 
f 87/82/81 123/118/81 124/119/18 
f 124/119/18 88/83/18 87/82/81 
f 125/120/70 126/121/70 127/122/70 
f 127/122/70 114/109/70 125/120/70 
f 114/109/70 127/122/70 128/123/70 
f 128/123/70 107/102/70 114/109/70 
s 2
f 97/92/82 129/124/82 122/117/83 
f 122/117/83 98/93/83 97/92/82 
s 4
f 86/81/19 130/125/19 119/114/84 
f 119/114/84 83/78/84 86/81/19 
f 88/83/18 124/119/18 131/126/18 
f 131/126/18 104/99/18 88/83/18 
f 100/95/70 132/127/70 130/125/19 
f 130/125/19 86/81/19 100/95/70 
s 2
f 91/86/77 118/113/76 120/115/79 
f 120/115/79 93/88/79 91/86/77 
f 94/89/79 121/116/79 129/124/82 
f 129/124/82 97/92/82 94/89/79 
s 4
f 107/102/70 128/123/70 132/127/70 
f 132/127/70 100/95/70 107/102/70 
f 104/99/18 131/126/18 133/128/18 
f 133/128/18 81/76/18 104/99/18 
s 2
f 134/129/18 135/130/18 136/131/18 
f 136/131/18 137/132/18 134/129/18 
s 1
f 138/133/70 139/134/70 140/135/70 
f 140/135/70 141/136/70 138/133/70 
f 142/137/7 143/137/7 144/138/7 
f 144/138/7 145/138/7 142/137/7 
s 2
f 146/139/85 147/140/85 148/141/85 
f 148/141/85 149/142/86 146/139/85 
s 8
f 147/140/87 150/143/88 151/144/88 
f 151/144/88 148/141/87 147/140/87 
f 152/145/89 134/129/89 137/132/89 
f 137/132/89 153/146/89 152/145/89 
s 4
f 135/130/90 154/147/90 155/148/63 
f 155/148/63 136/131/63 135/130/90 
f 156/149/54 157/150/54 158/151/54 
f 158/151/54 159/152/54 156/149/54 
s 1
f 160/153/7 161/154/8 162/155/7 
f 162/155/7 163/156/7 160/153/7 
f 164/157/7 165/158/7 166/159/7 
f 166/159/7 167/160/7 164/157/7 
f 168/161/7 169/162/7 170/163/7 
f 170/163/7 171/164/7 168/161/7 
f 165/158/7 172/165/7 173/166/7 
f 173/166/7 166/159/7 165/158/7 
s 4
f 174/167/18 175/168/18 176/169/18 
f 176/169/18 177/170/18 174/167/18 
s 1
f 178/171/91 179/172/91 180/173/91 
f 180/173/91 181/174/91 178/171/91 
s 2
f 179/172/15 182/175/92 183/176/92 
f 183/176/92 180/173/15 179/172/15 
f 178/171/93 181/174/93 184/177/93 
f 184/177/93 185/178/93 178/171/93 
s 1
f 185/178/20 184/177/20 186/179/19 
f 186/179/19 187/180/19 185/178/20 
f 188/181/7 189/182/8 190/182/8 
f 190/182/8 191/181/7 188/181/7 
f 189/182/8 192/183/8 193/184/8 
f 193/184/8 190/182/8 189/182/8 
f 193/184/8 192/183/8 194/185/7 
f 194/185/7 195/186/7 193/184/8 
f 196/187/7 197/188/7 198/189/7 
f 198/189/7 199/187/7 196/187/7 
f 197/188/7 188/181/7 191/181/7 
f 191/181/7 198/189/7 197/188/7 
f 200/190/94 201/191/95 202/192/94 
f 202/192/94 203/174/96 200/190/94 
s 2
f 203/174/97 202/192/98 204/193/97 
f 204/193/97 205/194/99 203/174/97 
s 1
f 205/194/2 204/193/2 206/195/100 
f 206/195/100 207/196/101 205/194/2 
f 208/197/102 207/196/101 206/195/100 
f 206/195/100 209/198/102 208/197/102 
s 2
f 210/199/6 211/200/103 201/191/5 
f 201/191/5 200/190/5 210/199/6 
s 4
f 202/192/104 201/191/105 211/200/106 
f 211/200/106 212/201/107 202/192/104 
f 204/193/108 202/192/104 212/201/107 
f 212/201/107 206/195/109 204/193/108 
s 8
f 206/195/110 212/201/111 213/202/112 
f 213/202/112 209/198/113 206/195/110 
s 4
f 179/172/114 178/171/115 214/203/116 
f 214/203/116 215/204/114 179/172/114 
s 8
f 182/175/117 179/172/118 215/204/118 
f 215/204/118 216/205/119 182/175/117 
s 4
f 189/182/120 188/181/121 181/174/121 
f 181/174/121 180/173/122 189/182/120 
f 192/183/61 189/182/120 180/173/122 
f 180/173/122 183/176/62 192/183/61 
s 8
f 178/171/123 185/178/124 217/206/125 
f 217/206/125 214/203/126 178/171/123 
f 188/181/124 197/188/127 184/177/127 
f 184/177/127 181/174/124 188/181/124 
s 4
f 185/178/128 187/180/129 218/207/130 
f 218/207/130 217/206/128 185/178/128 
f 197/188/131 196/187/59 186/179/60 
f 186/179/60 184/177/131 197/188/131 
f 196/187/59 219/208/54 220/209/54 
f 220/209/54 186/179/60 196/187/59 
f 187/180/129 221/210/55 222/211/55 
f 222/211/55 218/207/130 187/180/129 
f 200/190/132 203/174/133 191/181/133 
f 191/181/133 190/182/134 200/190/132 
f 210/199/53 200/190/132 190/182/134 
f 190/182/134 193/184/52 210/199/53 
s 8
f 207/196/41 208/197/63 223/208/63 
f 223/208/63 199/187/42 207/196/41 
f 205/194/135 207/196/41 199/187/42 
f 199/187/42 198/189/136 205/194/135 
f 203/174/137 205/194/135 198/189/136 
f 198/189/136 191/181/138 203/174/137 
s 1
f 224/212/7 225/213/7 226/214/7 
f 226/214/7 227/215/7 224/212/7 
f 228/216/7 229/217/7 215/204/7 
f 215/204/7 214/203/7 228/216/7 
f 215/204/7 229/217/7 230/218/7 
f 230/218/7 216/205/7 215/204/7 
f 217/206/7 231/219/7 228/216/7 
f 228/216/7 214/203/7 217/206/7 
f 232/220/7 231/219/7 217/206/7 
f 217/206/7 218/207/7 232/220/7 
f 233/221/7 234/222/7 235/223/7 
f 235/223/7 236/224/7 233/221/7 
f 216/205/7 230/218/7 234/222/7 
f 234/222/7 233/221/7 216/205/7 
f 237/225/7 238/226/7 239/227/7 
f 239/227/7 240/228/7 237/225/7 
f 241/229/7 195/186/7 194/185/7 
f 194/185/7 242/230/7 241/229/7 
f 243/231/18 208/197/102 209/198/102 
f 209/198/102 244/232/18 243/231/18 
s 8
f 209/198/113 213/202/112 245/233/69 
f 245/233/69 244/232/68 209/198/113 
s 4
f 246/234/54 220/209/54 219/208/54 
f 219/208/54 247/235/54 246/234/54 
f 248/236/55 222/211/55 221/210/55 
f 221/210/55 249/237/55 248/236/55 
s 8
f 250/235/63 223/208/63 208/197/63 
f 208/197/63 243/231/63 250/235/63 
s 2
f 182/175/92 251/238/102 252/239/102 
f 252/239/102 183/176/92 182/175/92 
s 1
f 186/179/19 220/209/70 221/210/70 
f 221/210/70 187/180/19 186/179/19 
f 199/187/7 223/208/7 219/208/7 
f 219/208/7 196/187/7 199/187/7 
s 2
f 210/199/6 253/240/139 254/241/139 
f 254/241/139 211/200/103 210/199/6 
s 8
f 211/200/140 254/241/141 213/202/112 
f 213/202/112 212/201/111 211/200/140 
f 233/221/73 251/238/73 182/175/117 
f 182/175/117 216/205/119 233/221/73 
s 4
f 252/239/63 194/185/63 192/183/61 
f 192/183/61 183/176/62 252/239/63 
f 195/186/54 253/240/54 210/199/53 
f 210/199/53 193/184/52 195/186/54 
s 1
f 255/242/7 256/243/7 257/244/7 
f 257/244/7 258/245/7 255/242/7 
f 218/207/7 222/211/7 240/228/7 
f 240/228/7 232/220/7 218/207/7 
f 259/246/7 260/247/7 261/248/7 
f 261/248/7 262/249/7 259/246/7 
f 263/250/7 264/251/7 265/252/7 
f 265/252/7 266/253/7 263/250/7 
f 262/249/7 261/248/7 267/254/7 
f 267/254/7 268/255/7 262/249/7 
f 269/256/7 270/257/7 271/258/7 
f 271/258/7 272/259/7 269/256/7 
f 264/251/7 263/250/7 273/260/7 
f 273/260/7 274/261/7 264/251/7 
f 275/262/7 261/248/7 260/247/7 
f 260/247/7 276/263/7 275/262/7 
f 261/248/7 275/262/7 277/264/7 
f 277/264/7 267/254/7 261/248/7 
f 270/257/7 278/265/7 279/266/7 
f 279/266/7 271/258/7 270/257/7 
f 280/267/7 266/253/7 265/252/7 
f 265/252/7 281/268/7 280/267/7 
f 282/269/7 275/262/7 276/263/7 
f 276/263/7 283/270/7 282/269/7 
f 284/271/7 227/215/7 285/272/7 
f 285/272/7 282/269/7 284/271/7 
f 269/256/7 268/255/7 267/254/7 
f 267/254/7 270/257/7 269/256/7 
f 270/257/7 267/254/7 277/264/7 
f 277/264/7 278/265/7 270/257/7 
f 265/252/7 279/266/7 286/273/7 
f 286/273/7 281/268/7 265/252/7 
f 274/261/7 272/259/7 271/258/7 
f 271/258/7 264/251/7 274/261/7 
f 264/251/7 271/258/7 279/266/7 
f 279/266/7 265/252/7 264/251/7 
f 287/274/7 288/275/7 229/217/7 
f 229/217/7 228/216/7 287/274/7 
f 229/217/7 288/275/7 289/276/7 
f 289/276/7 230/218/7 229/217/7 
f 284/271/7 282/269/7 283/270/7 
f 283/270/7 290/277/7 284/271/7 
f 275/262/7 282/269/7 285/272/7 
f 285/272/7 277/264/7 275/262/7 
f 230/218/7 289/276/7 226/214/7 
f 226/214/7 234/222/7 230/218/7 
f 278/265/7 287/274/7 291/278/7 
f 291/278/7 279/266/7 278/265/7 
f 256/243/7 280/267/7 281/268/7 
f 281/268/7 257/244/7 256/243/7 
f 257/244/7 281/268/7 286/273/7 
f 286/273/7 292/279/7 257/244/7 
f 293/280/7 239/227/7 292/279/7 
f 292/279/7 286/273/7 293/280/7 
f 291/278/7 293/280/7 286/273/7 
f 286/273/7 279/266/7 291/278/7 
s 2
f 294/281/142 295/282/143 262/249/143 
f 262/249/143 268/255/142 294/281/142 
f 295/282/143 296/283/144 259/246/144 
f 259/246/144 262/249/143 295/282/143 
f 297/284/145 298/285/145 269/256/145 
f 269/256/145 272/259/145 297/284/145 
s 4
f 299/286/146 300/287/147 273/260/147 
f 273/260/147 263/250/146 299/286/146 
f 301/288/18 299/286/146 263/250/146 
f 263/250/146 266/253/18 301/288/18 
f 302/289/70 303/290/70 304/291/70 
f 304/291/70 290/277/70 302/289/70 
f 305/292/70 302/289/70 290/277/70 
f 290/277/70 283/270/70 305/292/70 
s 2
f 300/287/148 306/293/149 274/261/149 
f 274/261/149 273/260/148 300/287/148 
s 4
f 296/283/150 307/294/6 260/247/6 
f 260/247/6 259/246/150 296/283/150 
f 308/295/18 301/288/18 266/253/18 
f 266/253/18 280/267/18 308/295/18 
f 307/294/6 309/296/70 276/263/70 
f 276/263/70 260/247/6 307/294/6 
s 2
f 298/285/145 294/281/142 268/255/142 
f 268/255/142 269/256/145 298/285/145 
f 306/293/149 297/284/145 272/259/145 
f 272/259/145 274/261/149 306/293/149 
s 4
f 309/296/70 305/292/70 283/270/70 
f 283/270/70 276/263/70 309/296/70 
f 310/297/18 308/295/18 280/267/18 
f 280/267/18 256/243/18 310/297/18 
s 2
f 251/238/102 311/298/102 312/299/102 
f 312/299/102 252/239/102 251/238/102 
s 1
f 220/209/70 246/234/70 249/237/70 
f 249/237/70 221/210/70 220/209/70 
f 223/208/7 250/235/7 247/235/7 
f 247/235/7 219/208/7 223/208/7 
s 2
f 253/240/139 313/300/70 314/301/139 
f 314/301/139 254/241/139 253/240/139 
s 8
f 254/241/141 314/301/151 245/233/69 
f 245/233/69 213/202/112 254/241/141 
f 233/221/73 236/224/73 311/298/73 
f 311/298/73 251/238/73 233/221/73 
s 4
f 252/239/63 312/299/63 242/230/63 
f 242/230/63 194/185/63 252/239/63 
f 195/186/54 241/229/54 313/300/54 
f 313/300/54 253/240/54 195/186/54 
s 1
f 222/211/7 248/236/7 237/225/7 
f 237/225/7 240/228/7 222/211/7 
f 290/277/7 304/291/7 315/302/7 
f 315/302/7 284/271/7 290/277/7 
f 292/279/7 316/303/7 258/245/7 
f 258/245/7 257/244/7 292/279/7 
f 284/271/7 315/302/7 224/212/7 
f 224/212/7 227/215/7 284/271/7 
s 4
f 317/304/18 310/297/18 256/243/18 
f 256/243/18 255/242/18 317/304/18 
s 1
f 318/305/152 319/306/152 320/307/153 
f 320/307/153 321/308/153 318/305/152 
f 322/309/154 323/310/154 319/306/152 
f 319/306/152 318/305/152 322/309/154 
f 324/311/155 325/312/155 326/313/155 
f 326/313/155 327/314/155 324/311/155 
f 328/315/156 329/316/156 330/317/157 
f 330/317/157 331/318/157 328/315/156 
f 331/318/157 330/317/157 332/319/158 
f 332/319/158 333/320/158 331/318/157 
f 334/321/158 335/322/158 336/323/158 
f 336/323/158 337/324/158 334/321/158 
f 338/325/159 339/326/159 340/327/159 
f 340/327/159 341/328/159 338/325/159 
f 342/329/160 343/330/160 329/316/156 
f 329/316/156 328/315/156 342/329/160 
f 344/331/161 345/332/161 323/310/154 
f 323/310/154 322/309/154 344/331/161 
f 333/320/158 332/319/158 346/333/158 
f 346/333/158 347/334/158 333/320/158 
f 348/335/159 349/336/159 345/332/161 
f 345/332/161 344/331/161 348/335/159 
f 321/308/153 320/307/153 325/312/155 
f 325/312/155 324/311/155 321/308/153 
f 327/314/155 326/313/155 343/330/160 
f 343/330/160 342/329/160 327/314/155 
f 341/328/159 340/327/159 349/336/159 
f 349/336/159 348/335/159 341/328/159 
f 347/334/158 346/333/158 334/321/158 
f 334/321/158 337/324/158 347/334/158 
f 350/337/159 351/338/159 352/339/159 
f 352/339/159 353/340/159 350/337/159 
f 354/341/162 355/342/162 356/343/163 
f 356/343/163 357/344/163 354/341/162 
f 357/344/163 356/343/163 358/345/164 
f 358/345/164 359/346/164 357/344/163 
f 360/347/165 361/348/165 362/349/165 
f 362/349/165 363/350/165 360/347/165 
f 364/351/166 365/352/166 366/353/167 
f 366/353/167 367/354/167 364/351/166 
f 368/355/158 369/356/158 365/352/166 
f 365/352/166 364/351/166 368/355/158 
f 370/357/159 371/358/159 372/359/159 
f 372/359/159 373/360/159 370/357/159 
f 374/361/159 375/362/159 371/358/159 
f 371/358/159 370/357/159 374/361/159 
f 367/354/167 366/353/167 376/363/168 
f 376/363/168 377/364/168 367/354/167 
f 359/346/164 358/345/164 378/365/169 
f 378/365/169 379/366/169 359/346/164 
f 380/367/158 381/368/158 369/356/158 
f 369/356/158 368/355/158 380/367/158 
f 379/366/169 378/365/169 382/369/159 
f 382/369/159 383/370/159 379/366/169 
f 363/350/165 362/349/165 355/342/162 
f 355/342/162 354/341/162 363/350/165 
f 377/364/168 376/363/168 361/348/165 
f 361/348/165 360/347/165 377/364/168 
f 383/370/159 382/369/159 375/362/159 
f 375/362/159 374/361/159 383/370/159 
f 384/371/158 385/372/158 381/368/158 
f 381/368/158 380/367/158 384/371/158 
f 386/373/158 387/374/158 385/372/158 
f 385/372/158 384/371/158 386/373/158 
s 2
f 318/305/75 321/308/77 118/113/76 
f 118/113/76 117/112/75 318/305/75 
f 322/309/170 318/305/75 117/112/75 
f 117/112/75 119/114/78 322/309/170 
f 324/311/79 327/314/79 121/116/79 
f 121/116/79 120/115/79 324/311/79 
s 4
f 328/315/80 331/318/81 123/118/81 
f 123/118/81 122/117/80 328/315/80 
f 331/318/81 333/320/18 124/119/18 
f 124/119/18 123/118/81 331/318/81 
f 353/340/70 352/339/70 388/375/70 
f 388/375/70 389/376/70 353/340/70 
f 338/325/70 341/328/70 128/123/70 
f 128/123/70 127/122/70 338/325/70 
s 2
f 342/329/82 328/315/83 122/117/83 
f 122/117/83 129/124/82 342/329/82 
s 4
f 344/331/19 322/309/84 119/114/84 
f 119/114/84 130/125/19 344/331/19 
f 333/320/18 347/334/18 131/126/18 
f 131/126/18 124/119/18 333/320/18 
f 348/335/70 344/331/19 130/125/19 
f 130/125/19 132/127/70 348/335/70 
s 2
f 321/308/77 324/311/79 120/115/79 
f 120/115/79 118/113/76 321/308/77 
f 327/314/79 342/329/82 129/124/82 
f 129/124/82 121/116/79 327/314/79 
s 4
f 341/328/70 348/335/70 132/127/70 
f 132/127/70 128/123/70 341/328/70 
f 347/334/18 337/324/18 133/128/18 
f 133/128/18 131/126/18 347/334/18 
f 337/324/18 336/323/18 390/377/18 
f 390/377/18 133/128/18 337/324/18 
s 2
f 354/341/142 357/344/143 295/282/143 
f 295/282/143 294/281/142 354/341/142 
f 357/344/143 359/346/144 296/283/144 
f 296/283/144 295/282/143 357/344/143 
f 360/347/145 363/350/145 298/285/145 
f 298/285/145 297/284/145 360/347/145 
s 4
f 364/351/146 367/354/147 300/287/147 
f 300/287/147 299/286/146 364/351/146 
f 368/355/18 364/351/146 299/286/146 
f 299/286/146 301/288/18 368/355/18 
f 370/357/70 373/360/70 303/290/70 
f 303/290/70 302/289/70 370/357/70 
f 374/361/70 370/357/70 302/289/70 
f 302/289/70 305/292/70 374/361/70 
s 2
f 367/354/148 377/364/149 306/293/149 
f 306/293/149 300/287/148 367/354/148 
s 4
f 359/346/150 379/366/6 307/294/6 
f 307/294/6 296/283/150 359/346/150 
f 380/367/18 368/355/18 301/288/18 
f 301/288/18 308/295/18 380/367/18 
f 379/366/6 383/370/70 309/296/70 
f 309/296/70 307/294/6 379/366/6 
s 2
f 363/350/145 354/341/142 294/281/142 
f 294/281/142 298/285/145 363/350/145 
f 377/364/149 360/347/145 297/284/145 
f 297/284/145 306/293/149 377/364/149 
s 4
f 383/370/70 374/361/70 305/292/70 
f 305/292/70 309/296/70 383/370/70 
f 384/371/18 380/367/18 308/295/18 
f 308/295/18 310/297/18 384/371/18 
f 386/373/18 384/371/18 310/297/18 
f 310/297/18 317/304/18 386/373/18 
s 2
f 320/307/171 319/306/171 391/378/171 
f 391/378/171 392/379/171 320/307/171 
f 319/306/171 323/310/171 393/380/171 
f 393/380/171 391/378/171 319/306/171 
f 323/310/171 345/332/171 394/381/171 
f 394/381/171 393/380/171 323/310/171 
f 345/332/171 349/336/171 395/382/171 
f 395/382/171 394/381/171 345/332/171 
f 349/336/171 340/327/171 396/383/171 
f 396/383/171 395/382/171 349/336/171 
f 340/327/171 339/326/171 397/384/171 
f 397/384/171 396/383/171 340/327/171 
f 398/385/171 399/386/171 397/384/171 
f 397/384/171 339/326/171 398/385/171 
f 372/359/171 371/358/171 400/387/171 
f 400/387/171 401/388/171 372/359/171 
f 371/358/171 375/362/171 402/389/171 
f 402/389/171 400/387/171 371/358/171 
f 375/362/171 382/369/171 403/390/171 
f 403/390/171 402/389/171 375/362/171 
f 382/369/171 378/365/171 404/391/171 
f 404/391/171 403/390/171 382/369/171 
f 378/365/171 358/345/171 405/392/171 
f 405/392/171 404/391/171 378/365/171 
f 358/345/171 356/343/171 406/393/171 
f 406/393/171 405/392/171 358/345/171 
f 356/343/171 355/342/171 407/394/171 
f 407/394/171 406/393/171 356/343/171 
f 355/342/171 362/349/171 408/395/172 
f 408/395/172 407/394/171 355/342/171 
f 362/349/171 361/348/171 409/396/172 
f 409/396/172 408/395/172 362/349/171 
f 361/348/171 376/363/171 410/397/171 
f 410/397/171 409/396/172 361/348/171 
f 376/363/171 366/353/171 411/397/171 
f 411/397/171 410/397/171 376/363/171 
f 366/353/171 365/352/171 412/398/171 
f 412/398/171 411/397/171 366/353/171 
f 365/352/171 369/356/171 413/399/171 
f 413/399/171 412/398/171 365/352/171 
f 369/356/171 381/368/171 414/400/171 
f 414/400/171 413/399/171 369/356/171 
f 381/368/171 385/372/171 415/401/171 
f 415/401/171 414/400/171 381/368/171 
f 385/372/171 387/374/171 416/402/171 
f 416/402/171 415/401/171 385/372/171 
f 417/403/171 418/404/171 419/405/171 
f 419/405/171 420/406/171 417/403/171 
f 334/321/171 346/333/171 421/407/171 
f 421/407/171 422/408/171 334/321/171 
f 346/333/171 332/319/171 423/409/171 
f 423/409/171 421/407/171 346/333/171 
f 332/319/171 330/317/171 424/410/171 
f 424/410/171 423/409/171 332/319/171 
f 330/317/171 329/316/171 425/411/171 
f 425/411/171 424/410/171 330/317/171 
f 329/316/171 343/330/171 426/411/172 
f 426/411/172 425/411/171 329/316/171 
f 343/330/171 326/313/171 427/412/171 
f 427/412/171 426/411/172 343/330/171 
f 326/313/171 325/312/171 428/413/171 
f 428/413/171 427/412/171 326/313/171 
f 325/312/171 320/307/171 392/379/171 
f 392/379/171 428/413/171 325/312/171 
f 396/383/171 429/414/171 430/415/171 
f 430/415/171 395/382/171 396/383/171 
f 431/416/171 432/417/171 433/418/171 
f 433/418/171 434/419/171 431/416/171 
f 404/391/171 405/392/171 406/393/171 
f 404/391/171 406/393/171 407/394/171 
f 404/391/171 407/394/171 435/420/171 
f 403/390/171 404/391/171 435/420/171 
f 409/396/172 436/421/171 437/422/172 
f 437/422/172 408/395/172 409/396/172 
f 410/397/171 411/397/171 412/398/171 
f 412/398/171 413/399/171 436/421/171 
f 410/397/171 412/398/171 436/421/171 
f 409/396/172 410/397/171 436/421/171 
f 423/409/171 432/417/171 431/416/171 
f 431/416/171 421/407/171 423/409/171 
f 424/410/171 425/411/171 426/411/172 
f 424/410/171 426/411/172 427/412/171 
f 424/410/171 427/412/171 432/417/171 
f 423/409/171 424/410/171 432/417/171 
f 427/412/171 428/413/171 433/418/171 
f 433/418/171 432/417/171 427/412/171 
f 392/379/171 391/378/171 393/380/171 
f 393/380/171 394/381/171 395/382/171 
f 392/379/171 393/380/171 395/382/171 
f 430/415/171 392/379/171 395/382/171 
f 400/387/171 438/423/171 439/424/171 
f 439/424/171 401/388/171 400/387/171 
f 440/425/171 441/426/171 442/427/171 
f 442/427/171 443/428/171 440/425/171 
f 440/425/171 415/401/171 416/402/171 
f 416/402/171 441/426/171 440/425/171 
f 421/407/171 431/416/171 444/429/171 
f 444/429/171 422/408/171 421/407/171 
f 431/416/171 434/419/171 445/430/171 
f 445/430/171 444/429/171 431/416/171 
f 429/414/171 396/383/171 397/384/171 
f 397/384/171 446/431/171 429/414/171 
f 418/404/171 447/432/171 448/433/171 
f 448/433/171 419/405/171 418/404/171 
f 447/432/171 449/434/171 450/435/171 
f 450/435/171 448/433/171 447/432/171 
f 451/436/171 452/437/171 453/438/171 
f 453/438/171 454/439/171 451/436/171 
f 403/390/171 435/420/171 455/440/171 
f 455/440/171 402/389/171 403/390/171 
f 436/421/171 456/441/171 457/442/171 
f 457/442/171 437/422/172 436/421/171 
f 436/421/171 413/399/171 414/400/171 
f 414/400/171 456/441/171 436/421/171 
f 415/401/171 440/425/171 456/441/171 
f 456/441/171 414/400/171 415/401/171 
f 440/425/171 443/428/171 457/442/171 
f 457/442/171 456/441/171 440/425/171 
f 438/423/171 400/387/171 402/389/171 
f 402/389/171 455/440/171 438/423/171 
f 392/379/171 430/415/171 433/418/171 
f 433/418/171 428/413/171 392/379/171 
f 430/415/171 429/414/171 434/419/171 
f 434/419/171 433/418/171 430/415/171 
f 429/414/171 446/431/171 445/430/171 
f 445/430/171 434/419/171 429/414/171 
f 446/431/171 458/443/171 459/444/171 
f 459/444/171 445/430/171 446/431/171 
f 439/424/171 438/423/171 443/428/171 
f 443/428/171 442/427/171 439/424/171 
f 438/423/171 455/440/171 457/442/171 
f 457/442/171 443/428/171 438/423/171 
f 455/440/171 435/420/171 437/422/172 
f 437/422/172 457/442/171 455/440/171 
f 435/420/171 407/394/171 408/395/172 
f 408/395/172 437/422/172 435/420/171 
s 1
f 460/445/7 461/446/7 462/446/7 
f 462/446/7 463/445/7 460/445/7 
s 2
f 464/447/70 465/151/70 158/151/70 
f 158/151/70 466/447/70 464/447/70 
s 8
f 467/448/69 464/447/151 466/447/151 
f 466/447/151 468/448/69 467/448/69 
s 4
f 465/151/54 469/152/54 159/152/54 
f 159/152/54 158/151/54 465/151/54 
s 1
f 470/155/7 471/156/7 163/156/7 
f 163/156/7 162/155/7 470/155/7 
f 472/146/7 460/445/7 463/445/7 
f 463/445/7 153/146/7 472/146/7 
f 473/164/7 474/449/7 475/449/7 
f 475/449/7 171/164/7 473/164/7 
f 476/450/18 477/451/18 478/451/18 
f 478/451/18 479/450/18 476/450/18 
s 8
f 477/451/68 467/448/69 468/448/69 
f 468/448/69 478/451/68 477/451/68 
s 4
f 480/136/54 481/138/54 144/138/54 
f 144/138/54 141/136/54 480/136/54 
f 471/156/55 482/135/55 140/135/55 
f 140/135/55 163/156/55 471/156/55 
s 1
f 483/170/7 484/163/7 170/163/7 
f 170/163/7 177/170/7 483/170/7 
f 485/159/7 486/160/7 167/160/7 
f 167/160/7 166/159/7 485/159/7 
f 484/163/7 473/164/7 171/164/7 
f 171/164/7 170/163/7 484/163/7 
f 487/166/7 485/159/7 166/159/7 
f 166/159/7 173/166/7 487/166/7 
s 4
f 486/160/70 488/376/70 389/376/70 
f 389/376/70 167/160/70 486/160/70 
f 489/452/18 490/169/18 176/169/18 
f 176/169/18 491/452/18 489/452/18 
s 1
f 492/148/7 469/152/7 241/229/7 
f 241/229/7 242/230/7 492/148/7 
s 8
f 476/450/63 493/138/63 250/235/63 
f 250/235/63 243/231/63 476/450/63 
s 2
f 494/132/18 495/131/18 312/299/102 
f 312/299/102 311/298/102 494/132/18 
s 1
f 480/136/70 482/135/70 249/237/70 
f 249/237/70 246/234/70 480/136/70 
f 493/138/7 481/138/7 247/235/7 
f 247/235/7 250/235/7 493/138/7 
s 8
f 472/146/73 494/132/73 311/298/73 
f 311/298/73 236/224/73 472/146/73 
s 4
f 495/131/63 492/148/63 242/230/63 
f 242/230/63 312/299/63 495/131/63 
s 1
f 496/337/159 497/340/159 373/360/159 
f 373/360/159 372/359/159 496/337/159 
f 489/452/158 498/406/158 387/374/158 
f 387/374/158 386/373/158 489/452/158 
s 4
f 488/376/70 497/340/70 353/340/70 
f 353/340/70 389/376/70 488/376/70 
f 490/169/18 483/170/18 177/170/18 
f 177/170/18 176/169/18 490/169/18 
s 2
f 496/337/171 499/438/171 453/438/171 
f 453/438/171 350/337/171 496/337/171 
f 498/406/171 500/405/171 416/402/171 
f 416/402/171 387/374/171 498/406/171 
f 500/405/171 501/433/171 441/426/171 
f 441/426/171 416/402/171 500/405/171 
f 501/433/171 502/435/171 442/427/171 
f 442/427/171 441/426/171 501/433/171 
f 503/439/171 499/438/171 401/388/171 
f 401/388/171 439/424/171 503/439/171 
f 502/435/171 503/439/171 439/424/171 
f 439/424/171 442/427/171 502/435/171 
s 1
f 463/445/7 462/446/7 504/453/7 
f 504/453/7 505/454/7 463/445/7 
f 153/146/7 463/445/7 505/454/7 
f 505/454/7 152/145/8 153/146/7 
f 171/164/7 475/449/7 506/455/7 
f 506/455/7 168/161/7 171/164/7 
f 159/152/7 155/148/7 154/147/7 
f 154/147/7 156/149/7 159/152/7 
f 507/456/173 508/457/173 509/458/173 
f 509/458/173 510/459/174 507/456/173 
s 8
f 508/457/175 151/144/88 150/143/88 
f 150/143/88 509/458/175 508/457/175 
s 4
f 141/136/54 144/138/54 143/137/54 
f 143/137/54 138/133/54 141/136/54 
f 163/156/55 140/135/55 139/134/55 
f 139/134/55 160/153/55 163/156/55 
s 8
f 145/138/90 479/450/63 511/460/90 
f 511/460/90 142/137/90 145/138/90 
s 1
f 177/170/7 170/163/7 169/162/7 
f 169/162/7 174/167/7 177/170/7 
s 4
f 167/160/70 389/376/70 388/375/70 
f 388/375/70 164/157/70 167/160/70 
s 2
f 512/461/18 513/462/18 135/130/18 
f 135/130/18 134/129/18 512/461/18 
s 1
f 69/65/70 72/68/70 139/134/70 
f 139/134/70 138/133/70 69/65/70 
f 73/66/7 70/66/7 143/137/7 
f 143/137/7 142/137/7 73/66/7 
s 2
f 514/463/70 515/464/70 516/465/70 
f 516/465/70 157/150/70 514/463/70 
s 8
f 515/464/151 68/64/69 517/466/69 
f 517/466/69 516/465/151 515/464/151 
f 152/145/89 57/53/73 512/461/73 
f 512/461/73 134/129/89 152/145/89 
s 4
f 135/130/90 513/462/63 65/61/63 
f 65/61/63 154/147/90 135/130/90 
f 156/149/54 64/60/54 514/463/54 
f 514/463/54 157/150/54 156/149/54 
s 1
f 71/67/7 518/467/7 161/154/8 
f 161/154/8 160/153/7 71/67/7 
f 125/120/7 519/468/7 165/158/7 
f 165/158/7 164/157/7 125/120/7 
f 60/56/7 79/74/7 169/162/7 
f 169/162/7 168/161/7 60/56/7 
f 519/468/7 49/45/7 172/165/7 
f 172/165/7 165/158/7 519/468/7 
s 4
f 78/73/18 390/377/18 175/168/18 
f 175/168/18 174/167/18 78/73/18 
s 1
f 420/406/158 491/452/158 520/469/158 
f 520/469/158 417/403/158 420/406/158 
f 398/385/159 521/470/159 352/339/159 
f 352/339/159 351/338/159 398/385/159 
s 4
f 521/470/70 126/121/70 388/375/70 
f 388/375/70 352/339/70 521/470/70 
f 491/452/18 176/169/18 175/168/18 
f 175/168/18 520/469/18 491/452/18 
s 2
f 350/337/171 453/438/171 452/437/171 
f 452/437/171 351/338/171 350/337/171 
f 335/322/171 522/471/171 418/404/171 
f 418/404/171 417/403/171 335/322/171 
f 522/471/171 523/472/171 447/432/171 
f 447/432/171 418/404/171 522/471/171 
f 523/472/171 459/444/171 449/434/171 
f 449/434/171 447/432/171 523/472/171 
f 458/443/171 399/386/171 452/437/171 
f 452/437/171 451/436/171 458/443/171 
f 454/439/171 450/435/171 449/434/171 
f 449/434/171 451/436/171 454/439/171 
s off
f 158/151/176 157/150/176 146/139/176 
f 146/139/176 149/142/176 158/151/176 
f 157/150/145 516/465/145 147/140/145 
f 147/140/145 146/139/145 157/150/145 
f 516/465/177 517/466/177 150/143/177 
f 150/143/177 147/140/177 516/465/177 
f 517/466/178 524/473/178 509/458/178 
f 509/458/179 150/143/179 517/466/179 
f 524/473/145 511/460/145 510/459/145 
f 510/459/145 509/458/145 524/473/145 
f 511/460/176 479/450/176 507/456/176 
f 507/456/176 510/459/176 511/460/176 
f 479/450/79 478/451/79 508/457/79 
f 508/457/79 507/456/79 479/450/79 
f 478/451/79 468/448/79 151/144/79 
f 151/144/79 508/457/79 478/451/79 
f 468/448/79 466/447/79 148/141/79 
f 148/141/79 151/144/79 468/448/79 
f 466/447/79 158/151/79 149/142/79 
f 149/142/79 148/141/79 466/447/79 
s 1
f 505/454/7 504/453/7 48/44/7 
f 48/44/7 58/54/7 505/454/7 
f 152/145/8 505/454/7 58/54/7 
f 58/54/7 57/53/7 152/145/8 
f 168/161/7 506/455/7 61/57/7 
f 61/57/7 60/56/7 168/161/7 
f 64/60/7 156/149/7 154/147/7 
f 154/147/7 65/61/7 64/60/7 
f 511/460/18 524/473/18 67/63/18 
f 67/63/18 66/62/18 511/460/18 
s 8
f 524/473/68 517/466/69 68/64/69 
f 68/64/69 67/63/68 524/473/68 
s 4
f 138/133/54 143/137/54 70/66/54 
f 70/66/54 69/65/54 138/133/54 
f 160/153/55 139/134/55 72/68/55 
f 72/68/55 71/67/55 160/153/55 
s 8
f 142/137/90 511/460/90 66/62/63 
f 66/62/63 73/66/63 142/137/90 
s 1
f 174/167/7 169/162/7 79/74/7 
f 79/74/7 78/73/7 174/167/7 
s 4
f 164/157/70 388/375/70 126/121/70 
f 126/121/70 125/120/70 164/157/70 
s 1
f 417/403/158 520/469/158 336/323/158 
f 336/323/158 335/322/158 417/403/158 
s 4
f 520/469/18 175/168/18 390/377/18 
f 390/377/18 336/323/18 520/469/18 
s 2
f 351/338/171 452/437/171 399/386/171 
f 399/386/171 398/385/171 351/338/171 
f 451/436/171 449/434/171 459/444/171 
f 459/444/171 458/443/171 451/436/171 
f 75/70/18 74/69/18 513/462/18 
f 513/462/18 512/461/18 75/70/18 
s 1
f 42/38/70 45/41/70 72/68/70 
f 72/68/70 69/65/70 42/38/70 
f 46/42/7 43/39/7 70/66/7 
f 70/66/7 73/66/7 46/42/7 
s 2
f 77/72/70 76/71/70 515/464/70 
f 515/464/70 514/463/70 77/72/70 
s 8
f 76/71/72 36/32/30 68/64/69 
f 68/64/69 515/464/151 76/71/72 
f 56/52/73 75/70/73 512/461/73 
f 512/461/73 57/53/73 56/52/73 
s 4
f 74/69/63 18/16/63 65/61/63 
f 65/61/63 513/462/63 74/69/63 
f 17/15/54 77/72/54 514/463/54 
f 514/463/54 64/60/54 17/15/54 
s 1
f 44/40/7 82/77/7 518/467/7 
f 518/467/7 71/67/7 44/40/7 
f 114/109/7 108/103/7 519/468/7 
f 519/468/7 125/120/7 114/109/7 
f 63/59/7 80/75/7 79/74/7 
f 79/74/7 60/56/7 63/59/7 
f 108/103/7 50/46/7 49/45/7 
f 49/45/7 519/468/7 108/103/7 
s 4
f 81/76/18 133/128/18 390/377/18 
f 390/377/18 78/73/18 81/76/18 
s 1
f 339/326/159 338/325/159 521/470/159 
f 521/470/159 398/385/159 339/326/159 
s 4
f 338/325/70 127/122/70 126/121/70 
f 126/121/70 521/470/70 338/325/70 
s 2
f 334/321/171 422/408/171 522/471/171 
f 522/471/171 335/322/171 334/321/171 
f 422/408/171 444/429/171 523/472/171 
f 523/472/171 522/471/171 422/408/171 
f 444/429/171 445/430/171 459/444/171 
f 459/444/171 523/472/171 444/429/171 
f 446/431/171 397/384/171 399/386/171 
f 399/386/171 458/443/171 446/431/171 
s 1
f 235/223/7 225/213/7 461/446/7 
f 461/446/7 460/445/7 235/223/7 
s 2
f 314/301/139 313/300/70 465/151/70 
f 465/151/70 464/447/70 314/301/139 
s 8
f 245/233/69 314/301/151 464/447/151 
f 464/447/151 467/448/69 245/233/69 
s 4
f 313/300/54 241/229/54 469/152/54 
f 469/152/54 465/151/54 313/300/54 
s 1
f 237/225/7 248/236/7 471/156/7 
f 471/156/7 470/155/7 237/225/7 
f 236/224/7 235/223/7 460/445/7 
f 460/445/7 472/146/7 236/224/7 
f 316/303/7 238/226/7 474/449/7 
f 474/449/7 473/164/7 316/303/7 
f 243/231/18 244/232/18 477/451/18 
f 477/451/18 476/450/18 243/231/18 
s 8
f 244/232/68 245/233/69 467/448/69 
f 467/448/69 477/451/68 244/232/68 
s 4
f 246/234/54 247/235/54 481/138/54 
f 481/138/54 480/136/54 246/234/54 
f 248/236/55 249/237/55 482/135/55 
f 482/135/55 471/156/55 248/236/55 
s 1
f 255/242/7 258/245/7 484/163/7 
f 484/163/7 483/170/7 255/242/7 
f 315/302/7 304/291/7 486/160/7 
f 486/160/7 485/159/7 315/302/7 
f 258/245/7 316/303/7 473/164/7 
f 473/164/7 484/163/7 258/245/7 
f 224/212/7 315/302/7 485/159/7 
f 485/159/7 487/166/7 224/212/7 
s 4
f 304/291/70 303/290/70 488/376/70 
f 488/376/70 486/160/70 304/291/70 
f 386/373/18 317/304/18 490/169/18 
f 490/169/18 489/452/18 386/373/18 
s 1
f 155/148/7 159/152/7 469/152/7 
f 469/152/7 492/148/7 155/148/7 
s 8
f 479/450/63 145/138/90 493/138/63 
f 493/138/63 476/450/63 479/450/63 
s 2
f 137/132/18 136/131/18 495/131/18 
f 495/131/18 494/132/18 137/132/18 
s 1
f 141/136/70 140/135/70 482/135/70 
f 482/135/70 480/136/70 141/136/70 
f 145/138/7 144/138/7 481/138/7 
f 481/138/7 493/138/7 145/138/7 
s 8
f 153/146/89 137/132/89 494/132/73 
f 494/132/73 472/146/73 153/146/89 
s 4
f 136/131/63 155/148/63 492/148/63 
f 492/148/63 495/131/63 136/131/63 
s 1
f 350/337/159 353/340/159 497/340/159 
f 497/340/159 496/337/159 350/337/159 
f 491/452/158 420/406/158 498/406/158 
f 498/406/158 489/452/158 491/452/158 
s 4
f 303/290/70 373/360/70 497/340/70 
f 497/340/70 488/376/70 303/290/70 
f 317/304/18 255/242/18 483/170/18 
f 483/170/18 490/169/18 317/304/18 
s 2
f 372/359/171 401/388/171 499/438/171 
f 499/438/171 496/337/171 372/359/171 
f 420/406/171 419/405/171 500/405/171 
f 500/405/171 498/406/171 420/406/171 
f 419/405/171 448/433/171 501/433/171 
f 501/433/171 500/405/171 419/405/171 
f 448/433/171 450/435/171 502/435/171 
f 502/435/171 501/433/171 448/433/171 
f 454/439/171 453/438/171 499/438/171 
f 499/438/171 503/439/171 454/439/171 
f 450/435/171 454/439/171 503/439/171 
f 503/439/171 502/435/171 450/435/171 
s 1
f 59/55/7 58/54/7 48/44/7 
f 48/44/7 47/43/7 59/55/7 
f 518/467/7 82/77/7 62/58/7 
f 62/58/7 61/57/7 518/467/7 
f 111/106/8 101/96/7 103/98/8 
f 103/98/8 112/107/8 111/106/8 
f 109/104/7 101/96/7 111/106/8 
f 111/106/8 113/108/7 109/104/7 
f 50/46/7 109/104/7 113/108/7 
f 113/108/7 47/43/7 50/46/7 
f 54/50/8 51/47/8 112/107/8 
f 112/107/8 115/110/8 54/50/8 
f 62/58/7 82/77/7 55/51/8 
f 55/51/8 116/111/7 62/58/7 
f 116/111/7 55/51/8 54/50/8 
f 54/50/8 115/110/8 116/111/7 
f 235/223/7 234/222/7 226/214/7 
f 226/214/7 225/213/7 235/223/7 
f 316/303/7 292/279/7 239/227/7 
f 239/227/7 238/226/7 316/303/7 
f 278/265/7 277/264/7 288/275/7 
f 288/275/7 287/274/7 278/265/7 
f 288/275/7 277/264/7 285/272/7 
f 285/272/7 289/276/7 288/275/7 
f 289/276/7 285/272/7 227/215/7 
f 227/215/7 226/214/7 289/276/7 
f 287/274/7 228/216/7 231/219/7 
f 231/219/7 291/278/7 287/274/7 
f 232/220/7 240/228/7 239/227/7 
f 239/227/7 293/280/7 232/220/7 
f 231/219/7 232/220/7 293/280/7 
f 293/280/7 291/278/7 231/219/7 
f 487/166/7 173/166/7 462/446/7 
f 462/446/7 461/446/7 487/166/7 
f 470/155/7 162/155/7 475/449/7 
f 475/449/7 474/449/7 470/155/7 
f 173/166/7 172/165/7 504/453/7 
f 504/453/7 462/446/7 173/166/7 
f 162/155/7 161/154/8 506/455/7 
f 506/455/7 475/449/7 162/155/7 
f 172/165/7 49/45/7 48/44/7 
f 48/44/7 504/453/7 172/165/7 
f 161/154/8 518/467/7 61/57/7 
f 61/57/7 506/455/7 161/154/8 
f 224/212/7 487/166/7 461/446/7 
f 461/446/7 225/213/7 224/212/7 
f 237/225/7 470/155/7 474/449/7 
f 474/449/7 238/226/7 237/225/7 
# 1044 faces

