# Blender 5.0.0
# www.blender.org
mtllib photo-frame-1.mtl
o Lifestyle_098
v 6.400634 4.037739 -0.514649
v -6.481202 4.037738 -0.514648
v -6.481201 -4.013962 0.189698
v 6.400635 -4.013961 0.189697
v 8.524659 -6.232961 0.330078
v -8.716796 -6.232962 0.330079
v -8.716798 6.247440 -0.761840
v 8.524657 6.247441 -0.761841
v 8.524659 -6.228261 0.383545
v -8.716796 -6.228262 0.383545
v -8.716798 6.252140 -0.708374
v 8.524657 6.252141 -0.708374
v 8.524658 -4.006361 0.189087
v 8.509033 5.878041 -0.753540
v 8.511230 5.927941 -0.207032
v -8.594482 5.902938 -0.204956
v -8.592285 5.852939 -0.751342
v 8.483887 -5.847461 0.272339
v 8.486084 -5.801761 0.819214
v -8.642822 -5.847462 0.272339
v -8.644775 -5.801762 0.819092
v 8.823485 6.238839 -0.233277
v -8.904542 6.212837 -0.231079
v 8.796876 -6.112060 0.847290
v -8.957519 -6.112061 0.847290
v 8.816649 6.230137 -0.255371
v -8.897950 6.204238 -0.253051
v 8.790284 -6.107360 0.824096
v -8.950927 -6.107361 0.824097
v 8.827880 6.239239 -0.278931
v -8.908937 6.213237 -0.276611
v 8.801270 -6.120361 0.802490
v -8.961913 -6.120362 0.802369
v 8.849853 6.259037 -0.303467
v -8.930665 6.232936 -0.301147
v 8.822999 -6.144062 0.781738
v -8.983886 -6.144063 0.781739
v 8.875243 6.282338 -0.328247
v -8.955812 6.256237 -0.326049
v 8.848390 -6.171361 0.761230
v -9.009521 -6.171362 0.761231
v 8.896972 6.302041 -0.352784
v -8.977784 6.275939 -0.350463
v 8.870118 -6.194961 0.740600
v -9.031249 -6.194962 0.740601
v 8.908202 6.311139 -0.376343
v -8.988770 6.285038 -0.374023
v 8.881104 -6.208061 0.718872
v -9.042480 -6.208062 0.718872
v 8.901366 6.302540 -0.398438
v -8.981935 6.276340 -0.396240
v 8.874513 -6.203361 0.695678
v -9.035888 -6.203362 0.695679
v 8.905272 6.303338 -0.433960
v -8.986085 6.277137 -0.431640
v 8.878419 -6.210361 0.660888
v -9.039550 -6.210362 0.660889
v 8.927489 6.323441 -0.458130
v -9.008058 6.297237 -0.455932
v 8.900392 -6.234361 0.640503
v -9.062011 -6.234362 0.640503
v 8.961181 6.355740 -0.475464
v -9.041261 6.329338 -0.473144
v 8.934083 -6.269062 0.629028
v -9.095458 -6.269063 0.629029
v 8.999511 6.392941 -0.489869
v -9.079591 6.366439 -0.487548
v 8.972169 -6.308061 0.621215
v -9.134032 -6.308062 0.621216
v 9.035644 6.427838 -0.505616
v -9.115479 6.401340 -0.503295
v 9.008302 -6.345161 0.611938
v -9.170409 -6.345162 0.611939
v 9.062987 6.453339 -0.526734
v -9.142579 6.426738 -0.524414
v 9.035401 -6.373960 0.595581
v -9.197509 -6.373961 0.595581
v 9.074462 6.462239 -0.557496
v -9.154054 6.435638 -0.555175
v 9.046876 -6.388061 0.566772
v -9.209228 -6.388062 0.566773
v 9.080321 6.465939 -0.584229
v -9.159913 6.439239 -0.581787
v 9.052979 -6.396261 0.541137
v -9.215331 -6.396262 0.541138
v 9.097411 6.481038 -0.607178
v -9.177003 6.454338 -0.604736
v 9.069825 -6.415161 0.521118
v -9.232177 -6.415162 0.521119
v 9.123290 6.505040 -0.627808
v -9.202638 6.478237 -0.625366
v 9.095460 -6.442361 0.505004
v -9.258300 -6.442362 0.505005
v 9.155028 6.535241 -0.647339
v -9.234132 6.508338 -0.645019
v 9.127198 -6.475360 0.490844
v -9.290038 -6.475361 0.490845
v 9.190429 6.568940 -0.667237
v -9.269288 6.541938 -0.664917
v 9.162354 -6.511961 0.477172
v -9.325438 -6.511961 0.477173
v 9.226562 6.603440 -0.688843
v -9.305421 6.576339 -0.686523
v 9.198487 -6.549661 0.461914
v -9.361815 -6.549662 0.461792
v 9.261474 6.636139 -0.713501
v -9.339845 6.608940 -0.711059
v 9.233155 -6.586061 0.443359
v -9.396483 -6.586062 0.443360
v 9.296386 6.670239 -0.724976
v -9.374513 6.643039 -0.722534
v 9.267823 -6.621662 0.437988
v -9.431640 -6.621663 0.437989
v 9.326903 6.699440 -0.740235
v -9.405030 6.672039 -0.737915
v 9.298097 -6.653060 0.427856
v -9.462157 -6.653061 0.427857
v 9.352050 6.723340 -0.758179
v -9.430177 6.695838 -0.755859
v 9.323487 -6.679561 0.414428
v -9.487548 -6.679563 0.414429
v 9.372069 6.741440 -0.777344
v -9.449708 6.713939 -0.775024
v 9.343263 -6.700761 0.398681
v -9.507323 -6.700763 0.398682
v 9.385741 6.753640 -0.796509
v -9.463380 6.726039 -0.794189
v 9.356935 -6.716060 0.381958
v -9.521239 -6.716062 0.381958
v 9.393065 6.759339 -0.814331
v -9.470704 6.731739 -0.812011
v 9.364259 -6.724761 0.365356
v -9.528563 -6.724763 0.365357
v 9.393310 6.758339 -0.829590
v -9.470948 6.730739 -0.827148
v 9.364259 -6.726360 0.350219
v -9.528808 -6.726361 0.350220
vn -0.0000 0.0872 0.9962
vn -0.0000 -0.0872 -0.9962
vn -0.0000 -0.9962 0.0876
vn -1.0000 -0.0000 -0.0010
vn -0.0000 0.9962 -0.0876
vn 1.0000 -0.0000 -0.0025
vn -0.0006 -0.0866 -0.9962
vn -0.0006 -0.0877 -0.9962
vn 0.0015 -0.9958 0.0910
vn -1.0000 0.0025 0.0045
vn -0.0000 0.9965 -0.0833
vn 1.0000 -0.0039 0.0039
vn -0.0015 0.0856 0.9963
vn 0.0016 0.0856 0.9963
vn -0.0015 0.0884 0.9961
vn 0.0016 0.0884 0.9961
vn -0.0014 0.9311 -0.3648
vn 0.9588 -0.0267 -0.2827
vn -0.0000 -0.9801 -0.1987
vn -0.9612 -0.0203 -0.2751
vn -0.0013 0.9327 0.3607
vn -0.0012 0.8417 0.5400
vn -0.0012 0.8421 0.5394
vn 0.8948 0.0363 0.4450
vn 0.7917 0.0518 0.6088
vn 0.7916 0.0518 0.6089
vn -0.0000 -0.8581 0.5135
vn -0.0000 -0.7347 0.6784
vn -0.0000 -0.7348 0.6783
vn -0.9033 0.0419 0.4269
vn -0.7924 0.0566 0.6074
vn -0.7921 0.0566 0.6077
vn -0.0010 0.7447 0.6674
vn -0.0010 0.7448 0.6673
vn 0.6817 0.0619 0.7290
vn 0.6816 0.0619 0.7291
vn -0.0000 -0.6188 0.7856
vn -0.0000 -0.6189 0.7855
vn -0.6835 0.0664 0.7269
vn -0.6835 0.0664 0.7270
vn -0.0010 0.7656 0.6433
vn -0.0010 0.7655 0.6434
vn 0.7053 0.0602 0.7063
vn 0.7054 0.0602 0.7062
vn -0.0000 -0.6410 0.7676
vn -0.0000 -0.6409 0.7676
vn -0.6984 0.0644 0.7128
vn -0.6985 0.0644 0.7127
vn -0.0012 0.8919 0.4523
vn 0.8460 0.0440 0.5314
vn 0.8461 0.0440 0.5312
vn -0.0000 -0.8004 0.5995
vn -0.0000 -0.8002 0.5997
vn -0.8480 0.0496 0.5276
vn -0.8484 0.0495 0.5271
vn -0.0013 0.9323 0.3616
vn 0.8936 0.0362 0.4474
vn -0.0000 -0.8572 0.5150
vn -0.8999 0.0422 0.4340
vn -0.0014 0.9316 -0.3635
vn -0.0015 0.9830 -0.1834
vn -0.0015 0.9831 -0.1829
vn 0.9574 -0.0267 -0.2874
vn 0.9947 -0.0106 -0.1023
vn 0.9947 -0.0106 -0.1022
vn -0.0000 -0.9800 -0.1992
vn -0.0000 -0.9999 -0.0107
vn -0.0000 -0.9999 -0.0103
vn -0.9594 -0.0205 -0.2812
vn -0.9951 -0.0042 -0.0990
vn -0.0015 0.9997 0.0225
vn 0.9944 0.0075 0.1053
vn -0.0000 -0.9804 0.1972
vn -0.9944 0.0139 0.1051
vn -0.0010 0.7689 0.6393
vn -0.0007 0.5672 0.8236
vn -0.0007 0.5680 0.8230
vn 0.7133 0.0599 0.6982
vn 0.4932 0.0743 0.8667
vn 0.4929 0.0743 0.8669
vn -0.0000 -0.6470 0.7625
vn -0.0000 -0.4178 0.9085
vn -0.0000 -0.4185 0.9082
vn -0.7127 0.0646 0.6985
vn -0.4961 0.0777 0.8648
vn -0.4958 0.0777 0.8649
vn 0.1577 0.2428 0.9572
vn -0.1589 0.2444 0.9566
vn 0.1582 -0.0739 0.9846
vn -0.1585 -0.0731 0.9846
vn 0.1622 0.2478 0.9551
vn -0.1622 0.2484 0.9550
vn 0.1622 -0.0762 0.9838
vn -0.1619 -0.0752 0.9839
vn 0.2735 0.3517 0.8953
vn -0.2732 0.3528 0.8949
vn 0.2741 -0.1911 0.9425
vn -0.2740 -0.1895 0.9429
vn -0.0008 0.6362 0.7715
vn 0.5716 0.0709 0.8175
vn -0.0000 -0.4948 0.8690
vn -0.5707 0.0741 0.8178
vn -0.0014 0.9607 0.2776
vn -0.0014 0.9810 0.1941
vn 0.9297 0.0291 0.3671
vn 0.9596 0.0222 0.2804
vn 0.9597 0.0221 0.2803
vn -0.0000 -0.8980 0.4399
vn -0.0000 -0.9331 0.3597
vn -0.0000 -0.9330 0.3599
vn -0.9317 0.0355 0.3615
vn -0.9591 0.0285 0.2817
vn -0.9591 0.0285 0.2816
vn -0.0013 0.9180 0.3966
vn 0.8789 0.0395 0.4754
vn 0.8787 0.0395 0.4757
vn -0.0000 -0.8348 0.5505
vn -0.8792 0.0451 0.4742
vn -0.8790 0.0452 0.4747
vn -0.0010 0.7148 0.6993
vn -0.0010 0.7150 0.6991
vn 0.6498 0.0647 0.7574
vn -0.0000 -0.5827 0.8127
vn -0.0000 -0.5829 0.8126
vn -0.6500 0.0690 0.7568
vn -0.6495 0.0690 0.7572
vn -0.0007 0.5747 0.8184
vn -0.0007 0.5749 0.8182
vn 0.5019 0.0742 0.8617
vn 0.5018 0.0742 0.8618
vn -0.0000 -0.4262 0.9046
vn -0.0000 -0.4264 0.9045
vn -0.5058 0.0778 0.8591
vn -0.5057 0.0778 0.8592
vn -0.0006 0.5203 0.8540
vn 0.4399 0.0770 0.8947
vn 0.4398 0.0770 0.8948
vn -0.0000 -0.3621 0.9321
vn -0.4416 0.0799 0.8936
vn -0.4416 0.0799 0.8937
vn -0.0007 0.5245 0.8514
vn 0.4489 0.0769 0.8903
vn -0.0000 -0.3702 0.9289
vn -0.0000 -0.3702 0.9290
vn -0.4476 0.0795 0.8907
vn -0.4477 0.0795 0.8906
vn -0.0007 0.5829 0.8126
vn -0.0007 0.5828 0.8126
vn 0.5137 0.0745 0.8547
vn 0.5138 0.0745 0.8547
vn -0.0000 -0.4315 0.9021
vn -0.5121 0.0774 0.8554
vn -0.5122 0.0774 0.8554
vn 0.1642 0.2459 0.9553
vn -0.1641 0.2473 0.9549
vn 0.1645 -0.0781 0.9833
vn -0.1635 -0.0773 0.9835
vn 0.1792 0.2634 0.9479
vn -0.1801 0.2650 0.9473
vn 0.1793 -0.0958 0.9791
vn -0.1806 -0.0945 0.9790
vn -0.0007 0.5639 0.8259
vn -0.0007 0.5638 0.8259
vn 0.4911 0.0747 0.8679
vn 0.4912 0.0746 0.8678
vn -0.0000 -0.4145 0.9100
vn -0.0000 -0.4144 0.9101
vn -0.4947 0.0784 0.8655
vn -0.4951 0.0784 0.8653
vn -0.0009 0.6948 0.7192
vn -0.0009 0.6946 0.7194
vn 0.6230 0.0664 0.7794
vn 0.6232 0.0664 0.7792
vn -0.0000 -0.5573 0.8303
vn -0.6285 0.0705 0.7746
vn -0.6286 0.0704 0.7745
vn -0.0011 0.8112 0.5848
vn -0.0011 0.8108 0.5853
vn 0.7625 0.0554 0.6446
vn -0.0000 -0.6971 0.7170
vn -0.0000 -0.6970 0.7171
vn -0.7549 0.0599 0.6531
vn -0.7550 0.0599 0.6529
vn -0.0013 0.9213 0.3887
vn -0.0013 0.9213 0.3888
vn 0.8845 0.0390 0.4649
vn 0.8846 0.0389 0.4647
vn -0.0000 -0.8408 0.5413
vn -0.0000 -0.8406 0.5417
vn -0.8793 0.0444 0.4742
vn -0.8795 0.0444 0.4739
vn -0.0014 0.9954 0.0956
vn 0.9852 0.0133 0.1711
vn 0.9852 0.0132 0.1706
vn -0.0000 -0.9645 0.2642
vn -0.0000 -0.9642 0.2651
vn -0.9855 0.0199 0.1685
vn -0.9855 0.0199 0.1686
vn -0.0015 0.9979 -0.0652
vn 1.0000 -0.0014 -0.0028
vn -0.0000 -0.9945 0.1046
vn -0.9999 0.0057 -0.0110
vn 0.0006 -0.0866 -0.9962
vn 0.0006 -0.0877 -0.9961
vt 0.123200 0.822600
vt 0.870300 0.822600
vt 0.870300 0.177400
vt 0.123200 0.177400
vt 0.000000 0.000000
vt 1.000000 0.000000
vt 1.000000 1.000000
vt 0.000000 1.000000
vt 0.000000 0.178000
vt -0.114900 0.155900
vt -0.099900 0.141000
vt 0.100100 0.141800
vt 0.115100 0.156900
vt -0.100300 -0.150200
vt -0.100400 -0.150200
vt 0.100100 -0.149800
vt 0.100100 0.141900
vt -0.105700 -0.155600
vt -0.105200 0.146300
vt 0.105400 -0.155100
vt 0.105400 0.147200
vt -0.105500 -0.155400
vt -0.105100 0.146200
vt 0.105300 -0.155000
vt 0.105300 0.147100
vt -0.105300 0.146400
vt 0.105500 -0.155200
vt 0.105500 0.147300
vt -0.106100 -0.156000
vt -0.105700 0.146700
vt 0.105900 -0.155600
vt 0.105900 0.147700
vt -0.106500 -0.156400
vt -0.106100 0.147200
vt 0.106300 -0.156000
vt 0.106300 0.148100
vt -0.106900 -0.156800
vt -0.106500 0.147500
vt 0.106700 -0.156400
vt 0.106700 0.148500
vt -0.107100 -0.157000
vt -0.106700 0.147700
vt 0.106900 -0.156500
vt 0.106900 0.148700
vt -0.107000 -0.156900
vt -0.106500 0.147600
vt 0.106800 -0.156400
vt 0.106800 0.148500
vt -0.107100 -0.156900
vt -0.106600 0.147700
vt 0.106800 -0.156500
vt 0.106800 0.148600
vt -0.107400 -0.157300
vt -0.107000 0.148100
vt 0.107200 -0.156900
vt 0.107200 0.149000
vt -0.108000 -0.157900
vt -0.107600 0.148600
vt 0.107800 -0.157400
vt 0.107800 0.149600
vt -0.108700 -0.158600
vt -0.108200 0.149300
vt 0.108400 -0.158100
vt 0.108400 0.150200
vt -0.109300 -0.159200
vt -0.108800 0.149900
vt 0.109000 -0.158700
vt 0.109000 0.150800
vt -0.109700 -0.159600
vt -0.109300 0.150400
vt 0.109500 -0.159200
vt 0.109500 0.151300
vt -0.109900 -0.159800
vt -0.109500 0.150600
vt 0.109700 -0.159400
vt 0.109700 0.151500
vt -0.110000 -0.159900
vt -0.109600 0.150700
vt 0.109800 -0.159500
vt 0.109800 0.151600
vt -0.110300 -0.160200
vt -0.109900 0.150900
vt 0.110100 -0.159800
vt 0.110100 0.151900
vt -0.110800 -0.160700
vt -0.110300 0.151400
vt 0.110500 -0.160200
vt 0.110500 0.152300
vt -0.111300 -0.161200
vt -0.110800 0.151900
vt 0.111100 -0.160700
vt 0.111100 0.152900
vt -0.111900 -0.161800
vt -0.111400 0.152500
vt 0.111700 -0.161300
vt 0.111700 0.153500
vt -0.112500 -0.162400
vt -0.112100 0.153100
vt 0.112300 -0.161900
vt 0.112300 0.154100
vt -0.113100 -0.163000
vt -0.112700 0.153700
vt 0.112900 -0.162500
vt 0.112900 0.154700
vt -0.113700 -0.163600
vt -0.113200 0.154300
vt 0.113500 -0.163100
vt 0.113500 0.155300
vt -0.114200 -0.164100
vt -0.113800 0.154800
vt 0.114000 -0.163600
vt 0.114000 0.155800
vt -0.114700 -0.164600
vt -0.114200 0.155300
vt 0.114400 -0.164100
vt 0.114400 0.156200
vt -0.115000 -0.164900
vt -0.114500 0.155600
vt 0.114800 -0.164400
vt 0.114800 0.156600
vt -0.115200 -0.165100
vt -0.114800 0.155800
vt 0.115000 -0.164600
vt 0.115000 0.156800
vt -0.115400 -0.165300
vt 0.115100 -0.164800
s 1
usemtl Picture
f 1/1/1 2/2/1 3/3/1 4/4/1
f 5/5/2 6/6/2 7/7/2 8/8/2
f 9/5/3 10/6/3 6/6/3 5/5/3
f 11/7/4 7/7/4 6/6/4 10/6/4
f 11/7/5 12/8/5 8/8/5 7/7/5
f 13/9/6 9/5/6 5/5/6 8/8/6 12/8/6
f 9/5/1 13/9/1 4/4/1 3/3/1 2/2/1 12/8/1 11/7/1 10/6/1
f 1/1/1 4/4/1 13/9/1 12/8/1 2/2/1
usemtl Base
f 135/10/7 17/11/7 20/12/8 137/13/8
f 14/14/9 15/15/9 16/11/9 17/11/9
f 18/16/10 19/16/10 15/15/10 14/14/10
f 20/12/11 21/17/11 19/16/11 18/16/11
f 17/11/12 16/11/12 21/17/12 20/12/12
f 15/15/13 22/18/13 23/19/14 16/11/14
f 19/16/15 24/20/15 22/18/13 15/15/13
f 21/17/16 25/21/16 24/20/15 19/16/15
f 16/11/14 23/19/14 25/21/16 21/17/16
f 22/18/17 26/22/17 27/23/17 23/19/17
f 24/20/18 28/24/18 26/22/18 22/18/18
f 25/21/19 29/25/19 28/24/19 24/20/19
f 23/19/20 27/23/20 29/25/20 25/21/20
f 26/22/21 30/18/22 31/26/23 27/23/21
f 28/24/24 32/27/25 30/18/26 26/22/24
f 29/25/27 33/28/28 32/27/29 28/24/27
f 27/23/30 31/26/31 33/28/32 29/25/30
f 30/18/22 34/29/33 35/30/34 31/26/23
f 32/27/25 36/31/35 34/29/36 30/18/26
f 33/28/28 37/32/37 36/31/38 32/27/29
f 31/26/31 35/30/39 37/32/40 33/28/32
f 34/29/33 38/33/41 39/34/42 35/30/34
f 36/31/35 40/35/43 38/33/44 34/29/36
f 37/32/37 41/36/45 40/35/46 36/31/38
f 35/30/39 39/34/47 41/36/48 37/32/40
f 38/33/41 42/37/49 43/38/49 39/34/42
f 40/35/43 44/39/50 42/37/51 38/33/44
f 41/36/45 45/40/52 44/39/53 40/35/46
f 39/34/47 43/38/54 45/40/55 41/36/48
f 42/37/49 46/41/56 47/42/56 43/38/49
f 44/39/50 48/43/57 46/41/57 42/37/51
f 45/40/52 49/44/58 48/43/58 44/39/53
f 43/38/54 47/42/59 49/44/59 45/40/55
f 46/41/60 50/45/61 51/46/62 47/42/60
f 48/43/63 52/47/64 50/45/65 46/41/63
f 49/44/66 53/48/67 52/47/68 48/43/66
f 47/42/69 51/46/70 53/48/70 49/44/69
f 50/45/61 54/49/71 55/50/71 51/46/62
f 52/47/64 56/51/72 54/49/72 50/45/65
f 53/48/67 57/52/73 56/51/73 52/47/68
f 51/46/70 55/50/74 57/52/74 53/48/70
f 54/49/75 58/53/76 59/54/77 55/50/75
f 56/51/78 60/55/79 58/53/80 54/49/78
f 57/52/81 61/56/82 60/55/83 56/51/81
f 55/50/84 59/54/85 61/56/86 57/52/84
f 58/53/76 62/57/87 63/58/88 59/54/77
f 60/55/79 64/59/89 62/57/87 58/53/80
f 61/56/82 65/60/90 64/59/89 60/55/83
f 59/54/85 63/58/88 65/60/90 61/56/86
f 62/57/87 66/61/91 67/62/92 63/58/88
f 64/59/89 68/63/93 66/61/91 62/57/87
f 65/60/90 69/64/94 68/63/93 64/59/89
f 63/58/88 67/62/92 69/64/94 65/60/90
f 66/61/91 70/65/95 71/66/96 67/62/92
f 68/63/93 72/67/97 70/65/95 66/61/91
f 69/64/94 73/68/98 72/67/97 68/63/93
f 67/62/92 71/66/96 73/68/98 69/64/94
f 70/65/95 74/69/99 75/70/99 71/66/96
f 72/67/97 76/71/100 74/69/100 70/65/95
f 73/68/98 77/72/101 76/71/101 72/67/97
f 71/66/96 75/70/102 77/72/102 73/68/98
f 74/69/103 78/73/104 79/74/104 75/70/103
f 76/71/105 80/75/106 78/73/107 74/69/105
f 77/72/108 81/76/109 80/75/110 76/71/108
f 75/70/111 79/74/112 81/76/113 77/72/111
f 78/73/104 82/77/114 83/78/114 79/74/104
f 80/75/106 84/79/115 82/77/116 78/73/107
f 81/76/109 85/80/117 84/79/117 80/75/110
f 79/74/112 83/78/118 85/80/119 81/76/113
f 82/77/114 86/81/120 87/82/121 83/78/114
f 84/79/115 88/83/122 86/81/122 82/77/116
f 85/80/117 89/84/123 88/83/124 84/79/117
f 83/78/118 87/82/125 89/84/126 85/80/119
f 86/81/120 90/85/127 91/86/128 87/82/121
f 88/83/122 92/87/129 90/85/130 86/81/122
f 89/84/123 93/88/131 92/87/132 88/83/124
f 87/82/125 91/86/133 93/88/134 89/84/126
f 90/85/127 94/89/135 95/90/135 91/86/128
f 92/87/129 96/91/136 94/89/137 90/85/130
f 93/88/131 97/92/138 96/91/138 92/87/132
f 91/86/133 95/90/139 97/92/140 93/88/134
f 94/89/135 98/93/141 99/94/141 95/90/135
f 96/91/136 100/95/142 98/93/142 94/89/137
f 97/92/138 101/96/143 100/95/144 96/91/138
f 95/90/139 99/94/145 101/96/146 97/92/140
f 98/93/141 102/97/147 103/98/148 99/94/141
f 100/95/142 104/99/149 102/97/150 98/93/142
f 101/96/143 105/100/151 104/99/151 100/95/144
f 99/94/145 103/98/152 105/100/153 101/96/146
f 102/97/147 106/101/154 107/102/155 103/98/148
f 104/99/149 108/103/156 106/101/154 102/97/150
f 105/100/151 109/104/157 108/103/156 104/99/151
f 103/98/152 107/102/155 109/104/157 105/100/153
f 106/101/154 110/105/158 111/106/159 107/102/155
f 108/103/156 112/107/160 110/105/158 106/101/154
f 109/104/157 113/108/161 112/107/160 108/103/156
f 107/102/155 111/106/159 113/108/161 109/104/157
f 110/105/158 114/109/162 115/110/163 111/106/159
f 112/107/160 116/111/164 114/109/165 110/105/158
f 113/108/161 117/112/166 116/111/167 112/107/160
f 111/106/159 115/110/168 117/112/169 113/108/161
f 114/109/162 118/113/170 119/114/171 115/110/163
f 116/111/164 120/115/172 118/113/173 114/109/165
f 117/112/166 121/116/174 120/115/174 116/111/167
f 115/110/168 119/114/175 121/116/176 117/112/169
f 118/113/170 122/117/177 123/118/178 119/114/171
f 120/115/172 124/119/179 122/117/179 118/113/173
f 121/116/174 125/120/180 124/119/181 120/115/174
f 119/114/175 123/118/182 125/120/183 121/116/176
f 122/117/177 126/121/184 127/122/185 123/118/178
f 124/119/179 128/123/186 126/121/187 122/117/179
f 125/120/180 129/124/188 128/123/189 124/119/181
f 123/118/182 127/122/190 129/124/191 125/120/183
f 126/121/184 130/125/192 131/10/192 127/122/185
f 128/123/186 132/126/193 130/125/194 126/121/187
f 129/124/188 133/13/195 132/126/196 128/123/189
f 127/122/190 131/10/197 133/13/198 129/124/191
f 130/125/192 134/125/199 135/10/199 131/10/192
f 132/126/193 136/126/200 134/125/200 130/125/194
f 133/13/195 137/13/201 136/126/201 132/126/196
f 131/10/197 135/10/202 137/13/202 133/13/198
f 134/125/203 14/14/203 17/11/7 135/10/7
f 136/126/204 18/16/204 14/14/203 134/125/203
f 137/13/8 20/12/8 18/16/204 136/126/204
