# 3ds Max Wavefront OBJ Exporter v0.99 - (c)2007 guruware
# File Created: 19.05.2025 10:52:57

mtllib Bathroom-accessories-085.mtl

#
# object Bathroom_accessories_085
#

v  -1.7834 0.0486 -3.0890
v  -1.8036 0.1946 -3.1238
v  0.0000 0.1946 -3.5701
v  0.0000 0.0486 -3.5302
v  -1.8036 0.3933 -3.1238
v  0.0000 0.3933 -3.5701
v  1.8036 0.3933 -3.1238
v  1.8036 0.1946 -3.1238
v  1.7834 0.0486 -3.0890
v  -3.5668 0.0486 0.0000
v  -3.6071 0.1946 0.0000
v  -3.0918 0.1946 -1.7851
v  -3.0573 0.0486 -1.7651
v  -3.6071 0.3933 0.0000
v  -3.0918 0.3933 -1.7851
v  -1.7834 0.0486 3.0890
v  -1.8036 0.1946 3.1238
v  -3.0918 0.1946 1.7851
v  -3.0573 0.0486 1.7651
v  -1.8036 0.3933 3.1238
v  -3.0918 0.3933 1.7851
v  1.7834 0.0486 3.0890
v  1.8036 0.1946 3.1238
v  0.0000 0.1946 3.5701
v  0.0000 0.0486 3.5302
v  1.8036 0.3933 3.1238
v  0.0000 0.3933 3.5701
v  3.5668 0.0486 0.0000
v  3.6071 0.1946 0.0000
v  3.0918 0.1946 1.7851
v  3.0573 0.0486 1.7651
v  3.6071 0.3933 0.0000
v  3.0918 0.3933 1.7851
v  3.0918 0.1946 -1.7851
v  3.0573 0.0486 -1.7651
v  3.0918 0.3933 -1.7851
v  1.7230 0.0000 -2.9843
v  0.0000 0.0000 -3.4106
v  1.6152 0.0000 -2.7976
v  0.0000 0.0000 -3.1973
v  -1.6152 0.0000 -2.7976
v  -1.7230 0.0000 -2.9843
v  -2.9537 0.0000 -1.7053
v  -2.7689 0.0000 -1.5986
v  -3.2304 0.0000 0.0000
v  -3.4460 0.0000 0.0000
v  -2.9537 0.0000 1.7053
v  -2.7689 0.0000 1.5986
v  -1.6152 0.0000 2.7976
v  -1.7230 0.0000 2.9843
v  0.0000 0.0000 3.4106
v  0.0000 0.0000 3.1973
v  1.6152 0.0000 2.7976
v  1.7230 0.0000 2.9843
v  2.9537 0.0000 1.7053
v  2.7689 0.0000 1.5986
v  3.2304 0.0000 0.0000
v  3.4460 0.0000 0.0000
v  2.9537 0.0000 -1.7053
v  2.7689 0.0000 -1.5986
v  1.2074 0.0000 -2.0912
v  1.8863 0.0000 -1.2975
v  0.7220 0.0000 -1.2506
v  0.1805 0.0000 -2.2823
v  2.2609 0.0000 0.0000
v  1.0831 0.0000 0.0000
v  0.0000 0.0000 0.0000
v  -0.5415 0.0000 -0.9380
v  -1.1304 0.0000 -1.9580
v  -2.4147 0.0000 0.0000
v  -2.0668 0.0000 -0.9848
v  -1.4441 0.0000 0.0000
v  -2.0668 0.0000 0.9848
v  -0.5415 0.0000 0.9380
v  -1.1304 0.0000 1.9580
v  1.2074 0.0000 2.0912
v  0.1805 0.0000 2.2823
v  0.7220 0.0000 1.2506
v  1.8863 0.0000 1.2975
v  -1.8036 2.1540 -3.1238
v  0.0000 2.1540 -3.5701
v  0.0000 0.6005 -3.5701
v  -1.8036 0.6005 -3.1238
v  1.8036 2.1540 -3.1238
v  1.8036 0.6005 -3.1238
v  -3.6071 2.1540 0.0000
v  -3.0918 2.1540 -1.7851
v  -3.0918 0.6005 -1.7851
v  -3.6071 0.6005 0.0000
v  -1.8036 2.1540 3.1238
v  -3.0918 2.1540 1.7851
v  -3.0918 0.6005 1.7851
v  -1.8036 0.6005 3.1238
v  1.8036 2.1540 3.1238
v  0.0000 2.1540 3.5701
v  0.0000 0.6005 3.5701
v  1.8036 0.6005 3.1238
v  3.6071 2.1540 0.0000
v  3.0918 2.1540 1.7851
v  3.0918 0.6005 1.7851
v  3.6071 0.6005 0.0000
v  3.0918 2.1540 -1.7851
v  3.0918 0.6005 -1.7851
v  -1.8036 10.6420 -3.1238
v  0.0000 10.6420 -3.5701
v  0.0000 6.3919 -3.5701
v  -1.8036 6.3919 -3.1238
v  1.8036 10.6420 -3.1238
v  1.8036 6.3919 -3.1238
v  -3.6071 10.6420 0.0000
v  -3.0918 10.6420 -1.7851
v  -3.0918 6.3919 -1.7851
v  -3.6071 6.3919 0.0000
v  -1.8036 10.6420 3.1238
v  -3.0918 10.6420 1.7851
v  -3.0918 6.3919 1.7851
v  -1.8036 6.3919 3.1238
v  1.8036 10.6420 3.1238
v  0.0000 10.6420 3.5701
v  0.0000 6.3919 3.5701
v  1.8036 6.3919 3.1238
v  3.6071 10.6420 0.0000
v  3.0918 10.6420 1.7851
v  3.0918 6.3919 1.7851
v  3.6071 6.3919 0.0000
v  3.0918 10.6420 -1.7851
v  3.0918 6.3919 -1.7851
v  1.7911 12.8847 -3.1023
v  0.0000 12.8847 -3.5455
v  0.0000 12.9407 -3.4716
v  1.7538 12.9407 -3.0376
v  -1.7911 12.8847 -3.1023
v  -1.7538 12.9407 -3.0376
v  -1.6959 12.9407 -2.9375
v  0.0000 12.9407 -3.3571
v  1.6960 12.9407 -2.9375
v  -3.0705 12.8847 -1.7727
v  -3.0065 12.9407 -1.7358
v  -3.5822 12.8847 0.0000
v  -3.5076 12.9407 0.0000
v  -3.3919 12.9407 0.0000
v  -2.9073 12.9407 -1.6786
v  -3.0705 12.8847 1.7727
v  -3.0065 12.9407 1.7358
v  -1.7911 12.8847 3.1023
v  -1.7538 12.9407 3.0376
v  -1.6959 12.9407 2.9375
v  -2.9073 12.9407 1.6786
v  0.0000 12.8847 3.5455
v  0.0000 12.9407 3.4716
v  1.7911 12.8847 3.1023
v  1.7538 12.9407 3.0376
v  1.6960 12.9407 2.9375
v  0.0000 12.9407 3.3571
v  3.0705 12.8847 1.7727
v  3.0065 12.9407 1.7358
v  3.5822 12.8847 0.0000
v  3.5076 12.9407 0.0000
v  3.3919 12.9407 0.0000
v  2.9073 12.9407 1.6786
v  3.0705 12.8847 -1.7727
v  3.0065 12.9407 -1.7358
v  2.9073 12.9407 -1.6786
v  0.0000 12.9407 -3.2108
v  1.6220 12.9407 -2.8094
v  -1.6220 12.9407 -2.8094
v  -1.3405 12.9407 -2.3219
v  0.2200 12.9407 -2.7080
v  1.4054 12.9407 -2.4342
v  -2.7806 12.9407 -1.6054
v  -3.2440 12.9407 0.0000
v  -2.8107 12.9407 0.0000
v  -2.4552 12.9407 -1.1635
v  -2.7806 12.9407 1.6054
v  -1.6220 12.9407 2.8094
v  -1.3405 12.9407 2.3219
v  -2.4552 12.9407 1.1635
v  0.0000 12.9407 3.2108
v  1.6220 12.9407 2.8094
v  1.4054 12.9407 2.4342
v  0.2200 12.9407 2.7080
v  2.7806 12.9407 1.6054
v  3.2440 12.9407 0.0000
v  2.6811 12.9407 0.0000
v  2.2352 12.9407 1.5445
v  2.7806 12.9407 -1.6054
v  2.2352 12.9407 -1.5445
v  -1.7600 12.9407 0.0000
v  -0.6600 12.9407 1.1432
v  0.0000 12.9407 0.0000
v  -0.6600 12.9407 -1.1432
v  0.8800 12.9407 1.5242
v  1.3200 12.9407 0.0000
v  0.8800 12.9407 -1.5242
v  0.0000 12.7168 -3.5701
v  -1.8036 12.7168 -3.1238
v  1.8036 12.7168 -3.1238
v  1.8036 12.4838 -3.1238
v  0.0000 12.4838 -3.5701
v  -1.8036 12.4838 -3.1238
v  -3.0918 12.7168 -1.7851
v  -3.6071 12.7168 0.0000
v  -3.0918 12.4838 -1.7851
v  -3.6071 12.4838 0.0000
v  -3.0918 12.7168 1.7851
v  -1.8036 12.7168 3.1238
v  -3.0918 12.4838 1.7851
v  -1.8036 12.4838 3.1238
v  0.0000 12.7168 3.5701
v  1.8036 12.7168 3.1238
v  0.0000 12.4838 3.5701
v  1.8036 12.4838 3.1238
v  3.0918 12.7168 1.7851
v  3.6071 12.7168 0.0000
v  3.0918 12.4838 1.7851
v  3.6071 12.4838 0.0000
v  3.0918 12.7168 -1.7851
v  3.0918 12.4838 -1.7851
v  0.0000 12.2324 -3.5701
v  -1.8036 12.2324 -3.1238
v  1.8036 12.2324 -3.1238
v  -3.0918 12.2324 -1.7851
v  -3.6071 12.2324 0.0000
v  -3.0918 12.2324 1.7851
v  -1.8036 12.2324 3.1238
v  0.0000 12.2324 3.5701
v  1.8036 12.2324 3.1238
v  3.0918 12.2324 1.7851
v  3.6071 12.2324 0.0000
v  3.0918 12.2324 -1.7851
v  0.0000 0.0000 -2.8762
v  1.4530 0.0000 -2.5167
v  -1.4530 0.0000 -2.5167
v  -2.4909 0.0000 -1.4381
v  -2.9060 0.0000 0.0000
v  -2.4909 0.0000 1.4381
v  -1.4530 0.0000 2.5167
v  0.0000 0.0000 2.8762
v  1.4530 0.0000 2.5167
v  2.4909 0.0000 1.4381
v  2.9060 0.0000 0.0000
v  2.4909 0.0000 -1.4381
v  -1.0426 13.2314 -1.0445
v  -1.4107 13.2314 -0.3777
v  -1.4107 13.7511 -0.3777
v  -1.0426 13.7511 -1.0445
v  -1.4253 13.2314 0.3838
v  -1.4253 13.7511 0.3838
v  -1.4253 14.2777 0.3838
v  -1.4107 14.2777 -0.3777
v  -1.0426 14.2777 -1.0445
v  -1.0319 13.2314 1.0359
v  -1.0319 13.7511 1.0359
v  -0.3798 13.2314 1.4293
v  -0.3798 13.7511 1.4293
v  -0.3798 14.2777 1.4293
v  -1.0319 14.2777 1.0359
v  0.3817 13.2314 1.4147
v  0.3817 13.7511 1.4147
v  1.0485 13.2314 1.0466
v  1.0485 13.7511 1.0466
v  1.0485 14.2777 1.0466
v  0.3817 14.2777 1.4147
v  1.4166 13.2314 0.3799
v  1.4166 13.7511 0.3799
v  1.4312 13.2314 -0.3816
v  1.4312 13.7511 -0.3816
v  1.4312 14.2777 -0.3816
v  1.4166 14.2777 0.3799
v  1.0378 13.2314 -1.0338
v  1.0378 13.7511 -1.0338
v  0.3857 13.2314 -1.4272
v  0.3857 13.7511 -1.4272
v  0.3857 14.2777 -1.4272
v  1.0378 14.2777 -1.0338
v  -0.3758 13.2314 -1.4126
v  -0.3758 13.7511 -1.4126
v  -0.3758 14.2777 -1.4126
v  -1.0360 12.9942 -1.0379
v  -1.4018 12.9942 -0.3753
v  -1.4107 13.0281 -0.3777
v  -1.0426 13.0281 -1.0445
v  -1.4163 12.9942 0.3814
v  -1.4253 13.0281 0.3838
v  -1.0254 12.9942 1.0294
v  -1.0319 13.0281 1.0359
v  -0.3773 12.9942 1.4203
v  -0.3798 13.0281 1.4293
v  0.3793 12.9942 1.4058
v  0.3817 13.0281 1.4147
v  1.0419 12.9942 1.0400
v  1.0485 13.0281 1.0466
v  1.4077 12.9942 0.3775
v  1.4166 13.0281 0.3799
v  1.4222 12.9942 -0.3792
v  1.4312 13.0281 -0.3816
v  1.0313 12.9942 -1.0273
v  1.0378 13.0281 -1.0338
v  0.3832 12.9942 -1.4182
v  0.3857 13.0281 -1.4272
v  -0.3734 12.9942 -1.4036
v  -0.3758 13.0281 -1.4126
v  -1.3750 12.9829 -0.3682
v  -1.3893 12.9829 0.3741
v  -1.0162 12.9829 -1.0181
v  -0.9194 12.9829 -0.9213
v  -1.2441 12.9829 -0.3331
v  -1.2570 12.9829 0.3387
v  -1.0058 12.9829 1.0098
v  -0.3701 12.9829 1.3933
v  -0.9099 12.9829 0.9140
v  -0.3347 12.9829 1.2610
v  0.3722 12.9829 1.3790
v  1.0221 12.9829 1.0203
v  0.3371 12.9829 1.2481
v  0.9253 12.9829 0.9234
v  1.3809 12.9829 0.3703
v  1.3952 12.9829 -0.3720
v  1.2500 12.9829 0.3352
v  1.2629 12.9829 -0.3365
v  1.0117 12.9829 -1.0077
v  0.3760 12.9829 -1.3912
v  0.9158 12.9829 -0.9118
v  0.3405 12.9829 -1.2589
v  -0.3663 12.9829 -1.3769
v  -0.3312 12.9829 -1.2460
v  -0.9227 12.9829 -0.2469
v  -0.9323 12.9829 0.2517
v  -0.6817 12.9829 -0.6835
v  -0.4505 12.9870 -0.4524
v  -0.6101 12.9870 -0.1632
v  -0.6165 12.9870 0.1670
v  -0.6746 12.9829 0.6787
v  -0.2476 12.9829 0.9363
v  -0.4459 12.9870 0.4499
v  -0.1630 12.9870 0.6205
v  0.2510 12.9829 0.9267
v  0.6876 12.9829 0.6857
v  0.1672 12.9870 0.6142
v  0.4564 12.9870 0.4545
v  0.9285 12.9829 0.2491
v  0.9381 12.9829 -0.2495
v  0.6160 12.9870 0.1653
v  0.6224 12.9870 -0.1649
v  0.6805 12.9829 -0.6765
v  0.2535 12.9829 -0.9341
v  0.4518 12.9870 -0.4477
v  0.1689 12.9870 -0.6184
v  -0.2451 12.9829 -0.9245
v  -0.1613 12.9870 -0.6120
v  -0.5060 12.9992 -0.1353
v  -0.5113 12.9992 0.1388
v  -0.3735 12.9992 -0.3753
v  -0.3735 13.1185 -0.3753
v  -0.5060 13.1185 -0.1353
v  -0.5113 13.1185 0.1388
v  -0.3696 12.9992 0.3736
v  -0.1348 12.9992 0.5153
v  -0.3696 13.1185 0.3736
v  -0.1348 13.1185 0.5153
v  0.1393 12.9992 0.5100
v  0.3794 12.9992 0.3775
v  0.1393 13.1185 0.5100
v  0.3794 13.1185 0.3775
v  0.5119 12.9992 0.1374
v  0.5171 12.9992 -0.1367
v  0.5119 13.1185 0.1374
v  0.5171 13.1185 -0.1367
v  0.3755 12.9992 -0.3715
v  0.1407 12.9992 -0.5131
v  0.3755 13.1185 -0.3715
v  0.1407 13.1185 -0.5131
v  -0.1334 12.9992 -0.5078
v  -0.1334 13.1185 -0.5078
v  -0.5060 13.4441 -0.1353
v  -0.5113 13.4441 0.1388
v  -0.3735 13.4441 -0.3753
v  -0.3735 13.8728 -0.3753
v  -0.5060 13.8728 -0.1353
v  -0.5113 13.8728 0.1388
v  -0.3696 13.4441 0.3736
v  -0.1348 13.4441 0.5153
v  -0.3696 13.8728 0.3736
v  -0.1348 13.8728 0.5153
v  0.1393 13.4441 0.5100
v  0.3794 13.4441 0.3775
v  0.1393 13.8728 0.5100
v  0.3794 13.8728 0.3775
v  0.5119 13.4441 0.1374
v  0.5171 13.4441 -0.1367
v  0.5119 13.8728 0.1374
v  0.5171 13.8728 -0.1367
v  0.3755 13.4441 -0.3715
v  0.1407 13.4441 -0.5131
v  0.3755 13.8728 -0.3715
v  0.1407 13.8728 -0.5131
v  -0.1334 13.4441 -0.5078
v  -0.1334 13.8728 -0.5078
v  -1.4107 14.5018 -0.3777
v  -1.0426 14.5018 -1.0445
v  -1.4253 14.5018 0.3838
v  -1.4091 14.5564 0.3794
v  -1.3946 14.5564 -0.3734
v  -1.0307 14.5564 -1.0326
v  -1.0319 14.5018 1.0359
v  -0.3798 14.5018 1.4293
v  -0.3754 14.5564 1.4131
v  -1.0201 14.5564 1.0241
v  0.3817 14.5018 1.4147
v  1.0485 14.5018 1.0466
v  1.0366 14.5564 1.0347
v  0.3774 14.5564 1.3986
v  1.4166 14.5018 0.3799
v  1.4312 14.5018 -0.3816
v  1.4149 14.5564 -0.3773
v  1.4005 14.5564 0.3755
v  1.0378 14.5018 -1.0338
v  0.3857 14.5018 -1.4272
v  0.3813 14.5564 -1.4109
v  1.0260 14.5564 -1.0220
v  -0.3758 14.5018 -1.4126
v  -0.3715 14.5564 -1.3964
v  -1.3462 14.5747 -0.3604
v  -0.9950 14.5747 -0.9968
v  -1.3602 14.5747 0.3663
v  -1.2353 14.5747 0.3329
v  -1.2226 14.5747 -0.3273
v  -0.9035 14.5747 -0.9054
v  -0.9847 14.5747 0.9887
v  -0.3623 14.5747 1.3642
v  -0.3288 14.5747 1.2393
v  -0.8942 14.5747 0.8982
v  0.3645 14.5747 1.3502
v  1.0008 14.5747 0.9990
v  0.9094 14.5747 0.9075
v  0.3313 14.5747 1.2266
v  1.3521 14.5747 0.3626
v  1.3661 14.5747 -0.3642
v  1.2412 14.5747 -0.3307
v  1.2285 14.5747 0.3295
v  0.9906 14.5747 -0.9866
v  0.3682 14.5747 -1.3621
v  0.3347 14.5747 -1.2372
v  0.9001 14.5747 -0.8961
v  -0.3586 14.5747 -1.3481
v  -0.3254 14.5747 -1.2245
v  -0.9806 14.5747 -0.2625
v  -0.7245 14.5747 -0.7264
v  -0.9908 14.5747 0.2673
v  -0.7578 14.5747 0.2049
v  -0.7500 14.5747 -0.2007
v  -0.5540 14.5747 -0.5558
v  -0.7171 14.5747 0.7211
v  -0.2633 14.5747 0.9948
v  -0.2009 14.5747 0.7618
v  -0.5482 14.5747 0.5523
v  0.2665 14.5747 0.9846
v  0.7304 14.5747 0.7286
v  0.5598 14.5747 0.5580
v  0.2047 14.5747 0.7540
v  0.9865 14.5747 0.2646
v  0.9967 14.5747 -0.2652
v  0.7637 14.5747 -0.2028
v  0.7559 14.5747 0.2028
v  0.7230 14.5747 -0.7189
v  0.2692 14.5747 -0.9927
v  0.2068 14.5747 -0.7597
v  0.5541 14.5747 -0.5501
v  -0.2606 14.5747 -0.9825
v  -0.1988 14.5747 -0.7519
v  -0.6604 14.5747 -0.1767
v  -0.4877 14.5747 -0.4896
v  -0.6673 14.5747 0.1807
v  -0.6529 14.5715 0.1768
v  -0.6462 14.5715 -0.1729
v  -0.4772 14.5715 -0.4790
v  -0.4827 14.5747 0.4867
v  -0.1766 14.5747 0.6713
v  -0.1728 14.5715 0.6569
v  -0.4722 14.5715 0.4762
v  0.1807 14.5747 0.6644
v  0.4936 14.5747 0.4917
v  0.4830 14.5715 0.4812
v  0.1769 14.5715 0.6502
v  0.6663 14.5747 0.1788
v  0.6732 14.5747 -0.1785
v  0.6588 14.5715 -0.1747
v  0.6520 14.5715 0.1750
v  0.4886 14.5747 -0.4846
v  0.1825 14.5747 -0.6692
v  0.1787 14.5715 -0.6548
v  0.4781 14.5715 -0.4741
v  -0.1748 14.5747 -0.6623
v  -0.1710 14.5715 -0.6480
v  -0.6414 14.5620 -0.1716
v  -0.4736 14.5620 -0.4755
v  -0.6481 14.5620 0.1755
v  -0.6481 14.5050 0.1755
v  -0.6414 14.5050 -0.1716
v  -0.4736 14.5050 -0.4755
v  -0.4687 14.5620 0.4728
v  -0.1715 14.5620 0.6521
v  -0.1715 14.5050 0.6521
v  -0.4687 14.5050 0.4728
v  0.1756 14.5620 0.6454
v  0.4795 14.5620 0.4776
v  0.4795 14.5050 0.4776
v  0.1756 14.5050 0.6454
v  0.6473 14.5620 0.1737
v  0.6540 14.5620 -0.1734
v  0.6540 14.5050 -0.1734
v  0.6473 14.5050 0.1737
v  0.4746 14.5620 -0.4706
v  0.1774 14.5620 -0.6499
v  0.1774 14.5050 -0.6499
v  0.4746 14.5050 -0.4706
v  -0.1697 14.5620 -0.6433
v  -0.1697 14.5050 -0.6433
v  -0.6414 14.3593 -0.1716
v  -0.4736 14.3593 -0.4755
v  -0.6481 14.3593 0.1755
v  -0.6450 14.2167 0.1747
v  -0.6383 14.2167 -0.1708
v  -0.4713 14.2167 -0.4732
v  -0.4687 14.3593 0.4728
v  -0.1715 14.3593 0.6521
v  -0.1707 14.2167 0.6490
v  -0.4665 14.2167 0.4705
v  0.1756 14.3593 0.6454
v  0.4795 14.3593 0.4776
v  0.4772 14.2167 0.4754
v  0.1748 14.2167 0.6423
v  0.6473 14.3593 0.1737
v  0.6540 14.3593 -0.1734
v  0.6508 14.2167 -0.1725
v  0.6442 14.2167 0.1729
v  0.4746 14.3593 -0.4706
v  0.1774 14.3593 -0.6499
v  0.1765 14.2167 -0.6468
v  0.4724 14.2167 -0.4684
v  -0.1697 14.3593 -0.6433
v  -0.1689 14.2167 -0.6402
v  -0.6291 14.1692 -0.1683
v  -0.4645 14.1692 -0.4664
v  -0.6356 14.1692 0.1722
v  -0.6262 14.1747 0.1697
v  -0.6198 14.1747 -0.1658
v  -0.4577 14.1747 -0.4595
v  -0.4597 14.1692 0.4637
v  -0.1682 14.1692 0.6396
v  -0.1656 14.1747 0.6303
v  -0.4529 14.1747 0.4569
v  0.1723 14.1692 0.6331
v  0.4704 14.1692 0.4685
v  0.4635 14.1747 0.4617
v  0.1698 14.1747 0.6238
v  0.6349 14.1692 0.1704
v  0.6415 14.1692 -0.1700
v  0.6321 14.1747 -0.1675
v  0.6257 14.1747 0.1679
v  0.4656 14.1692 -0.4616
v  0.1740 14.1692 -0.6375
v  0.1715 14.1747 -0.6281
v  0.4588 14.1747 -0.4548
v  -0.1664 14.1692 -0.6309
v  -0.1639 14.1747 -0.6217
v  -0.6167 14.1910 -0.1650
v  -0.4554 14.1910 -0.4572
v  -0.6231 14.1910 0.1688
v  -0.6231 14.4090 0.1688
v  -0.6167 14.4090 -0.1650
v  -0.4554 14.4090 -0.4572
v  -0.4507 14.1910 0.4547
v  -0.1648 14.1910 0.6271
v  -0.1648 14.4090 0.6271
v  -0.4507 14.4090 0.4547
v  0.1690 14.1910 0.6207
v  0.4613 14.1910 0.4594
v  0.4613 14.4090 0.4594
v  0.1690 14.4090 0.6207
v  0.6226 14.1910 0.1671
v  0.6290 14.1910 -0.1667
v  0.6290 14.4090 -0.1667
v  0.6226 14.4090 0.1671
v  0.4566 14.1910 -0.4525
v  0.1707 14.1910 -0.6250
v  0.1707 14.4090 -0.6250
v  0.4566 14.4090 -0.4525
v  -0.1631 14.1910 -0.6186
v  -0.1631 14.4090 -0.6186
v  -0.6167 15.0192 -0.1650
v  -0.4554 15.0192 -0.4572
v  -0.6231 15.0192 0.1688
v  -0.6231 15.6274 0.1688
v  -0.6167 15.6274 -0.1650
v  -0.4554 15.6274 -0.4572
v  -0.4507 15.0192 0.4547
v  -0.1648 15.0192 0.6271
v  -0.1648 15.6274 0.6271
v  -0.4507 15.6274 0.4547
v  0.1690 15.0192 0.6207
v  0.4613 15.0192 0.4594
v  0.4613 15.6274 0.4594
v  0.1690 15.6274 0.6207
v  0.6226 15.0192 0.1671
v  0.6290 15.0192 -0.1667
v  0.6290 15.6274 -0.1667
v  0.6226 15.6274 0.1671
v  0.4566 15.0192 -0.4525
v  0.1707 15.0192 -0.6250
v  0.1707 15.6274 -0.6250
v  0.4566 15.6274 -0.4525
v  -0.1631 15.0192 -0.6186
v  -0.1631 15.6274 -0.6186
v  -0.6167 15.8389 -0.1650
v  -0.4554 15.8389 -0.4572
v  -0.6231 15.8389 0.1688
v  -0.6269 15.8489 0.1698
v  -0.6204 15.8489 -0.1660
v  -0.4581 15.8489 -0.4600
v  -0.4507 15.8389 0.4547
v  -0.1648 15.8389 0.6271
v  -0.1658 15.8489 0.6309
v  -0.4534 15.8489 0.4574
v  0.1690 15.8389 0.6207
v  0.4613 15.8389 0.4594
v  0.4640 15.8489 0.4621
v  0.1700 15.8489 0.6244
v  0.6226 15.8389 0.1671
v  0.6290 15.8389 -0.1667
v  0.6328 15.8489 -0.1677
v  0.6263 15.8489 0.1681
v  0.4566 15.8389 -0.4525
v  0.1707 15.8389 -0.6250
v  0.1717 15.8489 -0.6288
v  0.4593 15.8489 -0.4553
v  -0.1631 15.8389 -0.6186
v  -0.1641 15.8489 -0.6223
v  -0.6316 15.8522 -0.1690
v  -0.4664 15.8522 -0.4683
v  -0.6382 15.8522 0.1729
v  -0.6494 15.8474 0.1759
v  -0.6427 15.8474 -0.1719
v  -0.4746 15.8474 -0.4765
v  -0.4616 15.8522 0.4656
v  -0.1688 15.8522 0.6422
v  -0.1719 15.8474 0.6534
v  -0.4697 15.8474 0.4737
v  0.1730 15.8522 0.6356
v  0.4723 15.8522 0.4704
v  0.4805 15.8474 0.4786
v  0.1760 15.8474 0.6468
v  0.6375 15.8522 0.1711
v  0.6440 15.8522 -0.1707
v  0.6553 15.8474 -0.1737
v  0.6486 15.8474 0.1741
v  0.4675 15.8522 -0.4634
v  0.1747 15.8522 -0.6400
v  0.1777 15.8474 -0.6513
v  0.4756 15.8474 -0.4716
v  -0.1671 15.8522 -0.6335
v  -0.1701 15.8474 -0.6446
v  -0.6465 15.8331 -0.1729
v  -0.4774 15.8331 -0.4793
v  -0.6532 15.8331 0.1769
v  -0.6532 15.8156 0.1769
v  -0.6465 15.8156 -0.1729
v  -0.4774 15.8156 -0.4793
v  -0.4725 15.8331 0.4765
v  -0.1729 15.8331 0.6572
v  -0.1729 15.8156 0.6572
v  -0.4725 15.8156 0.4765
v  0.1770 15.8331 0.6505
v  0.4833 15.8331 0.4814
v  0.4833 15.8156 0.4814
v  0.1770 15.8156 0.6505
v  0.6523 15.8331 0.1751
v  0.6591 15.8331 -0.1747
v  0.6591 15.8156 -0.1747
v  0.6523 15.8156 0.1751
v  0.4783 15.8331 -0.4743
v  0.1788 15.8331 -0.6551
v  0.1788 15.8156 -0.6551
v  0.4783 15.8156 -0.4743
v  -0.1711 15.8331 -0.6483
v  -0.1711 15.8156 -0.6483
v  -0.6465 15.8014 -0.1729
v  -0.4774 15.8014 -0.4793
v  -0.6532 15.8014 0.1769
v  -0.6607 15.7918 0.1789
v  -0.6539 15.7918 -0.1749
v  -0.4829 15.7918 -0.4847
v  -0.4725 15.8014 0.4765
v  -0.1729 15.8014 0.6572
v  -0.1749 15.7918 0.6647
v  -0.4779 15.7918 0.4819
v  0.1770 15.8014 0.6505
v  0.4833 15.8014 0.4814
v  0.4888 15.7918 0.4869
v  0.1789 15.7918 0.6579
v  0.6523 15.8014 0.1751
v  0.6591 15.8014 -0.1747
v  0.6666 15.7918 -0.1768
v  0.6598 15.7918 0.1771
v  0.4783 15.8014 -0.4743
v  0.1788 15.8014 -0.6551
v  0.1808 15.7918 -0.6626
v  0.4838 15.7918 -0.4798
v  -0.1711 15.8014 -0.6483
v  -0.1731 15.7918 -0.6558
v  -0.6832 15.7886 0.1849
v  -0.6762 15.7886 -0.1809
v  -0.7160 15.7886 0.1937
v  -0.7087 15.7886 -0.1896
v  -0.5234 15.7886 -0.5253
v  -0.4993 15.7886 -0.5012
v  -0.1809 15.7886 0.6872
v  -0.4942 15.7886 0.4982
v  -0.1897 15.7886 0.7201
v  -0.5180 15.7886 0.5220
v  0.5052 15.7886 0.5034
v  0.1849 15.7886 0.6802
v  0.5293 15.7886 0.5274
v  0.1936 15.7886 0.7127
v  0.6891 15.7886 -0.1828
v  0.6821 15.7886 0.1830
v  0.7219 15.7886 -0.1916
v  0.7146 15.7886 0.1917
v  0.1868 15.7886 -0.6851
v  0.5001 15.7886 -0.4961
v  0.1956 15.7886 -0.7179
v  0.5239 15.7886 -0.5199
v  -0.1790 15.7886 -0.6780
v  -0.1877 15.7886 -0.7105
v  -0.8425 15.7933 0.2276
v  -0.8491 15.8072 0.2294
v  -0.8404 15.8072 -0.2249
v  -0.8338 15.7933 -0.2231
v  -0.8491 16.1883 0.2294
v  -0.8404 16.1883 -0.2249
v  -0.6208 16.1883 -0.6227
v  -0.6208 15.8072 -0.6227
v  -0.6159 15.7933 -0.6178
v  -0.2236 15.7933 0.8465
v  -0.2254 15.8072 0.8531
v  -0.6144 15.8072 0.6184
v  -0.6096 15.7933 0.6136
v  -0.2254 16.1883 0.8531
v  -0.6144 16.1883 0.6184
v  0.6218 15.7933 0.6199
v  0.6267 15.8072 0.6248
v  0.2289 15.8072 0.8444
v  0.2271 15.7933 0.8378
v  0.6267 16.1883 0.6248
v  0.2289 16.1883 0.8444
v  0.8483 15.7933 -0.2255
v  0.8550 15.8072 -0.2272
v  0.8463 15.8072 0.2270
v  0.8397 15.7933 0.2253
v  0.8550 16.1883 -0.2272
v  0.8463 16.1883 0.2270
v  0.2295 15.7933 -0.8443
v  0.2313 15.8072 -0.8510
v  0.6203 15.8072 -0.6163
v  0.6155 15.7933 -0.6115
v  0.2313 16.1883 -0.8510
v  0.6203 16.1883 -0.6163
v  -0.2230 15.8072 -0.8423
v  -0.2213 15.7933 -0.8357
v  -0.2230 16.1883 -0.8423
v  -0.8140 15.7886 -0.2178
v  -0.8225 15.7886 0.2222
v  -0.6013 15.7886 -0.6032
v  -0.5791 15.7886 -0.5810
v  -0.7840 15.7886 -0.2098
v  -0.7922 15.7886 0.2141
v  -0.5951 15.7886 0.5991
v  -0.2182 15.7886 0.8265
v  -0.5732 15.7886 0.5772
v  -0.2101 15.7886 0.7962
v  0.2218 15.7886 0.8180
v  0.6072 15.7886 0.6053
v  0.2138 15.7886 0.7880
v  0.5850 15.7886 0.5831
v  0.8199 15.7886 0.2200
v  0.8284 15.7886 -0.2201
v  0.7899 15.7886 0.2119
v  0.7981 15.7886 -0.2120
v  0.6010 15.7886 -0.5970
v  0.2241 15.7886 -0.8244
v  0.5790 15.7886 -0.5750
v  0.2160 15.7886 -0.7940
v  -0.2160 15.7886 -0.8159
v  -0.2079 15.7886 -0.7859
v  -0.7468 15.7886 -0.1998
v  -0.7545 15.7886 0.2040
v  -0.5516 15.7886 -0.5534
v  -0.5459 15.7886 0.5499
v  -0.2000 15.7886 0.7585
v  0.2038 15.7886 0.7508
v  0.5575 15.7886 0.5556
v  0.7526 15.7886 0.2020
v  0.7604 15.7886 -0.2019
v  0.5518 15.7886 -0.5478
v  0.2059 15.7886 -0.7564
v  -0.1979 15.7886 -0.7486
v  -0.8491 18.4062 0.2294
v  -0.8404 18.4062 -0.2249
v  -0.8404 17.2946 -0.2249
v  -0.8491 17.2946 0.2294
v  -0.6208 18.4062 -0.6227
v  -0.6208 17.2946 -0.6227
v  -0.2254 18.4062 0.8531
v  -0.6144 18.4062 0.6184
v  -0.6144 17.2946 0.6184
v  -0.2254 17.2946 0.8531
v  0.6267 18.4062 0.6248
v  0.2289 18.4062 0.8444
v  0.2289 17.2946 0.8444
v  0.6267 17.2946 0.6248
v  0.8550 18.4062 -0.2272
v  0.8463 18.4062 0.2270
v  0.8463 17.2946 0.2270
v  0.8550 17.2946 -0.2272
v  0.2313 18.4062 -0.8510
v  0.6203 18.4062 -0.6163
v  0.6203 17.2946 -0.6163
v  0.2313 17.2946 -0.8510
v  -0.2230 18.4062 -0.8423
v  -0.2230 17.2946 -0.8423
v  -0.8404 18.8032 -0.2249
v  -0.6208 18.8032 -0.6227
v  -0.8491 18.8032 0.2294
v  -0.8386 18.8331 0.2266
v  -0.8300 18.8331 -0.2221
v  -0.6131 18.8331 -0.6150
v  -0.6144 18.8032 0.6184
v  -0.2254 18.8032 0.8531
v  -0.2225 18.8331 0.8426
v  -0.6068 18.8331 0.6108
v  0.2289 18.8032 0.8444
v  0.6267 18.8032 0.6248
v  0.6190 18.8331 0.6171
v  0.2261 18.8331 0.8340
v  0.8463 18.8032 0.2270
v  0.8550 18.8032 -0.2272
v  0.8445 18.8331 -0.2244
v  0.8358 18.8331 0.2242
v  0.6203 18.8032 -0.6163
v  0.2313 18.8032 -0.8510
v  0.2284 18.8331 -0.8405
v  0.6127 18.8331 -0.6087
v  -0.2230 18.8032 -0.8423
v  -0.2202 18.8331 -0.8318
v  -0.7987 18.8430 -0.2137
v  -0.5900 18.8430 -0.5918
v  -0.8070 18.8430 0.2181
v  -0.6657 18.8430 0.1802
v  -0.6577 18.8430 -0.2347
v  -0.5104 18.8430 -0.5123
v  -0.5839 18.8430 0.5879
v  -0.2141 18.8430 0.8110
v  -0.1849 18.8430 0.7023
v  -0.4513 18.8430 0.5356
v  0.2177 18.8430 0.8027
v  0.5959 18.8430 0.5940
v  0.4924 18.8430 0.4906
v  0.1291 18.8430 0.6911
v  0.8046 18.8430 0.2159
v  0.8129 18.8430 -0.2160
v  0.7042 18.8430 -0.1868
v  0.6930 18.8430 0.1272
v  0.5898 18.8430 -0.5858
v  0.2200 18.8430 -0.8089
v  0.1821 18.8430 -0.6676
v  0.5375 18.8430 -0.4532
v  -0.2119 18.8430 -0.8006
v  -0.2329 18.8430 -0.6596
v  -0.1146 18.8430 0.4398
v  0.2438 18.8430 0.2420
v  0.0029 18.8430 0.0011
v  -0.3261 18.8430 0.0892
v  0.4417 18.8430 -0.1165
v  0.0911 18.8430 -0.3280
v  -0.3182 18.8430 -0.3201
v  0.5103 18.3036 0.6896
v  0.5150 18.3065 0.6983
v  0.5547 18.3605 0.6586
v  0.5491 18.3557 0.6508
v  0.6780 18.3065 0.8614
v  0.7177 18.3605 0.8217
v  0.7706 18.3821 0.7688
v  0.6076 18.3821 0.6057
v  0.6009 18.3766 0.5990
v  0.5103 18.1578 0.6896
v  0.5150 18.1552 0.6983
v  0.5018 18.2309 0.7116
v  0.4974 18.2307 0.7025
v  0.6780 18.1552 0.8614
v  0.6648 18.2309 0.8746
v  0.6009 18.0849 0.5990
v  0.6076 18.0796 0.6057
v  0.5547 18.1012 0.6586
v  0.5491 18.1058 0.6508
v  0.7706 18.0796 0.7688
v  0.7177 18.1012 0.8217
v  0.6915 18.1578 0.5085
v  0.7002 18.1552 0.5131
v  0.6605 18.1012 0.5528
v  0.6527 18.1058 0.5473
v  0.8632 18.1552 0.6762
v  0.8235 18.1012 0.7158
v  0.6915 18.3036 0.5085
v  0.7002 18.3065 0.5131
v  0.7134 18.2309 0.4999
v  0.7044 18.2307 0.4955
v  0.8632 18.3065 0.6762
v  0.8765 18.2309 0.6629
v  0.6605 18.3605 0.5528
v  0.6527 18.3557 0.5473
v  0.8235 18.3605 0.7158
v  1.9171 18.2678 2.1004
v  2.1326 18.1519 2.3159
v  2.1815 18.2024 2.2854
v  1.9591 18.3209 2.0630
v  2.3398 18.0346 2.5231
v  2.3957 18.0824 2.4996
v  2.4551 18.1016 2.4532
v  2.2381 18.2226 2.2362
v  2.0129 18.3422 2.0110
v  1.9106 18.1190 2.0939
v  2.1067 18.0104 2.2901
v  2.1064 18.0812 2.3162
v  1.9006 18.1934 2.1104
v  2.2944 17.9005 2.4777
v  2.3039 17.9676 2.5136
v  2.0000 18.0447 1.9981
v  2.1864 17.9397 2.1846
v  2.1372 17.9599 2.2412
v  1.9480 18.0659 2.0519
v  2.3643 17.8335 2.3624
v  2.3179 17.8527 2.4218
v  2.4796 17.9005 2.2925
v  2.4237 17.8527 2.3160
v  2.2430 17.9599 2.1353
v  2.2920 18.0104 2.1049
v  2.0538 18.0659 1.9461
v  2.0958 18.1190 1.9087
v  2.5250 18.0346 2.3379
v  2.5155 17.9676 2.3020
v  2.3181 18.0812 2.1045
v  2.3178 18.1519 2.1307
v  2.1123 18.1934 1.8987
v  2.1023 18.2678 1.9152
v  2.5015 18.0824 2.3938
v  2.2873 18.2024 2.1796
v  2.0649 18.3209 1.9572
v  1.8563 18.3605 1.9603
v  1.8167 18.3065 2.0000
v  1.9093 18.3821 1.9074
v  1.7209 18.3821 1.7190
v  1.6680 18.3605 1.7719
v  1.6283 18.3065 1.8116
v  1.8034 18.2309 2.0132
v  1.8167 18.1552 2.0000
v  1.6151 18.2309 1.8249
v  1.6283 18.1552 1.8116
v  1.8563 18.1012 1.9603
v  1.9093 18.0796 1.9074
v  1.6680 18.1012 1.7719
v  1.7209 18.0796 1.7190
v  1.9622 18.1012 1.8545
v  2.0019 18.1552 1.8148
v  1.7738 18.1012 1.6661
v  1.8135 18.1552 1.6264
v  2.0151 18.2309 1.8016
v  2.0019 18.3065 1.8148
v  1.8267 18.2309 1.6132
v  1.8135 18.3065 1.6264
v  1.9622 18.3605 1.8545
v  1.7738 18.3605 1.6661
v  2.4154 17.9918 2.5987
v  2.4739 18.0387 2.5778
v  2.4242 17.9862 2.6035
v  2.4816 18.0319 2.5832
v  2.5408 18.0502 2.5389
v  2.5343 18.0574 2.5324
v  2.3629 17.8604 2.5462
v  2.3759 17.9261 2.5857
v  2.3721 17.8580 2.5514
v  2.3852 17.9221 2.5904
v  2.4292 17.7948 2.4273
v  2.3838 17.8136 2.4877
v  2.4367 17.7939 2.4348
v  2.3924 17.8122 2.4940
v  2.5533 17.8580 2.3703
v  2.4959 17.8122 2.3905
v  2.4896 17.8136 2.3819
v  2.5481 17.8604 2.3610
v  2.6053 17.9862 2.4223
v  2.5922 17.9221 2.3834
v  2.5876 17.9261 2.3740
v  2.6006 17.9918 2.4135
v  2.5851 18.0319 2.4797
v  2.5797 18.0387 2.4720
v  1.1886 18.3605 1.2926
v  1.1489 18.3065 1.3323
v  1.2415 18.3821 1.2397
v  1.1357 18.2309 1.3455
v  1.1489 18.1552 1.3323
v  1.1886 18.1012 1.2926
v  1.2415 18.0796 1.2397
v  1.2945 18.1012 1.1868
v  1.3341 18.1552 1.1471
v  1.3474 18.2309 1.1338
v  1.3341 18.3065 1.1471
v  1.2945 18.3605 1.1868
v  2.4846 18.0231 2.5793
v  2.5398 18.0402 2.5380
v  2.4310 17.9805 2.5981
v  2.4323 17.9775 2.5872
v  2.4821 18.0171 2.5698
v  2.5334 18.0329 2.5315
v  2.3945 17.9207 2.5857
v  2.3822 17.8610 2.5493
v  2.3871 17.8666 2.5420
v  2.3985 17.9221 2.5758
v  2.4010 17.8183 2.4957
v  2.4423 17.8013 2.4404
v  2.4428 17.8112 2.4410
v  2.4045 17.8271 2.4922
v  2.4975 17.8183 2.3991
v  2.5512 17.8610 2.3803
v  2.5439 17.8666 2.3852
v  2.4941 17.8271 2.4026
v  2.5876 17.9207 2.3927
v  2.5999 17.9805 2.4291
v  2.5891 17.9775 2.4305
v  2.5777 17.9221 2.3966
v  2.5812 18.0231 2.4827
v  2.5717 18.0171 2.4802
v  2.4733 18.0186 2.5587
v  2.5232 18.0341 2.5214
v  2.4249 17.9801 2.5757
v  2.3488 18.0214 2.4996
v  2.3953 18.0600 2.4807
v  2.4444 18.0754 2.4425
v  2.3919 17.9261 2.5645
v  2.3808 17.8721 2.5316
v  2.3102 17.9134 2.4610
v  2.3186 17.9674 2.4912
v  2.3978 17.8335 2.4831
v  2.4351 17.8181 2.4332
v  2.3673 17.8595 2.3654
v  2.3292 17.8749 2.4145
v  2.4850 17.8335 2.3959
v  2.5335 17.8721 2.3789
v  2.4629 17.9134 2.3083
v  2.4164 17.8749 2.3273
v  2.5664 17.9261 2.3900
v  2.5776 17.9801 2.4230
v  2.5015 18.0214 2.3469
v  2.4931 17.9674 2.3167
v  2.5606 18.0186 2.4714
v  2.4825 18.0600 2.3934
v  2.1850 18.1733 2.2704
v  2.2318 18.1887 2.2299
v  2.1444 18.1347 2.2952
v  1.9324 18.2466 2.0832
v  1.9671 18.2852 2.0524
v  2.0115 18.3006 2.0096
v  2.1225 18.0807 2.2951
v  2.1224 18.0267 2.2732
v  1.9269 18.1387 2.0777
v  1.9187 18.1927 2.0914
v  2.1472 17.9882 2.2326
v  2.1877 17.9727 2.1858
v  2.0005 18.0847 1.9986
v  1.9576 18.1001 2.0430
v  2.2345 17.9882 2.1453
v  2.2751 18.0267 2.1205
v  2.0796 18.1387 1.9250
v  2.0449 18.1001 1.9557
v  2.2970 18.0807 2.1206
v  2.2971 18.1347 2.1425
v  2.0851 18.2466 1.9305
v  2.0932 18.1927 1.9168
v  2.2723 18.1733 2.1831
v  2.0543 18.2852 1.9652
v  1.8661 18.3225 1.9515
v  1.9097 18.3379 1.9079
v  1.8334 18.2840 1.9842
v  1.6460 18.2840 1.7968
v  1.6787 18.3225 1.7641
v  1.7223 18.3379 1.7205
v  1.8225 18.2300 1.9951
v  1.8334 18.1760 1.9842
v  1.6460 18.1760 1.7968
v  1.6351 18.2300 1.8077
v  1.8661 18.1374 1.9515
v  1.9097 18.1220 1.9079
v  1.7223 18.1220 1.7205
v  1.6787 18.1374 1.7641
v  1.9534 18.1374 1.8642
v  1.9861 18.1760 1.8315
v  1.7987 18.1760 1.6441
v  1.7660 18.1374 1.6768
v  1.9970 18.2300 1.8206
v  1.9861 18.2840 1.8315
v  1.7987 18.2840 1.6441
v  1.8096 18.2300 1.6332
v  1.9534 18.3225 1.8642
v  1.7660 18.3225 1.6768
v  1.2014 18.3225 1.2868
v  1.2451 18.3379 1.2432
v  1.1687 18.2840 1.3195
v  0.6991 18.2840 0.8500
v  0.7319 18.3225 0.8172
v  0.7755 18.3379 0.7736
v  1.1578 18.2300 1.3305
v  1.1687 18.1760 1.3195
v  0.6991 18.1760 0.8500
v  0.6882 18.2300 0.8609
v  1.2014 18.1374 1.2868
v  1.2451 18.1220 1.2432
v  0.7755 18.1220 0.7736
v  0.7319 18.1374 0.8172
v  1.2887 18.1374 1.1996
v  1.3214 18.1760 1.1668
v  0.8518 18.1760 0.6973
v  0.8191 18.1374 0.7300
v  1.3323 18.2300 1.1559
v  1.3214 18.2840 1.1668
v  0.8518 18.2840 0.6973
v  0.8627 18.2300 0.6864
v  1.2887 18.3225 1.1996
v  0.8191 18.3225 0.7300
v  0.5675 18.3225 0.6529
v  0.6111 18.3379 0.6092
v  0.5348 18.2840 0.6856
v  0.5238 18.2868 0.6787
v  0.5574 18.3273 0.6451
v  0.6022 18.3435 0.6003
v  0.5239 18.2300 0.6965
v  0.5348 18.1760 0.6856
v  0.5238 18.1734 0.6787
v  0.5126 18.2301 0.6899
v  0.5675 18.1374 0.6529
v  0.6111 18.1220 0.6092
v  0.6022 18.1167 0.6003
v  0.5574 18.1329 0.6451
v  0.6547 18.1374 0.5656
v  0.6875 18.1760 0.5329
v  0.6806 18.1734 0.5219
v  0.6470 18.1329 0.5555
v  0.6984 18.2300 0.5220
v  0.6875 18.2840 0.5329
v  0.6806 18.2868 0.5219
v  0.6917 18.2301 0.5107
v  0.6547 18.3225 0.5656
v  0.6470 18.3273 0.5555
v  0.5507 18.3415 0.6453
v  0.5145 18.2952 0.6815
v  0.5989 18.3600 0.5971
v  0.6472 18.3415 0.5488
v  0.6834 18.2952 0.5126
v  0.6955 18.2304 0.5005
v  0.6834 18.1656 0.5126
v  0.6472 18.1193 0.5488
v  0.5989 18.1008 0.5971
v  0.5507 18.1193 0.6453
v  0.5145 18.1656 0.6815
v  0.5024 18.2304 0.6936
# 1173 vertices

vt 0.0880 0.6820 0.0000
vt 0.0795 0.6753 0.0000
vt 0.1200 0.6420 0.0000
vt 0.1268 0.6476 0.0000
vt 0.0709 0.6686 0.0000
vt 0.1132 0.6355 0.0000
vt 0.1570 0.6078 0.0000
vt 0.1622 0.6138 0.0000
vt 0.1673 0.6194 0.0000
vt 0.5353 0.6277 0.0000
vt 0.5404 0.6223 0.0000
vt 0.5882 0.6575 0.0000
vt 0.5808 0.6626 0.0000
vt 0.5456 0.6163 0.0000
vt 0.5956 0.6516 0.0000
vt 0.6455 0.6942 0.0000
vt 0.6355 0.6997 0.0000
vt 0.6256 0.7053 0.0000
vt 0.4409 0.5949 0.0000
vt 0.4432 0.5893 0.0000
vt 0.4918 0.6011 0.0000
vt 0.4883 0.6067 0.0000
vt 0.4455 0.5833 0.0000
vt 0.4954 0.5951 0.0000
vt 0.3486 0.5853 0.0000
vt 0.3485 0.5797 0.0000
vt 0.3956 0.5824 0.0000
vt 0.3945 0.5880 0.0000
vt 0.3484 0.5738 0.0000
vt 0.3967 0.5764 0.0000
vt 0.2570 0.5916 0.0000
vt 0.2546 0.5861 0.0000
vt 0.3015 0.5808 0.0000
vt 0.3028 0.5864 0.0000
vt 0.2521 0.5802 0.0000
vt 0.3002 0.5748 0.0000
vt 0.2076 0.5962 0.0000
vt 0.2113 0.6017 0.0000
vt 0.2038 0.5902 0.0000
vt 0.1722 0.6242 0.0000
vt 0.1337 0.6521 0.0000
vt 0.1791 0.6299 0.0000
vt 0.1433 0.6571 0.0000
vt 0.1065 0.6885 0.0000
vt 0.0972 0.6852 0.0000
vt 0.6153 0.7073 0.0000
vt 0.5734 0.6665 0.0000
vt 0.6049 0.7093 0.0000
vt 0.5632 0.6710 0.0000
vt 0.5233 0.6382 0.0000
vt 0.5304 0.6324 0.0000
vt 0.4849 0.6116 0.0000
vt 0.4800 0.6178 0.0000
vt 0.4355 0.6061 0.0000
vt 0.4386 0.5999 0.0000
vt 0.3933 0.5930 0.0000
vt 0.3918 0.5993 0.0000
vt 0.3486 0.5967 0.0000
vt 0.3485 0.5903 0.0000
vt 0.3039 0.5914 0.0000
vt 0.3055 0.5976 0.0000
vt 0.2625 0.6028 0.0000
vt 0.2593 0.5966 0.0000
vt 0.2147 0.6066 0.0000
vt 0.2197 0.6127 0.0000
vt 0.2037 0.6478 0.0000
vt 0.2369 0.6384 0.0000
vt 0.2438 0.6683 0.0000
vt 0.1886 0.6695 0.0000
vt 0.2805 0.6293 0.0000
vt 0.3041 0.6595 0.0000
vt 0.3274 0.6727 0.0000
vt 0.2498 0.7047 0.0000
vt 0.1512 0.7019 0.0000
vt 0.4988 0.6565 0.0000
vt 0.5155 0.6811 0.0000
vt 0.4576 0.6756 0.0000
vt 0.4641 0.6445 0.0000
vt 0.5555 0.7194 0.0000
vt 0.4519 0.7134 0.0000
vt 0.3951 0.6622 0.0000
vt 0.4189 0.6326 0.0000
vt 0.3493 0.6159 0.0000
vt 0.3783 0.6226 0.0000
vt 0.3494 0.6419 0.0000
vt 0.3205 0.6213 0.0000
vt 0.0524 0.6528 0.0000
vt 0.1020 0.5660 0.0000
vt 0.1062 0.6286 0.0000
vt 0.0617 0.6607 0.0000
vt 0.1502 0.5468 0.0000
vt 0.1519 0.6014 0.0000
vt 0.5572 0.5560 0.0000
vt 0.6106 0.5836 0.0000
vt 0.6032 0.6452 0.0000
vt 0.5508 0.6099 0.0000
vt 0.6662 0.6809 0.0000
vt 0.6558 0.6876 0.0000
vt 0.4526 0.5305 0.0000
vt 0.5045 0.5396 0.0000
vt 0.4990 0.5888 0.0000
vt 0.4479 0.5771 0.0000
vt 0.3513 0.5229 0.0000
vt 0.4017 0.5251 0.0000
vt 0.3978 0.5702 0.0000
vt 0.3483 0.5676 0.0000
vt 0.2507 0.5271 0.0000
vt 0.3010 0.5234 0.0000
vt 0.2990 0.5687 0.0000
vt 0.2496 0.5740 0.0000
vt 0.2001 0.5344 0.0000
vt 0.2001 0.5840 0.0000
vt 0.0524 0.1234 0.0000
vt 0.1098 0.2188 0.0000
vt 0.1039 0.3926 0.0000
vt 0.0524 0.3881 0.0000
vt 0.1636 0.2453 0.0000
vt 0.1554 0.3962 0.0000
vt 0.5719 0.2585 0.0000
vt 0.6205 0.2398 0.0000
vt 0.6176 0.4120 0.0000
vt 0.5660 0.4075 0.0000
vt 0.6716 0.1540 0.0000
vt 0.6689 0.4175 0.0000
vt 0.4702 0.2763 0.0000
vt 0.5213 0.2701 0.0000
vt 0.5139 0.4050 0.0000
vt 0.4620 0.4036 0.0000
vt 0.3693 0.2796 0.0000
vt 0.4196 0.2794 0.0000
vt 0.4109 0.4025 0.0000
vt 0.3603 0.4014 0.0000
vt 0.2681 0.2712 0.0000
vt 0.3190 0.2770 0.0000
vt 0.3097 0.4004 0.0000
vt 0.2587 0.3994 0.0000
vt 0.2163 0.2617 0.0000
vt 0.2072 0.3982 0.0000
vt 0.1893 0.1699 0.0000
vt 0.1440 0.1351 0.0000
vt 0.1496 0.1320 0.0000
vt 0.1931 0.1663 0.0000
vt 0.1004 0.0921 0.0000
vt 0.1070 0.0912 0.0000
vt 0.1136 0.0903 0.0000
vt 0.1551 0.1298 0.0000
vt 0.1967 0.1633 0.0000
vt 0.6300 0.1185 0.0000
vt 0.5924 0.1543 0.0000
vt 0.5873 0.1507 0.0000
vt 0.6243 0.1167 0.0000
vt 0.5520 0.1828 0.0000
vt 0.5484 0.1789 0.0000
vt 0.5450 0.1756 0.0000
vt 0.5825 0.1478 0.0000
vt 0.6186 0.1148 0.0000
vt 0.5079 0.1995 0.0000
vt 0.5053 0.1956 0.0000
vt 0.4624 0.2082 0.0000
vt 0.4606 0.2043 0.0000
vt 0.4589 0.2009 0.0000
vt 0.5029 0.1921 0.0000
vt 0.4173 0.2127 0.0000
vt 0.4164 0.2088 0.0000
vt 0.3724 0.2133 0.0000
vt 0.3724 0.2094 0.0000
vt 0.3724 0.2060 0.0000
vt 0.4155 0.2054 0.0000
vt 0.3275 0.2104 0.0000
vt 0.3284 0.2065 0.0000
vt 0.2821 0.2033 0.0000
vt 0.2839 0.1994 0.0000
vt 0.2856 0.1961 0.0000
vt 0.3293 0.2031 0.0000
vt 0.2357 0.1912 0.0000
vt 0.2383 0.1874 0.0000
vt 0.2408 0.1841 0.0000
vt 0.1622 0.1270 0.0000
vt 0.2015 0.1595 0.0000
vt 0.1244 0.0884 0.0000
vt 0.1353 0.0866 0.0000
vt 0.1885 0.1265 0.0000
vt 0.2104 0.1519 0.0000
vt 0.5761 0.1441 0.0000
vt 0.6093 0.1114 0.0000
vt 0.5404 0.1714 0.0000
vt 0.5314 0.1636 0.0000
vt 0.5514 0.1412 0.0000
vt 0.6000 0.1080 0.0000
vt 0.4996 0.1878 0.0000
vt 0.4567 0.1967 0.0000
vt 0.4471 0.1821 0.0000
vt 0.4958 0.1737 0.0000
vt 0.4144 0.2011 0.0000
vt 0.3724 0.2016 0.0000
vt 0.3725 0.1950 0.0000
vt 0.4034 0.1903 0.0000
vt 0.3304 0.1988 0.0000
vt 0.2878 0.1918 0.0000
vt 0.2978 0.1776 0.0000
vt 0.3417 0.1886 0.0000
vt 0.2441 0.1799 0.0000
vt 0.2479 0.1655 0.0000
vt 0.4916 0.1406 0.0000
vt 0.4233 0.1477 0.0000
vt 0.3983 0.1329 0.0000
vt 0.4873 0.0982 0.0000
vt 0.3730 0.1676 0.0000
vt 0.3225 0.1442 0.0000
vt 0.2515 0.1314 0.0000
vt 0.2550 0.0874 0.0000
vt 0.1363 0.1404 0.0000
vt 0.0891 0.0987 0.0000
vt 0.1838 0.1754 0.0000
vt 0.1774 0.1822 0.0000
vt 0.1274 0.1474 0.0000
vt 0.0777 0.1053 0.0000
vt 0.5993 0.1603 0.0000
vt 0.5571 0.1886 0.0000
vt 0.6398 0.1263 0.0000
vt 0.6496 0.1340 0.0000
vt 0.6073 0.1679 0.0000
vt 0.5632 0.1957 0.0000
vt 0.5117 0.2053 0.0000
vt 0.4649 0.2140 0.0000
vt 0.5161 0.2123 0.0000
vt 0.4678 0.2211 0.0000
vt 0.4185 0.2185 0.0000
vt 0.3724 0.2192 0.0000
vt 0.4200 0.2256 0.0000
vt 0.3723 0.2262 0.0000
vt 0.3262 0.2162 0.0000
vt 0.2795 0.2090 0.0000
vt 0.3246 0.2232 0.0000
vt 0.2764 0.2159 0.0000
vt 0.2318 0.1968 0.0000
vt 0.2272 0.2036 0.0000
vt 0.1181 0.1553 0.0000
vt 0.0651 0.1143 0.0000
vt 0.1708 0.1897 0.0000
vt 0.6157 0.1764 0.0000
vt 0.5695 0.2035 0.0000
vt 0.6606 0.1440 0.0000
vt 0.5207 0.2198 0.0000
vt 0.4708 0.2287 0.0000
vt 0.4215 0.2332 0.0000
vt 0.3723 0.2338 0.0000
vt 0.3231 0.2307 0.0000
vt 0.2733 0.2234 0.0000
vt 0.2225 0.2111 0.0000
vt 0.1583 0.6643 0.0000
vt 0.1905 0.6382 0.0000
vt 0.1288 0.6952 0.0000
vt 0.5473 0.6777 0.0000
vt 0.5802 0.7144 0.0000
vt 0.5121 0.6467 0.0000
vt 0.4723 0.6270 0.0000
vt 0.4307 0.6155 0.0000
vt 0.3896 0.6088 0.0000
vt 0.3490 0.6062 0.0000
vt 0.3085 0.6071 0.0000
vt 0.2681 0.6120 0.0000
vt 0.2279 0.6216 0.0000
vt 19.2548 10.5697 1.0000
vt 21.3942 10.5697 1.0000
vt 23.5337 10.5697 1.0000
vt -2.1394 10.5697 1.0000
vt 0.0000 10.5697 1.0000
vt 2.1394 10.5697 1.0000
vt 4.2788 10.5697 1.0000
vt 6.4183 10.5697 1.0000
vt 8.5577 10.5697 1.0000
vt 10.6971 10.5697 1.0000
vt 12.8365 10.5697 1.0000
vt 14.9760 10.5697 1.0000
vt 17.1154 10.5697 1.0000
vt 20.3245 10.5697 1.0000
vt 19.0171 10.5697 1.0000
vt 2.3771 10.5697 1.0000
vt 1.0697 10.5697 1.0000
vt 6.8194 10.5697 1.0000
vt 9.0926 10.5697 1.0000
vt 14.5748 10.5697 1.0000
vt 12.3017 10.5697 1.0000
vt 8.0228 10.5697 1.0000
vt 9.2708 10.5697 1.0000
vt 13.3714 10.5697 1.0000
vt 0.9255 0.0000 1.0000
vt 0.9255 0.0060 1.0000
vt 0.8413 0.0060 1.0000
vt 0.8413 0.1565 1.0000
vt 0.9255 0.0120 1.0000
vt 0.8413 0.1134 1.0000
vt 0.7572 0.1134 1.0000
vt 0.7572 0.0060 1.0000
vt 0.7572 0.1565 1.0000
vt 0.0841 0.1565 1.0000
vt 0.0841 0.0060 1.0000
vt 0.0000 0.0060 1.0000
vt 0.0000 0.1565 1.0000
vt 0.0841 0.1134 1.0000
vt 0.0000 0.1134 1.0000
vt -0.0841 0.0120 1.0000
vt -0.0841 0.0060 1.0000
vt -0.0841 0.0000 1.0000
vt 0.2524 0.1565 1.0000
vt 0.2524 0.0060 1.0000
vt 0.1683 0.0060 1.0000
vt 0.1683 0.1565 1.0000
vt 0.2524 0.1134 1.0000
vt 0.1683 0.1134 1.0000
vt 0.4207 0.1565 1.0000
vt 0.4207 0.0060 1.0000
vt 0.3365 0.0060 1.0000
vt 0.3365 0.1565 1.0000
vt 0.4207 0.1134 1.0000
vt 0.3365 0.1134 1.0000
vt 0.5889 0.1565 1.0000
vt 0.5889 0.0060 1.0000
vt 0.5048 0.0060 1.0000
vt 0.5048 0.1565 1.0000
vt 0.5889 0.1134 1.0000
vt 0.5048 0.1134 1.0000
vt 0.6731 0.0060 1.0000
vt 0.6731 0.1565 1.0000
vt 0.6731 0.1134 1.0000
vt 0.9255 0.8922 1.0000
vt 0.9255 1.0603 1.0000
vt 0.8413 1.0603 1.0000
vt 0.8413 0.9271 1.0000
vt 0.9255 1.2283 1.0000
vt 0.8413 1.1878 1.0000
vt 0.7572 1.1878 1.0000
vt 0.7572 1.0603 1.0000
vt 0.7572 0.9271 1.0000
vt 0.0841 0.9271 1.0000
vt 0.0841 1.0603 1.0000
vt 0.0000 1.0603 1.0000
vt 0.0000 0.9271 1.0000
vt 0.0841 1.1878 1.0000
vt 0.0000 1.1878 1.0000
vt -0.0841 1.2283 1.0000
vt -0.0841 1.0603 1.0000
vt -0.0841 0.8922 1.0000
vt 0.2524 0.9271 1.0000
vt 0.2524 1.0603 1.0000
vt 0.1683 1.0603 1.0000
vt 0.1683 0.9271 1.0000
vt 0.2524 1.1878 1.0000
vt 0.1683 1.1878 1.0000
vt 0.4207 1.1878 1.0000
vt 0.3365 1.1878 1.0000
vt 0.3365 1.0603 1.0000
vt 0.4207 1.0603 1.0000
vt 0.3365 0.9271 1.0000
vt 0.4207 0.9271 1.0000
vt 0.5889 1.1878 1.0000
vt 0.5048 1.1878 1.0000
vt 0.5048 1.0603 1.0000
vt 0.5889 1.0603 1.0000
vt 0.5048 0.9271 1.0000
vt 0.5889 0.9271 1.0000
vt 0.6731 1.1878 1.0000
vt 0.6731 1.0603 1.0000
vt 0.6731 0.9271 1.0000
vt 0.8413 0.8639 1.0000
vt 0.9255 0.8639 1.0000
vt 0.7572 0.8639 1.0000
vt 0.7572 0.7398 1.0000
vt 0.8413 0.7398 1.0000
vt 0.9255 0.8357 1.0000
vt 0.0000 0.8639 1.0000
vt 0.0841 0.8639 1.0000
vt -0.0841 0.8639 1.0000
vt -0.0841 0.8357 1.0000
vt 0.0000 0.7398 1.0000
vt 0.0841 0.7398 1.0000
vt 0.1683 0.8639 1.0000
vt 0.2524 0.8639 1.0000
vt 0.1683 0.7398 1.0000
vt 0.2524 0.7398 1.0000
vt 0.3365 0.8639 1.0000
vt 0.4207 0.8639 1.0000
vt 0.3365 0.7398 1.0000
vt 0.4207 0.7398 1.0000
vt 0.5048 0.8639 1.0000
vt 0.5889 0.8639 1.0000
vt 0.5048 0.7398 1.0000
vt 0.5889 0.7398 1.0000
vt 0.6731 0.8639 1.0000
vt 0.6731 0.7398 1.0000
vt 0.9255 1.2344 1.0000
vt 0.8413 1.2344 1.0000
vt 0.9255 1.2404 1.0000
vt 0.8413 1.2389 1.0000
vt 0.7572 1.2389 1.0000
vt 0.7572 1.2344 1.0000
vt 0.0841 1.2344 1.0000
vt 0.0000 1.2344 1.0000
vt 0.0841 1.2389 1.0000
vt 0.0000 1.2389 1.0000
vt -0.0841 1.2404 1.0000
vt -0.0841 1.2344 1.0000
vt 0.2524 1.2344 1.0000
vt 0.1683 1.2344 1.0000
vt 0.2524 1.2389 1.0000
vt 0.1683 1.2389 1.0000
vt 0.4207 1.2389 1.0000
vt 0.3365 1.2389 1.0000
vt 0.3365 1.2344 1.0000
vt 0.4207 1.2344 1.0000
vt 0.5889 1.2389 1.0000
vt 0.5048 1.2389 1.0000
vt 0.5048 1.2344 1.0000
vt 0.5889 1.2344 1.0000
vt 0.6731 1.2389 1.0000
vt 0.6731 1.2344 1.0000
vt 0.8413 0.4238 1.0000
vt 0.9255 0.4238 1.0000
vt 0.7572 0.4238 1.0000
vt 0.0000 0.4238 1.0000
vt 0.0841 0.4238 1.0000
vt -0.0841 0.4238 1.0000
vt 0.1683 0.4238 1.0000
vt 0.2524 0.4238 1.0000
vt 0.3365 0.4238 1.0000
vt 0.4207 0.4238 1.0000
vt 0.5048 0.4238 1.0000
vt 0.5889 0.4238 1.0000
vt 0.6731 0.4238 1.0000
vt 0.8413 1.2404 1.0000
vt 0.7572 1.2404 1.0000
vt 0.0000 1.2404 1.0000
vt 0.0841 1.2404 1.0000
vt 0.1683 1.2404 1.0000
vt 0.2524 1.2404 1.0000
vt 0.3365 1.2404 1.0000
vt 0.4207 1.2404 1.0000
vt 0.5048 1.2404 1.0000
vt 0.5889 1.2404 1.0000
vt 0.6731 1.2404 1.0000
vt 0.8413 1.0854 1.0000
vt 0.7572 1.0854 1.0000
vt 0.0841 1.0854 1.0000
vt 0.0000 1.0854 1.0000
vt 0.2524 1.0854 1.0000
vt 0.1683 1.0854 1.0000
vt 0.4207 1.0854 1.0000
vt 0.3365 1.0854 1.0000
vt 0.5889 1.0854 1.0000
vt 0.5048 1.0854 1.0000
vt 0.6731 1.0854 1.0000
vt 0.8413 0.6202 1.0000
vt 0.9255 0.6202 1.0000
vt 0.7572 0.6202 1.0000
vt 0.6731 0.6202 1.0000
vt 0.5889 0.6202 1.0000
vt 0.5048 0.6202 1.0000
vt 0.4207 0.6202 1.0000
vt 0.3365 0.6202 1.0000
vt 0.2524 0.6202 1.0000
vt 0.1683 0.6202 1.0000
vt 0.0841 0.6202 1.0000
vt 0.0000 0.6202 1.0000
vt -0.0841 0.6202 1.0000
# 465 texture coords

o Bathroom_accessories_085
g Bathroom_accessories_085
usemtl Base
s 1
f 1/1 2/2 3/3 4/4 
f 5/5 6/6 3/3 2/2 
f 7/7 8/8 3/3 6/6 
f 9/9 4/4 3/3 8/8 
f 10/10 11/11 12/12 13/13 
f 14/14 15/15 12/12 11/11 
f 5/16 2/17 12/12 15/15 
f 1/18 13/13 12/12 2/17 
f 16/19 17/20 18/21 19/22 
f 20/23 21/24 18/21 17/20 
f 14/14 11/11 18/21 21/24 
f 10/10 19/22 18/21 11/11 
f 22/25 23/26 24/27 25/28 
f 26/29 27/30 24/27 23/26 
f 20/23 17/20 24/27 27/30 
f 16/19 25/28 24/27 17/20 
f 28/31 29/32 30/33 31/34 
f 32/35 33/36 30/33 29/32 
f 26/29 23/26 30/33 33/36 
f 22/25 31/34 30/33 23/26 
f 9/9 8/8 34/37 35/38 
f 7/7 36/39 34/37 8/8 
f 32/35 29/32 34/37 36/39 
f 28/31 35/38 34/37 29/32 
f 9/9 37/40 38/41 4/4 
f 39/42 40/43 38/41 37/40 
f 41/44 42/45 38/41 40/43 
f 1/1 4/4 38/41 42/45 
f 1/18 42/46 43/47 13/13 
f 41/48 44/49 43/47 42/46 
f 45/50 46/51 43/47 44/49 
f 10/10 13/13 43/47 46/51 
f 10/10 46/51 47/52 19/22 
f 45/50 48/53 47/52 46/51 
f 49/54 50/55 47/52 48/53 
f 16/19 19/22 47/52 50/55 
f 16/19 50/55 51/56 25/28 
f 49/54 52/57 51/56 50/55 
f 53/58 54/59 51/56 52/57 
f 22/25 25/28 51/56 54/59 
f 22/25 54/59 55/60 31/34 
f 53/58 56/61 55/60 54/59 
f 57/62 58/63 55/60 56/61 
f 28/31 31/34 55/60 58/63 
f 28/31 58/63 59/64 35/38 
f 57/62 60/65 59/64 58/63 
f 39/42 37/40 59/64 60/65 
f 9/9 35/38 59/64 37/40 
f 61/66 62/67 63/68 64/69 
f 65/70 66/71 63/68 62/67 
f 67/72 68/73 63/68 66/71 
f 69/74 64/69 63/68 68/73 
f 70/75 71/76 72/77 73/78 
f 69/79 68/80 72/77 71/76 
f 67/72 74/81 72/77 68/80 
f 75/82 73/78 72/77 74/81 
f 76/83 77/84 78/85 79/86 
f 75/82 74/81 78/85 77/84 
f 67/72 66/71 78/85 74/81 
f 65/70 79/86 78/85 66/71 
f 80/87 81/88 82/89 83/90 
f 84/91 85/92 82/89 81/88 
f 7/7 6/6 82/89 85/92 
f 5/5 83/90 82/89 6/6 
f 86/93 87/94 88/95 89/96 
f 80/97 83/98 88/95 87/94 
f 5/16 15/15 88/95 83/98 
f 14/14 89/96 88/95 15/15 
f 90/99 91/100 92/101 93/102 
f 86/93 89/96 92/101 91/100 
f 14/14 21/24 92/101 89/96 
f 20/23 93/102 92/101 21/24 
f 94/103 95/104 96/105 97/106 
f 90/99 93/102 96/105 95/104 
f 20/23 27/30 96/105 93/102 
f 26/29 97/106 96/105 27/30 
f 98/107 99/108 100/109 101/110 
f 94/103 97/106 100/109 99/108 
f 26/29 33/36 100/109 97/106 
f 32/35 101/110 100/109 33/36 
f 84/91 102/111 103/112 85/92 
f 98/107 101/110 103/112 102/111 
f 32/35 36/39 103/112 101/110 
f 7/7 85/92 103/112 36/39 
f 104/113 105/114 106/115 107/116 
f 108/117 109/118 106/115 105/114 
f 84/91 81/88 106/115 109/118 
f 80/87 107/116 106/115 81/88 
f 110/119 111/120 112/121 113/122 
f 104/123 107/124 112/121 111/120 
f 80/97 87/94 112/121 107/124 
f 86/93 113/122 112/121 87/94 
f 114/125 115/126 116/127 117/128 
f 110/119 113/122 116/127 115/126 
f 86/93 91/100 116/127 113/122 
f 90/99 117/128 116/127 91/100 
f 118/129 119/130 120/131 121/132 
f 114/125 117/128 120/131 119/130 
f 90/99 95/104 120/131 117/128 
f 94/103 121/132 120/131 95/104 
f 122/133 123/134 124/135 125/136 
f 118/129 121/132 124/135 123/134 
f 94/103 99/108 124/135 121/132 
f 98/107 125/136 124/135 99/108 
f 108/117 126/137 127/138 109/118 
f 122/133 125/136 127/138 126/137 
f 98/107 102/111 127/138 125/136 
f 84/91 109/118 127/138 102/111 
f 128/139 129/140 130/141 131/142 
f 132/143 133/144 130/141 129/140 
f 134/145 135/146 130/141 133/144 
f 136/147 131/142 130/141 135/146 
f 132/148 137/149 138/150 133/151 
f 139/152 140/153 138/150 137/149 
f 141/154 142/155 138/150 140/153 
f 134/156 133/151 138/150 142/155 
f 139/152 143/157 144/158 140/153 
f 145/159 146/160 144/158 143/157 
f 147/161 148/162 144/158 146/160 
f 141/154 140/153 144/158 148/162 
f 145/159 149/163 150/164 146/160 
f 151/165 152/166 150/164 149/163 
f 153/167 154/168 150/164 152/166 
f 147/161 146/160 150/164 154/168 
f 151/165 155/169 156/170 152/166 
f 157/171 158/172 156/170 155/169 
f 159/173 160/174 156/170 158/172 
f 153/167 152/166 156/170 160/174 
f 157/171 161/175 162/176 158/172 
f 128/139 131/142 162/176 161/175 
f 136/147 163/177 162/176 131/142 
f 159/173 158/172 162/176 163/177 
f 136/147 135/146 164/178 165/179 
f 134/145 166/180 164/178 135/146 
f 167/181 168/182 164/178 166/180 
f 169/183 165/179 164/178 168/182 
f 134/156 142/155 170/184 166/185 
f 141/154 171/186 170/184 142/155 
f 172/187 173/188 170/184 171/186 
f 167/189 166/185 170/184 173/188 
f 141/154 148/162 174/190 171/186 
f 147/161 175/191 174/190 148/162 
f 176/192 177/193 174/190 175/191 
f 172/187 171/186 174/190 177/193 
f 147/161 154/168 178/194 175/191 
f 153/167 179/195 178/194 154/168 
f 180/196 181/197 178/194 179/195 
f 176/192 175/191 178/194 181/197 
f 153/167 160/174 182/198 179/195 
f 159/173 183/199 182/198 160/174 
f 184/200 185/201 182/198 183/199 
f 180/196 179/195 182/198 185/201 
f 159/173 163/177 186/202 183/199 
f 136/147 165/179 186/202 163/177 
f 169/183 187/203 186/202 165/179 
f 184/200 183/199 186/202 187/203 
f 172/187 177/193 188/204 173/188 
f 176/192 189/205 188/204 177/193 
f 190/206 191/207 188/204 189/205 
f 167/189 173/188 188/204 191/207 
f 180/196 185/201 192/208 181/197 
f 184/200 193/209 192/208 185/201 
f 190/206 189/205 192/208 193/209 
f 176/192 181/197 192/208 189/205 
f 169/183 168/182 194/210 187/203 
f 167/181 191/211 194/210 168/182 
f 190/206 193/209 194/210 191/211 
f 184/200 187/203 194/210 193/209 
f 132/143 129/140 195/212 196/213 
f 128/139 197/214 195/212 129/140 
f 198/215 199/216 195/212 197/214 
f 200/217 196/213 195/212 199/216 
f 139/152 137/149 201/218 202/219 
f 132/148 196/220 201/218 137/149 
f 200/221 203/222 201/218 196/220 
f 204/223 202/219 201/218 203/222 
f 145/159 143/157 205/224 206/225 
f 139/152 202/219 205/224 143/157 
f 204/223 207/226 205/224 202/219 
f 208/227 206/225 205/224 207/226 
f 151/165 149/163 209/228 210/229 
f 145/159 206/225 209/228 149/163 
f 208/227 211/230 209/228 206/225 
f 212/231 210/229 209/228 211/230 
f 157/171 155/169 213/232 214/233 
f 151/165 210/229 213/232 155/169 
f 212/231 215/234 213/232 210/229 
f 216/235 214/233 213/232 215/234 
f 128/139 161/175 217/236 197/214 
f 157/171 214/233 217/236 161/175 
f 216/235 218/237 217/236 214/233 
f 198/215 197/214 217/236 218/237 
f 200/217 199/216 219/238 220/239 
f 198/215 221/240 219/238 199/216 
f 108/117 105/114 219/238 221/240 
f 104/113 220/239 219/238 105/114 
f 204/223 203/222 222/241 223/242 
f 200/221 220/243 222/241 203/222 
f 104/123 111/120 222/241 220/243 
f 110/119 223/242 222/241 111/120 
f 208/227 207/226 224/244 225/245 
f 204/223 223/242 224/244 207/226 
f 110/119 115/126 224/244 223/242 
f 114/125 225/245 224/244 115/126 
f 212/231 211/230 226/246 227/247 
f 208/227 225/245 226/246 211/230 
f 114/125 119/130 226/246 225/245 
f 118/129 227/247 226/246 119/130 
f 216/235 215/234 228/248 229/249 
f 212/231 227/247 228/248 215/234 
f 118/129 123/134 228/248 227/247 
f 122/133 229/249 228/248 123/134 
f 198/215 218/237 230/250 221/240 
f 216/235 229/249 230/250 218/237 
f 122/133 126/137 230/250 229/249 
f 108/117 221/240 230/250 126/137 
f 61/66 64/69 231/251 232/252 
f 69/74 233/253 231/251 64/69 
f 41/44 40/43 231/251 233/253 
f 39/42 232/252 231/251 40/43 
f 69/79 71/76 234/254 233/255 
f 70/75 235/256 234/254 71/76 
f 45/50 44/49 234/254 235/256 
f 41/48 233/255 234/254 44/49 
f 70/75 73/78 236/257 235/256 
f 75/82 237/258 236/257 73/78 
f 49/54 48/53 236/257 237/258 
f 45/50 235/256 236/257 48/53 
f 75/82 77/84 238/259 237/258 
f 76/83 239/260 238/259 77/84 
f 53/58 52/57 238/259 239/260 
f 49/54 237/258 238/259 52/57 
f 76/83 79/86 240/261 239/260 
f 65/70 241/262 240/261 79/86 
f 57/62 56/61 240/261 241/262 
f 53/58 239/260 240/261 56/61 
f 65/70 62/67 242/263 241/262 
f 61/66 232/252 242/263 62/67 
f 39/42 60/65 242/263 232/252 
f 57/62 241/262 242/263 60/65 
usemtl Base_2
f 243/264 244/265 245/265 246/264 
f 247/266 248/266 245/265 244/265 
f 249/266 250/265 245/265 248/266 
f 251/264 246/264 245/265 250/265 
f 247/267 252/268 253/268 248/267 
f 254/269 255/269 253/268 252/268 
f 256/269 257/268 253/268 255/269 
f 249/267 248/267 253/268 257/268 
f 254/269 258/270 259/270 255/269 
f 260/271 261/271 259/270 258/270 
f 262/271 263/270 259/270 261/271 
f 256/269 255/269 259/270 263/270 
f 260/271 264/272 265/272 261/271 
f 266/273 267/273 265/272 264/272 
f 268/273 269/272 265/272 267/273 
f 262/271 261/271 265/272 269/272 
f 266/273 270/274 271/274 267/273 
f 272/275 273/275 271/274 270/274 
f 274/275 275/274 271/274 273/275 
f 268/273 267/273 271/274 275/274 
f 272/275 276/276 277/276 273/275 
f 243/264 246/264 277/276 276/276 
f 251/264 278/276 277/276 246/264 
f 274/275 273/275 277/276 278/276 
f 279/264 280/265 281/265 282/264 
f 283/266 284/266 281/265 280/265 
f 247/266 244/265 281/265 284/266 
f 243/264 282/264 281/265 244/265 
f 283/267 285/268 286/268 284/267 
f 287/269 288/269 286/268 285/268 
f 254/269 252/268 286/268 288/269 
f 247/267 284/267 286/268 252/268 
f 287/269 289/270 290/270 288/269 
f 291/271 292/271 290/270 289/270 
f 260/271 258/270 290/270 292/271 
f 254/269 288/269 290/270 258/270 
f 291/271 293/272 294/272 292/271 
f 295/273 296/273 294/272 293/272 
f 266/273 264/272 294/272 296/273 
f 260/271 292/271 294/272 264/272 
f 295/273 297/274 298/274 296/273 
f 299/275 300/275 298/274 297/274 
f 272/275 270/274 298/274 300/275 
f 266/273 296/273 298/274 270/274 
f 299/275 301/276 302/276 300/275 
f 279/264 282/264 302/276 301/276 
f 243/264 276/276 302/276 282/264 
f 272/275 300/275 302/276 276/276 
f 283/266 280/265 303/265 304/266 
f 279/264 305/264 303/265 280/265 
f 306/264 307/265 303/265 305/264 
f 308/266 304/266 303/265 307/265 
f 287/269 285/268 309/268 310/269 
f 283/267 304/267 309/268 285/268 
f 308/267 311/268 309/268 304/267 
f 312/269 310/269 309/268 311/268 
f 291/271 289/270 313/270 314/271 
f 287/269 310/269 313/270 289/270 
f 312/269 315/270 313/270 310/269 
f 316/271 314/271 313/270 315/270 
f 295/273 293/272 317/272 318/273 
f 291/271 314/271 317/272 293/272 
f 316/271 319/272 317/272 314/271 
f 320/273 318/273 317/272 319/272 
f 299/275 297/274 321/274 322/275 
f 295/273 318/273 321/274 297/274 
f 320/273 323/274 321/274 318/273 
f 324/275 322/275 321/274 323/274 
f 279/264 301/276 325/276 305/264 
f 299/275 322/275 325/276 301/276 
f 324/275 326/276 325/276 322/275 
f 306/264 305/264 325/276 326/276 
f 308/266 307/265 327/265 328/266 
f 306/264 329/264 327/265 307/265 
f 330/264 331/265 327/265 329/264 
f 332/266 328/266 327/265 331/265 
f 312/269 311/268 333/268 334/269 
f 308/267 328/267 333/268 311/268 
f 332/267 335/268 333/268 328/267 
f 336/269 334/269 333/268 335/268 
f 316/271 315/270 337/270 338/271 
f 312/269 334/269 337/270 315/270 
f 336/269 339/270 337/270 334/269 
f 340/271 338/271 337/270 339/270 
f 320/273 319/272 341/272 342/273 
f 316/271 338/271 341/272 319/272 
f 340/271 343/272 341/272 338/271 
f 344/273 342/273 341/272 343/272 
f 324/275 323/274 345/274 346/275 
f 320/273 342/273 345/274 323/274 
f 344/273 347/274 345/274 342/273 
f 348/275 346/275 345/274 347/274 
f 306/264 326/276 349/276 329/264 
f 324/275 346/275 349/276 326/276 
f 348/275 350/276 349/276 346/275 
f 330/264 329/264 349/276 350/276 
f 332/266 331/265 351/265 352/266 
f 330/264 353/264 351/265 331/265 
f 354/264 355/265 351/265 353/264 
f 356/266 352/266 351/265 355/265 
f 336/269 335/268 357/268 358/269 
f 332/267 352/267 357/268 335/268 
f 356/267 359/268 357/268 352/267 
f 360/269 358/269 357/268 359/268 
f 340/271 339/270 361/270 362/271 
f 336/269 358/269 361/270 339/270 
f 360/269 363/270 361/270 358/269 
f 364/271 362/271 361/270 363/270 
f 344/273 343/272 365/272 366/273 
f 340/271 362/271 365/272 343/272 
f 364/271 367/272 365/272 362/271 
f 368/273 366/273 365/272 367/272 
f 348/275 347/274 369/274 370/275 
f 344/273 366/273 369/274 347/274 
f 368/273 371/274 369/274 366/273 
f 372/275 370/275 369/274 371/274 
f 330/264 350/276 373/276 353/264 
f 348/275 370/275 373/276 350/276 
f 372/275 374/276 373/276 370/275 
f 354/264 353/264 373/276 374/276 
s 3
f 356/266 355/265 375/265 376/266 
f 354/264 377/264 375/265 355/265 
s 2
f 378/264 379/265 375/265 377/264 
f 380/266 376/266 375/265 379/265 
s 3
f 360/269 359/268 381/268 382/269 
f 356/267 376/267 381/268 359/268 
s 2
f 380/267 383/268 381/268 376/267 
f 384/269 382/269 381/268 383/268 
s 3
f 364/271 363/270 385/270 386/271 
f 360/269 382/269 385/270 363/270 
s 2
f 384/269 387/270 385/270 382/269 
f 388/271 386/271 385/270 387/270 
s 3
f 368/273 367/272 389/272 390/273 
f 364/271 386/271 389/272 367/272 
s 2
f 388/271 391/272 389/272 386/271 
f 392/273 390/273 389/272 391/272 
s 3
f 372/275 371/274 393/274 394/275 
f 368/273 390/273 393/274 371/274 
s 2
f 392/273 395/274 393/274 390/273 
f 396/275 394/275 393/274 395/274 
s 3
f 354/264 374/276 397/276 377/264 
f 372/275 394/275 397/276 374/276 
s 2
f 396/275 398/276 397/276 394/275 
f 378/264 377/264 397/276 398/276 
s 1
f 251/264 250/265 399/265 400/264 
f 249/266 401/266 399/265 250/265 
f 402/266 403/265 399/265 401/266 
f 404/264 400/264 399/265 403/265 
f 249/267 257/268 405/268 401/267 
f 256/269 406/269 405/268 257/268 
f 407/269 408/268 405/268 406/269 
f 402/267 401/267 405/268 408/268 
f 256/269 263/270 409/270 406/269 
f 262/271 410/271 409/270 263/270 
f 411/271 412/270 409/270 410/271 
f 407/269 406/269 409/270 412/270 
f 262/271 269/272 413/272 410/271 
f 268/273 414/273 413/272 269/272 
f 415/273 416/272 413/272 414/273 
f 411/271 410/271 413/272 416/272 
f 268/273 275/274 417/274 414/273 
f 274/275 418/275 417/274 275/274 
f 419/275 420/274 417/274 418/275 
f 415/273 414/273 417/274 420/274 
f 274/275 278/276 421/276 418/275 
f 251/264 400/264 421/276 278/276 
f 404/264 422/276 421/276 400/264 
f 419/275 418/275 421/276 422/276 
f 404/264 403/265 423/265 424/264 
f 402/266 425/266 423/265 403/265 
f 426/266 427/265 423/265 425/266 
f 428/264 424/264 423/265 427/265 
f 402/267 408/268 429/268 425/267 
f 407/269 430/269 429/268 408/268 
f 431/269 432/268 429/268 430/269 
f 426/267 425/267 429/268 432/268 
f 407/269 412/270 433/270 430/269 
f 411/271 434/271 433/270 412/270 
f 435/271 436/270 433/270 434/271 
f 431/269 430/269 433/270 436/270 
f 411/271 416/272 437/272 434/271 
f 415/273 438/273 437/272 416/272 
f 439/273 440/272 437/272 438/273 
f 435/271 434/271 437/272 440/272 
f 415/273 420/274 441/274 438/273 
f 419/275 442/275 441/274 420/274 
f 443/275 444/274 441/274 442/275 
f 439/273 438/273 441/274 444/274 
f 419/275 422/276 445/276 442/275 
f 404/264 424/264 445/276 422/276 
f 428/264 446/276 445/276 424/264 
f 443/275 442/275 445/276 446/276 
f 428/264 427/265 447/265 448/264 
f 426/266 449/266 447/265 427/265 
f 450/266 451/265 447/265 449/266 
f 452/264 448/264 447/265 451/265 
f 426/267 432/268 453/268 449/267 
f 431/269 454/269 453/268 432/268 
f 455/269 456/268 453/268 454/269 
f 450/267 449/267 453/268 456/268 
f 431/269 436/270 457/270 454/269 
f 435/271 458/271 457/270 436/270 
f 459/271 460/270 457/270 458/271 
f 455/269 454/269 457/270 460/270 
f 435/271 440/272 461/272 458/271 
f 439/273 462/273 461/272 440/272 
f 463/273 464/272 461/272 462/273 
f 459/271 458/271 461/272 464/272 
f 439/273 444/274 465/274 462/273 
f 443/275 466/275 465/274 444/274 
f 467/275 468/274 465/274 466/275 
f 463/273 462/273 465/274 468/274 
f 443/275 446/276 469/276 466/275 
f 428/264 448/264 469/276 446/276 
f 452/264 470/276 469/276 448/264 
f 467/275 466/275 469/276 470/276 
f 452/264 451/265 471/265 472/264 
f 450/266 473/266 471/265 451/265 
f 474/266 475/265 471/265 473/266 
f 476/264 472/264 471/265 475/265 
f 450/267 456/268 477/268 473/267 
f 455/269 478/269 477/268 456/268 
f 479/269 480/268 477/268 478/269 
f 474/267 473/267 477/268 480/268 
f 455/269 460/270 481/270 478/269 
f 459/271 482/271 481/270 460/270 
f 483/271 484/270 481/270 482/271 
f 479/269 478/269 481/270 484/270 
f 459/271 464/272 485/272 482/271 
f 463/273 486/273 485/272 464/272 
f 487/273 488/272 485/272 486/273 
f 483/271 482/271 485/272 488/272 
f 463/273 468/274 489/274 486/273 
f 467/275 490/275 489/274 468/274 
f 491/275 492/274 489/274 490/275 
f 487/273 486/273 489/274 492/274 
f 467/275 470/276 493/276 490/275 
f 452/264 472/264 493/276 470/276 
f 476/264 494/276 493/276 472/264 
f 491/275 490/275 493/276 494/276 
f 476/264 475/265 495/265 496/264 
f 474/266 497/266 495/265 475/265 
f 498/266 499/265 495/265 497/266 
f 500/264 496/264 495/265 499/265 
f 474/267 480/268 501/268 497/267 
f 479/269 502/269 501/268 480/268 
f 503/269 504/268 501/268 502/269 
f 498/267 497/267 501/268 504/268 
f 479/269 484/270 505/270 502/269 
f 483/271 506/271 505/270 484/270 
f 507/271 508/270 505/270 506/271 
f 503/269 502/269 505/270 508/270 
f 483/271 488/272 509/272 506/271 
f 487/273 510/273 509/272 488/272 
f 511/273 512/272 509/272 510/273 
f 507/271 506/271 509/272 512/272 
f 487/273 492/274 513/274 510/273 
f 491/275 514/275 513/274 492/274 
f 515/275 516/274 513/274 514/275 
f 511/273 510/273 513/274 516/274 
f 491/275 494/276 517/276 514/275 
f 476/264 496/264 517/276 494/276 
f 500/264 518/276 517/276 496/264 
f 515/275 514/275 517/276 518/276 
f 500/264 499/265 519/265 520/264 
f 498/266 521/266 519/265 499/265 
f 522/266 523/265 519/265 521/266 
f 524/264 520/264 519/265 523/265 
f 498/267 504/268 525/268 521/267 
f 503/269 526/269 525/268 504/268 
f 527/269 528/268 525/268 526/269 
f 522/267 521/267 525/268 528/268 
f 503/269 508/270 529/270 526/269 
f 507/271 530/271 529/270 508/270 
f 531/271 532/270 529/270 530/271 
f 527/269 526/269 529/270 532/270 
f 507/271 512/272 533/272 530/271 
f 511/273 534/273 533/272 512/272 
f 535/273 536/272 533/272 534/273 
f 531/271 530/271 533/272 536/272 
f 511/273 516/274 537/274 534/273 
f 515/275 538/275 537/274 516/274 
f 539/275 540/274 537/274 538/275 
f 535/273 534/273 537/274 540/274 
f 515/275 518/276 541/276 538/275 
f 500/264 520/264 541/276 518/276 
f 524/264 542/276 541/276 520/264 
f 539/275 538/275 541/276 542/276 
f 524/264 523/265 543/265 544/264 
f 522/266 545/266 543/265 523/265 
f 546/266 547/265 543/265 545/266 
f 548/264 544/264 543/265 547/265 
f 522/267 528/268 549/268 545/267 
f 527/269 550/269 549/268 528/268 
f 551/269 552/268 549/268 550/269 
f 546/267 545/267 549/268 552/268 
f 527/269 532/270 553/270 550/269 
f 531/271 554/271 553/270 532/270 
f 555/271 556/270 553/270 554/271 
f 551/269 550/269 553/270 556/270 
f 531/271 536/272 557/272 554/271 
f 535/273 558/273 557/272 536/272 
f 559/273 560/272 557/272 558/273 
f 555/271 554/271 557/272 560/272 
f 535/273 540/274 561/274 558/273 
f 539/275 562/275 561/274 540/274 
f 563/275 564/274 561/274 562/275 
f 559/273 558/273 561/274 564/274 
f 539/275 542/276 565/276 562/275 
f 524/264 544/264 565/276 542/276 
f 548/264 566/276 565/276 544/264 
f 563/275 562/275 565/276 566/276 
f 548/264 547/265 567/265 568/264 
f 546/266 569/266 567/265 547/265 
f 570/266 571/265 567/265 569/266 
f 572/264 568/264 567/265 571/265 
f 546/267 552/268 573/268 569/267 
f 551/269 574/269 573/268 552/268 
f 575/269 576/268 573/268 574/269 
f 570/267 569/267 573/268 576/268 
f 551/269 556/270 577/270 574/269 
f 555/271 578/271 577/270 556/270 
f 579/271 580/270 577/270 578/271 
f 575/269 574/269 577/270 580/270 
f 555/271 560/272 581/272 578/271 
f 559/273 582/273 581/272 560/272 
f 583/273 584/272 581/272 582/273 
f 579/271 578/271 581/272 584/272 
f 559/273 564/274 585/274 582/273 
f 563/275 586/275 585/274 564/274 
f 587/275 588/274 585/274 586/275 
f 583/273 582/273 585/274 588/274 
f 563/275 566/276 589/276 586/275 
f 548/264 568/264 589/276 566/276 
f 572/264 590/276 589/276 568/264 
f 587/275 586/275 589/276 590/276 
f 572/264 571/265 591/265 592/264 
f 570/266 593/266 591/265 571/265 
f 594/266 595/265 591/265 593/266 
f 596/264 592/264 591/265 595/265 
f 570/267 576/268 597/268 593/267 
f 575/269 598/269 597/268 576/268 
f 599/269 600/268 597/268 598/269 
f 594/267 593/267 597/268 600/268 
f 575/269 580/270 601/270 598/269 
f 579/271 602/271 601/270 580/270 
f 603/271 604/270 601/270 602/271 
f 599/269 598/269 601/270 604/270 
f 579/271 584/272 605/272 602/271 
f 583/273 606/273 605/272 584/272 
f 607/273 608/272 605/272 606/273 
f 603/271 602/271 605/272 608/272 
f 583/273 588/274 609/274 606/273 
f 587/275 610/275 609/274 588/274 
f 611/275 612/274 609/274 610/275 
f 607/273 606/273 609/274 612/274 
f 587/275 590/276 613/276 610/275 
f 572/264 592/264 613/276 590/276 
f 596/264 614/276 613/276 592/264 
f 611/275 610/275 613/276 614/276 
f 596/264 595/265 615/265 616/264 
f 594/266 617/266 615/265 595/265 
f 618/266 619/265 615/265 617/266 
f 620/264 616/264 615/265 619/265 
f 594/267 600/268 621/268 617/267 
f 599/269 622/269 621/268 600/268 
f 623/269 624/268 621/268 622/269 
f 618/267 617/267 621/268 624/268 
f 599/269 604/270 625/270 622/269 
f 603/271 626/271 625/270 604/270 
f 627/271 628/270 625/270 626/271 
f 623/269 622/269 625/270 628/270 
f 603/271 608/272 629/272 626/271 
f 607/273 630/273 629/272 608/272 
f 631/273 632/272 629/272 630/273 
f 627/271 626/271 629/272 632/272 
f 607/273 612/274 633/274 630/273 
f 611/275 634/275 633/274 612/274 
f 635/275 636/274 633/274 634/275 
f 631/273 630/273 633/274 636/274 
f 611/275 614/276 637/276 634/275 
f 596/264 616/264 637/276 614/276 
f 620/264 638/276 637/276 616/264 
f 635/275 634/275 637/276 638/276 
f 620/264 619/265 639/265 640/264 
f 618/266 641/266 639/265 619/265 
f 642/266 643/265 639/265 641/266 
f 644/264 640/264 639/265 643/265 
f 618/267 624/268 645/268 641/267 
f 623/269 646/269 645/268 624/268 
f 647/269 648/268 645/268 646/269 
f 642/267 641/267 645/268 648/268 
f 623/269 628/270 649/270 646/269 
f 627/271 650/271 649/270 628/270 
f 651/271 652/270 649/270 650/271 
f 647/269 646/269 649/270 652/270 
f 627/271 632/272 653/272 650/271 
f 631/273 654/273 653/272 632/272 
f 655/273 656/272 653/272 654/273 
f 651/271 650/271 653/272 656/272 
f 631/273 636/274 657/274 654/273 
f 635/275 658/275 657/274 636/274 
f 659/275 660/274 657/274 658/275 
f 655/273 654/273 657/274 660/274 
f 635/275 638/276 661/276 658/275 
f 620/264 640/264 661/276 638/276 
f 644/264 662/276 661/276 640/264 
f 659/275 658/275 661/276 662/276 
f 644/264 643/265 663/265 664/264 
f 642/266 665/266 663/265 643/265 
f 666/266 667/265 663/265 665/266 
f 668/264 664/264 663/265 667/265 
f 642/267 648/268 669/268 665/267 
f 647/269 670/269 669/268 648/268 
f 671/269 672/268 669/268 670/269 
f 666/267 665/267 669/268 672/268 
f 647/269 652/270 673/270 670/269 
f 651/271 674/271 673/270 652/270 
f 675/271 676/270 673/270 674/271 
f 671/269 670/269 673/270 676/270 
f 651/271 656/272 677/272 674/271 
f 655/273 678/273 677/272 656/272 
f 679/273 680/272 677/272 678/273 
f 675/271 674/271 677/272 680/272 
f 655/273 660/274 681/274 678/273 
f 659/275 682/275 681/274 660/274 
f 683/275 684/274 681/274 682/275 
f 679/273 678/273 681/274 684/274 
f 659/275 662/276 685/276 682/275 
f 644/264 664/264 685/276 662/276 
f 668/264 686/276 685/276 664/264 
f 683/275 682/275 685/276 686/276 
f 668/264 667/265 687/265 688/264 
f 666/266 689/266 687/265 667/265 
f 690/266 691/265 687/265 689/266 
f 692/264 688/264 687/265 691/265 
f 666/267 672/268 693/268 689/267 
f 671/269 694/269 693/268 672/268 
f 695/269 696/268 693/268 694/269 
f 690/267 689/267 693/268 696/268 
f 671/269 676/270 697/270 694/269 
f 675/271 698/271 697/270 676/270 
f 699/271 700/270 697/270 698/271 
f 695/269 694/269 697/270 700/270 
f 675/271 680/272 701/272 698/271 
f 679/273 702/273 701/272 680/272 
f 703/273 704/272 701/272 702/273 
f 699/271 698/271 701/272 704/272 
f 679/273 684/274 705/274 702/273 
f 683/275 706/275 705/274 684/274 
f 707/275 708/274 705/274 706/275 
f 703/273 702/273 705/274 708/274 
f 683/275 686/276 709/276 706/275 
f 668/264 688/264 709/276 686/276 
f 692/264 710/276 709/276 688/264 
f 707/275 706/275 709/276 710/276 
f 690/266 711/266 712/265 691/265 
f 713/266 714/265 712/265 711/266 
f 715/264 716/264 712/265 714/265 
f 692/264 691/265 712/265 716/264 
f 695/269 717/269 718/268 696/268 
f 719/269 720/268 718/268 717/269 
f 713/267 711/267 718/268 720/268 
f 690/267 696/268 718/268 711/267 
f 699/271 721/271 722/270 700/270 
f 723/271 724/270 722/270 721/271 
f 719/269 717/269 722/270 724/270 
f 695/269 700/270 722/270 717/269 
f 703/273 725/273 726/272 704/272 
f 727/273 728/272 726/272 725/273 
f 723/271 721/271 726/272 728/272 
f 699/271 704/272 726/272 721/271 
f 707/275 729/275 730/274 708/274 
f 731/275 732/274 730/274 729/275 
f 727/273 725/273 730/274 732/274 
f 703/273 708/274 730/274 725/273 
f 692/264 716/264 733/276 710/276 
f 715/264 734/276 733/276 716/264 
f 731/275 729/275 733/276 734/276 
f 707/275 710/276 733/276 729/275 
f 735/266 736/266 737/265 738/265 
f 739/266 740/265 737/265 736/266 
f 741/264 742/264 737/265 740/265 
f 743/264 738/265 737/265 742/264 
f 744/269 745/269 746/268 747/268 
f 748/269 749/268 746/268 745/269 
f 739/267 736/267 746/268 749/268 
f 735/267 747/268 746/268 736/267 
f 750/271 751/271 752/270 753/270 
f 754/271 755/270 752/270 751/271 
f 748/269 745/269 752/270 755/270 
f 744/269 753/270 752/270 745/269 
f 756/273 757/273 758/272 759/272 
f 760/273 761/272 758/272 757/273 
f 754/271 751/271 758/272 761/272 
f 750/271 759/272 758/272 751/271 
f 762/275 763/275 764/274 765/274 
f 766/275 767/274 764/274 763/275 
f 760/273 757/273 764/274 767/274 
f 756/273 765/274 764/274 757/273 
f 743/264 742/264 768/276 769/276 
f 741/264 770/276 768/276 742/264 
f 766/275 763/275 768/276 770/276 
f 762/275 769/276 768/276 763/275 
f 735/266 738/265 771/265 772/266 
f 743/264 773/264 771/265 738/265 
f 774/264 775/265 771/265 773/264 
f 776/266 772/266 771/265 775/265 
f 744/269 747/268 777/268 778/269 
f 735/267 772/267 777/268 747/268 
f 776/267 779/268 777/268 772/267 
f 780/269 778/269 777/268 779/268 
f 750/271 753/270 781/270 782/271 
f 744/269 778/269 781/270 753/270 
f 780/269 783/270 781/270 778/269 
f 784/271 782/271 781/270 783/270 
f 756/273 759/272 785/272 786/273 
f 750/271 782/271 785/272 759/272 
f 784/271 787/272 785/272 782/271 
f 788/273 786/273 785/272 787/272 
f 762/275 765/274 789/274 790/275 
f 756/273 786/273 789/274 765/274 
f 788/273 791/274 789/274 786/273 
f 792/275 790/275 789/274 791/274 
f 743/264 769/276 793/276 773/264 
f 762/275 790/275 793/276 769/276 
f 792/275 794/276 793/276 790/275 
f 774/264 773/264 793/276 794/276 
f 776/266 775/265 795/265 796/266 
f 774/264 797/264 795/265 775/265 
f 715/264 714/265 795/265 797/264 
f 713/266 796/266 795/265 714/265 
f 780/269 779/268 798/268 799/269 
f 776/267 796/267 798/268 779/268 
f 713/267 720/268 798/268 796/267 
f 719/269 799/269 798/268 720/268 
f 784/271 783/270 800/270 801/271 
f 780/269 799/269 800/270 783/270 
f 719/269 724/270 800/270 799/269 
f 723/271 801/271 800/270 724/270 
f 788/273 787/272 802/272 803/273 
f 784/271 801/271 802/272 787/272 
f 723/271 728/272 802/272 801/271 
f 727/273 803/273 802/272 728/272 
f 792/275 791/274 804/274 805/275 
f 788/273 803/273 804/274 791/274 
f 727/273 732/274 804/274 803/273 
f 731/275 805/275 804/274 732/274 
f 774/264 794/276 806/276 797/264 
f 792/275 805/275 806/276 794/276 
f 731/275 734/276 806/276 805/275 
f 715/264 797/264 806/276 734/276 
f 807/266 808/265 809/265 810/266 
f 811/264 812/264 809/265 808/265 
f 741/264 740/265 809/265 812/264 
f 739/266 810/266 809/265 740/265 
f 813/269 814/268 815/268 816/269 
f 807/267 810/267 815/268 814/268 
f 739/267 749/268 815/268 810/267 
f 748/269 816/269 815/268 749/268 
f 817/271 818/270 819/270 820/271 
f 813/269 816/269 819/270 818/270 
f 748/269 755/270 819/270 816/269 
f 754/271 820/271 819/270 755/270 
f 821/273 822/272 823/272 824/273 
f 817/271 820/271 823/272 822/272 
f 754/271 761/272 823/272 820/271 
f 760/273 824/273 823/272 761/272 
f 825/275 826/274 827/274 828/275 
f 821/273 824/273 827/274 826/274 
f 760/273 767/274 827/274 824/273 
f 766/275 828/275 827/274 767/274 
f 811/264 829/276 830/276 812/264 
f 825/275 828/275 830/276 829/276 
f 766/275 770/276 830/276 828/275 
f 741/264 812/264 830/276 770/276 
f 811/264 808/265 831/265 832/264 
f 807/266 833/266 831/265 808/265 
f 834/266 835/265 831/265 833/266 
f 836/264 832/264 831/265 835/265 
f 807/267 814/268 837/268 833/267 
f 813/269 838/269 837/268 814/268 
f 839/269 840/268 837/268 838/269 
f 834/267 833/267 837/268 840/268 
f 813/269 818/270 841/270 838/269 
f 817/271 842/271 841/270 818/270 
f 843/271 844/270 841/270 842/271 
f 839/269 838/269 841/270 844/270 
f 817/271 822/272 845/272 842/271 
f 821/273 846/273 845/272 822/272 
f 847/273 848/272 845/272 846/273 
f 843/271 842/271 845/272 848/272 
f 821/273 826/274 849/274 846/273 
f 825/275 850/275 849/274 826/274 
f 851/275 852/274 849/274 850/275 
f 847/273 846/273 849/274 852/274 
f 825/275 829/276 853/276 850/275 
f 811/264 832/264 853/276 829/276 
f 836/264 854/276 853/276 832/264 
f 851/275 850/275 853/276 854/276 
f 836/264 835/265 855/265 856/264 
f 834/266 857/266 855/265 835/265 
f 858/266 859/277 855/265 857/266 
f 860/278 856/264 855/265 859/277 
f 834/267 840/268 861/268 857/267 
f 839/269 862/269 861/268 840/268 
f 863/279 864/280 861/268 862/269 
f 858/267 857/267 861/268 864/280 
f 839/269 844/270 865/270 862/269 
f 843/271 866/271 865/270 844/270 
f 867/281 868/270 865/270 866/271 
f 863/279 862/269 865/270 868/270 
f 843/271 848/272 869/272 866/271 
f 847/273 870/273 869/272 848/272 
f 871/273 872/282 869/272 870/273 
f 867/281 866/271 869/272 872/282 
f 847/273 852/274 873/274 870/273 
f 851/275 874/275 873/274 852/274 
f 875/283 876/284 873/274 874/275 
f 871/273 870/273 873/274 876/284 
f 851/275 854/276 877/276 874/275 
f 836/264 856/264 877/276 854/276 
f 860/278 878/276 877/276 856/264 
f 875/283 874/275 877/276 878/276 
f 863/279 868/270 879/270 864/280 
f 867/281 880/285 879/270 868/270 
f 881/286 882/270 879/270 880/285 
f 858/267 864/280 879/270 882/270 
f 871/273 876/284 883/273 872/282 
f 875/283 884/287 883/273 876/284 
f 881/286 880/285 883/273 884/287 
f 867/281 872/282 883/273 880/285 
f 860/278 859/277 885/276 878/276 
f 858/266 882/276 885/276 859/277 
f 881/286 884/287 885/276 882/276 
f 875/283 878/276 885/276 884/287 
f 886/288 887/289 888/290 889/291 
f 890/292 891/293 888/290 887/289 
f 892/294 893/295 888/290 891/293 
f 894/296 889/291 888/290 893/295 
f 895/297 896/298 897/299 898/300 
f 899/301 900/302 897/299 896/298 
f 890/303 887/304 897/299 900/302 
f 886/305 898/300 897/299 887/304 
f 901/306 902/307 903/308 904/309 
f 905/310 906/311 903/308 902/307 
f 899/301 896/298 903/308 906/311 
f 895/297 904/309 903/308 896/298 
f 907/312 908/313 909/314 910/315 
f 911/316 912/317 909/314 908/313 
f 905/310 902/307 909/314 912/317 
f 901/306 910/315 909/314 902/307 
f 913/318 914/319 915/320 916/321 
f 917/322 918/323 915/320 914/319 
f 911/316 908/313 915/320 918/323 
f 907/312 916/321 915/320 908/313 
f 894/296 893/295 919/324 920/325 
f 892/294 921/326 919/324 893/295 
f 917/322 914/319 919/324 921/326 
f 913/318 920/325 919/324 914/319 
f 922/327 923/328 924/329 925/330 
f 926/331 927/332 924/329 923/328 
f 928/333 929/334 924/329 927/332 
f 930/335 925/330 924/329 929/334 
f 931/336 932/337 933/338 934/339 
f 935/340 936/341 933/338 932/337 
f 926/342 923/343 933/338 936/341 
f 922/344 934/339 933/338 923/343 
f 937/345 938/346 939/347 940/348 
f 941/349 942/350 939/347 938/346 
f 935/340 932/337 939/347 942/350 
f 931/336 940/348 939/347 932/337 
f 943/351 944/352 945/353 946/354 
f 941/349 938/346 945/353 944/352 
f 937/345 947/355 945/353 938/346 
f 948/356 946/354 945/353 947/355 
f 949/357 950/358 951/359 952/360 
f 943/351 946/354 951/359 950/358 
f 948/356 953/361 951/359 946/354 
f 954/362 952/360 951/359 953/361 
f 928/333 955/363 956/364 929/334 
f 949/357 952/360 956/364 955/363 
f 954/362 957/365 956/364 952/360 
f 930/335 929/334 956/364 957/365 
f 922/327 925/330 958/366 959/367 
f 930/335 960/368 958/366 925/330 
f 961/369 962/370 958/366 960/368 
f 963/371 959/367 958/366 962/370 
f 931/336 934/339 964/372 965/373 
f 922/344 959/374 964/372 934/339 
f 963/375 966/376 964/372 959/374 
f 967/377 965/373 964/372 966/376 
f 937/345 940/348 968/378 969/379 
f 931/336 965/373 968/378 940/348 
f 967/377 970/380 968/378 965/373 
f 971/381 969/379 968/378 970/380 
f 948/356 947/355 972/382 973/383 
f 937/345 969/379 972/382 947/355 
f 971/381 974/384 972/382 969/379 
f 975/385 973/383 972/382 974/384 
f 954/362 953/361 976/386 977/387 
f 948/356 973/383 976/386 953/361 
f 975/385 978/388 976/386 973/383 
f 979/389 977/387 976/386 978/388 
f 930/335 957/365 980/390 960/368 
f 954/362 977/387 980/390 957/365 
f 979/389 981/391 980/390 977/387 
f 961/369 960/368 980/390 981/391 
f 926/331 982/392 983/393 927/332 
f 984/394 985/395 983/393 982/392 
f 986/396 987/397 983/393 985/395 
f 928/333 927/332 983/393 987/397 
f 935/340 988/398 989/399 936/341 
f 990/400 991/401 989/399 988/398 
f 984/402 982/403 989/399 991/401 
f 926/342 936/341 989/399 982/403 
f 941/349 992/404 993/405 942/350 
f 994/406 995/407 993/405 992/404 
f 990/400 988/398 993/405 995/407 
f 935/340 942/350 993/405 988/398 
f 996/408 997/409 998/410 999/411 
f 994/406 992/404 998/410 997/409 
f 941/349 944/352 998/410 992/404 
f 943/351 999/411 998/410 944/352 
f 1000/412 1001/413 1002/414 1003/415 
f 996/408 999/411 1002/414 1001/413 
f 943/351 950/358 1002/414 999/411 
f 949/357 1003/415 1002/414 950/358 
f 986/396 1004/416 1005/417 987/397 
f 1000/412 1003/415 1005/417 1004/416 
f 949/357 955/363 1005/417 1003/415 
f 928/333 987/397 1005/417 955/363 
f 963/371 962/370 1006/418 1007/419 
f 961/369 1008/420 1006/418 962/370 
f 892/294 891/293 1006/418 1008/420 
f 890/292 1007/419 1006/418 891/293 
f 967/377 966/376 1009/421 1010/422 
f 963/375 1007/423 1009/421 966/376 
f 890/303 900/302 1009/421 1007/423 
f 899/301 1010/422 1009/421 900/302 
f 971/381 970/380 1011/424 1012/425 
f 967/377 1010/422 1011/424 970/380 
f 899/301 906/311 1011/424 1010/422 
f 905/310 1012/425 1011/424 906/311 
f 975/385 974/384 1013/426 1014/427 
f 971/381 1012/425 1013/426 974/384 
f 905/310 912/317 1013/426 1012/425 
f 911/316 1014/427 1013/426 912/317 
f 979/389 978/388 1015/428 1016/429 
f 975/385 1014/427 1015/428 978/388 
f 911/316 918/323 1015/428 1014/427 
f 917/322 1016/429 1015/428 918/323 
f 961/369 981/391 1017/430 1008/420 
f 979/389 1016/429 1017/430 981/391 
f 917/322 921/326 1017/430 1016/429 
f 892/294 1008/420 1017/430 921/326 
f 986/396 985/395 1018/431 1019/432 
f 984/394 1020/394 1018/431 985/395 
f 1021/394 1022/431 1018/431 1020/394 
f 1023/432 1019/432 1018/431 1022/431 
f 984/402 991/401 1024/433 1020/402 
f 990/400 1025/434 1024/433 991/401 
f 1026/434 1027/433 1024/433 1025/434 
f 1021/402 1020/402 1024/433 1027/433 
f 990/400 995/407 1028/435 1025/434 
f 994/406 1029/436 1028/435 995/407 
f 1030/436 1031/435 1028/435 1029/436 
f 1026/434 1025/434 1028/435 1031/435 
f 994/406 997/409 1032/437 1029/436 
f 996/408 1033/438 1032/437 997/409 
f 1034/438 1035/437 1032/437 1033/438 
f 1030/436 1029/436 1032/437 1035/437 
f 996/408 1001/413 1036/439 1033/438 
f 1000/412 1037/440 1036/439 1001/413 
f 1038/440 1039/439 1036/439 1037/440 
f 1034/438 1033/438 1036/439 1039/439 
f 1000/412 1004/416 1040/441 1037/440 
f 986/396 1019/432 1040/441 1004/416 
f 1023/432 1041/441 1040/441 1019/432 
f 1038/440 1037/440 1040/441 1041/441 
f 1023/432 1022/431 1042/431 1043/432 
f 1021/394 1044/394 1042/431 1022/431 
f 1045/394 1046/431 1042/431 1044/394 
f 1047/432 1043/432 1042/431 1046/431 
f 1021/402 1027/433 1048/433 1044/402 
f 1026/434 1049/434 1048/433 1027/433 
f 1050/434 1051/433 1048/433 1049/434 
f 1045/402 1044/402 1048/433 1051/433 
f 1026/434 1031/435 1052/435 1049/434 
f 1030/436 1053/436 1052/435 1031/435 
f 1054/436 1055/435 1052/435 1053/436 
f 1050/434 1049/434 1052/435 1055/435 
f 1030/436 1035/437 1056/437 1053/436 
f 1034/438 1057/438 1056/437 1035/437 
f 1058/438 1059/437 1056/437 1057/438 
f 1054/436 1053/436 1056/437 1059/437 
f 1034/438 1039/439 1060/439 1057/438 
f 1038/440 1061/440 1060/439 1039/439 
f 1062/440 1063/439 1060/439 1061/440 
f 1058/438 1057/438 1060/439 1063/439 
f 1038/440 1041/441 1064/441 1061/440 
f 1023/432 1043/432 1064/441 1041/441 
f 1047/432 1065/441 1064/441 1043/432 
f 1062/440 1061/440 1064/441 1065/441 
f 1047/432 1046/431 1066/431 1067/432 
f 1045/394 1068/394 1066/431 1046/431 
f 1069/394 1070/431 1066/431 1068/394 
f 1071/432 1067/432 1066/431 1070/431 
f 1045/402 1051/433 1072/433 1068/402 
f 1050/434 1073/434 1072/433 1051/433 
f 1074/434 1075/433 1072/433 1073/434 
f 1069/402 1068/402 1072/433 1075/433 
f 1050/434 1055/435 1076/435 1073/434 
f 1054/436 1077/436 1076/435 1055/435 
f 1078/436 1079/435 1076/435 1077/436 
f 1074/434 1073/434 1076/435 1079/435 
f 1054/436 1059/437 1080/437 1077/436 
f 1058/438 1081/438 1080/437 1059/437 
f 1082/438 1083/437 1080/437 1081/438 
f 1078/436 1077/436 1080/437 1083/437 
f 1058/438 1063/439 1084/439 1081/438 
f 1062/440 1085/440 1084/439 1063/439 
f 1086/440 1087/439 1084/439 1085/440 
f 1082/438 1081/438 1084/439 1087/439 
f 1062/440 1065/441 1088/441 1085/440 
f 1047/432 1067/432 1088/441 1065/441 
f 1071/432 1089/441 1088/441 1067/432 
f 1086/440 1085/440 1088/441 1089/441 
f 1071/432 1070/431 1090/431 1091/432 
f 1069/394 1092/394 1090/431 1070/431 
f 1093/394 1094/431 1090/431 1092/394 
f 1095/432 1091/432 1090/431 1094/431 
f 1069/402 1075/433 1096/433 1092/402 
f 1074/434 1097/434 1096/433 1075/433 
f 1098/434 1099/433 1096/433 1097/434 
f 1093/402 1092/402 1096/433 1099/433 
f 1074/434 1079/435 1100/435 1097/434 
f 1078/436 1101/436 1100/435 1079/435 
f 1102/436 1103/435 1100/435 1101/436 
f 1098/434 1097/434 1100/435 1103/435 
f 1078/436 1083/437 1104/437 1101/436 
f 1082/438 1105/438 1104/437 1083/437 
f 1106/438 1107/437 1104/437 1105/438 
f 1102/436 1101/436 1104/437 1107/437 
f 1082/438 1087/439 1108/439 1105/438 
f 1086/440 1109/440 1108/439 1087/439 
f 1110/440 1111/439 1108/439 1109/440 
f 1106/438 1105/438 1108/439 1111/439 
f 1086/440 1089/441 1112/441 1109/440 
f 1071/432 1091/432 1112/441 1089/441 
f 1095/432 1113/441 1112/441 1091/432 
f 1110/440 1109/440 1112/441 1113/441 
f 1095/432 1094/431 1114/431 1115/432 
f 1093/394 1116/394 1114/431 1094/431 
f 1117/394 1118/431 1114/431 1116/394 
f 1119/432 1115/432 1114/431 1118/431 
f 1093/402 1099/433 1120/433 1116/402 
f 1098/434 1121/434 1120/433 1099/433 
f 1122/434 1123/433 1120/433 1121/434 
f 1117/402 1116/402 1120/433 1123/433 
f 1098/434 1103/435 1124/435 1121/434 
f 1102/436 1125/436 1124/435 1103/435 
f 1126/436 1127/435 1124/435 1125/436 
f 1122/434 1121/434 1124/435 1127/435 
f 1102/436 1107/437 1128/437 1125/436 
f 1106/438 1129/438 1128/437 1107/437 
f 1130/438 1131/437 1128/437 1129/438 
f 1126/436 1125/436 1128/437 1131/437 
f 1106/438 1111/439 1132/439 1129/438 
f 1110/440 1133/440 1132/439 1111/439 
f 1134/440 1135/439 1132/439 1133/440 
f 1130/438 1129/438 1132/439 1135/439 
f 1110/440 1113/441 1136/441 1133/440 
f 1095/432 1115/432 1136/441 1113/441 
f 1119/432 1137/441 1136/441 1115/432 
f 1134/440 1133/440 1136/441 1137/441 
f 1119/432 1118/431 1138/431 1139/432 
f 1117/394 1140/394 1138/431 1118/431 
f 1141/394 1142/442 1138/431 1140/394 
f 1143/443 1139/432 1138/431 1142/442 
f 1117/402 1123/433 1144/433 1140/402 
f 1122/434 1145/434 1144/433 1123/433 
f 1146/444 1147/445 1144/433 1145/434 
f 1141/402 1140/402 1144/433 1147/445 
f 1122/434 1127/435 1148/435 1145/434 
f 1126/436 1149/436 1148/435 1127/435 
f 1150/446 1151/447 1148/435 1149/436 
f 1146/444 1145/434 1148/435 1151/447 
f 1126/436 1131/437 1152/437 1149/436 
f 1130/438 1153/438 1152/437 1131/437 
f 1154/448 1155/449 1152/437 1153/438 
f 1150/446 1149/436 1152/437 1155/449 
f 1130/438 1135/439 1156/439 1153/438 
f 1134/440 1157/440 1156/439 1135/439 
f 1158/450 1159/451 1156/439 1157/440 
f 1154/448 1153/438 1156/439 1159/451 
f 1134/440 1137/441 1160/441 1157/440 
f 1119/432 1139/432 1160/441 1137/441 
f 1143/443 1161/452 1160/441 1139/432 
f 1158/450 1157/440 1160/441 1161/452 
f 886/288 889/291 1162/453 1163/454 
f 894/296 1164/455 1162/453 889/291 
f 1143/443 1142/442 1162/453 1164/455 
f 1141/394 1163/454 1162/453 1142/442 
f 894/296 920/325 1165/456 1164/455 
f 913/318 1166/457 1165/456 920/325 
f 1158/450 1161/452 1165/456 1166/457 
f 1143/443 1164/455 1165/456 1161/452 
f 913/318 916/321 1167/458 1166/457 
f 907/312 1168/459 1167/458 916/321 
f 1154/448 1159/451 1167/458 1168/459 
f 1158/450 1166/457 1167/458 1159/451 
f 907/312 910/315 1169/460 1168/459 
f 901/306 1170/461 1169/460 910/315 
f 1150/446 1155/449 1169/460 1170/461 
f 1154/448 1168/459 1169/460 1155/449 
f 901/306 904/309 1171/462 1170/461 
f 895/297 1172/463 1171/462 904/309 
f 1146/444 1151/447 1171/462 1172/463 
f 1150/446 1170/461 1171/462 1151/447 
f 895/297 898/300 1173/464 1172/463 
f 886/305 1163/465 1173/464 898/300 
f 1141/402 1147/445 1173/464 1163/465 
f 1146/444 1172/463 1173/464 1147/445 
# 1164 polygons

