# Blender 4.3.2
# www.blender.org
mtllib 3_pieces_asymmetric_shelves.mtl
o Box005
v -27.517000 9.113501 11.899299
v -27.529499 9.176001 11.886799
v -27.529499 9.101001 11.961799
v -27.454500 9.101001 11.886799
v -27.517000 14.054501 11.899299
v -27.529499 13.992001 11.886799
v -27.454500 14.067001 11.886799
v -27.529499 14.067001 11.961799
v 72.407997 14.054501 11.899299
v 72.345497 14.067001 11.886799
v 72.420502 13.992001 11.886799
v 72.420502 14.067001 11.961799
v 72.407997 9.113501 11.899299
v 72.420502 9.176001 11.886799
v 72.345497 9.101001 11.886799
v 72.420502 9.101001 11.961799
v -27.517000 9.113501 13.424299
v -27.454500 9.101001 13.436799
v -27.529499 9.101001 13.361799
v -27.529499 9.176001 13.436799
v 72.407997 9.113501 13.424299
v 72.345497 9.101001 13.436799
v 72.420502 9.176001 13.436799
v 72.420502 9.101001 13.361799
v 72.407997 14.054501 13.424299
v 72.420502 13.992001 13.436799
v 72.345497 14.067001 13.436799
v 72.420502 14.067001 13.361799
v -27.517000 14.054501 13.424299
v -27.454500 14.067001 13.436799
v -27.529499 13.992001 13.436799
v -27.529499 14.067001 13.361799
v -27.517000 9.113501 11.824299
v -27.529499 9.101001 11.761799
v -27.529499 9.176001 11.836799
v -27.454500 9.101001 11.836799
v -27.517000 9.113500 0.037499
v -27.529499 9.101000 0.099999
v -27.454500 9.101000 0.024999
v -27.529499 9.176000 0.024999
v 72.407997 9.113500 0.037499
v 72.345497 9.101000 0.024999
v 72.420502 9.101000 0.099999
v 72.420502 9.176000 0.024999
v 72.407997 9.113501 11.824299
v 72.420502 9.101001 11.761799
v 72.345497 9.101001 11.836799
v 72.420502 9.176001 11.836799
v -27.517000 10.638501 11.824299
v -27.454500 10.651001 11.836799
v -27.529499 10.576001 11.836799
v -27.529499 10.651001 11.761799
v 72.407997 10.638501 11.824299
v 72.345497 10.651001 11.836799
v 72.420502 10.651001 11.761799
v 72.420502 10.576001 11.836799
v 72.407997 10.638500 0.037499
v 72.420502 10.651000 0.099999
v 72.345497 10.651000 0.024999
v 72.420502 10.576000 0.024999
v -27.517000 10.638500 0.037499
v -27.454500 10.651000 0.024999
v -27.529499 10.651000 0.099999
v -27.529499 10.576000 0.024999
v -27.517000 10.713500 0.037499
v -27.529499 10.776000 0.024999
v -27.529499 10.701000 0.099999
v -27.454500 10.701000 0.024999
v -27.517000 22.638500 0.037498
v -27.529499 22.576000 0.024998
v -27.454500 22.650999 0.024998
v -27.529499 22.650999 0.099998
v 72.407997 22.638500 0.037498
v 72.345497 22.650999 0.024998
v 72.420502 22.576000 0.024998
v 72.420502 22.650999 0.099998
v 72.407997 10.713500 0.037499
v 72.420502 10.776000 0.024999
v 72.345497 10.701000 0.024999
v 72.420502 10.701000 0.099999
v -27.517000 10.713500 1.562499
v -27.454500 10.701000 1.574999
v -27.529499 10.701000 1.499999
v -27.529499 10.776000 1.574999
v 72.407997 10.713500 1.562499
v 72.345497 10.701000 1.574999
v 72.420502 10.776000 1.574999
v 72.420502 10.701000 1.499999
v 72.407997 22.638500 1.562498
v 72.420502 22.576000 1.574998
v 72.345497 22.650999 1.574998
v 72.420502 22.650999 1.499998
v -27.517000 22.638500 1.562498
v -27.454500 22.650999 1.574998
v -27.529499 22.576000 1.574998
v -27.529499 22.650999 1.499998
v -27.454500 9.176001 11.861799
v -27.454500 13.992001 11.861799
v 72.345497 13.992001 11.861799
v 72.345497 9.176001 11.861799
v -27.454500 9.176001 13.461799
v 72.345497 9.176001 13.461799
v 72.345497 13.992001 13.461799
v -27.454500 13.992001 13.461799
v -27.454500 9.076001 11.961799
v 72.345497 9.076001 11.961799
v 72.345497 9.076001 13.361799
v -27.454500 9.076001 13.361799
v 72.445503 9.176001 11.961799
v 72.445503 13.992001 11.961799
v 72.445503 13.992001 13.361799
v 72.445503 9.176001 13.361799
v 72.345497 14.092001 11.961799
v -27.454500 14.092001 11.961799
v -27.454500 14.092001 13.361799
v 72.345497 14.092001 13.361799
v -27.554501 13.992001 11.961799
v -27.554501 9.176001 11.961799
v -27.554501 9.176001 13.361799
v -27.554501 13.992001 13.361799
v -27.454500 9.076001 11.761799
v -27.454500 9.076000 0.099999
v 72.345497 9.076000 0.099999
v 72.345497 9.076001 11.761799
v -27.454500 10.676001 11.761799
v 72.345497 10.676001 11.761799
v 72.345497 10.676000 0.099999
v -27.454500 10.676000 0.099999
v -27.454500 9.176001 11.861799
v 72.345497 9.176001 11.861799
v 72.345497 10.576001 11.861799
v -27.454500 10.576001 11.861799
v 72.445503 9.176001 11.761799
v 72.445503 9.176000 0.099999
v 72.445503 10.576000 0.099999
v 72.445503 10.576001 11.761799
v 72.345497 9.176000 -0.000001
v -27.454500 9.176000 -0.000001
v -27.454500 10.576000 -0.000001
v 72.345497 10.576000 -0.000001
v -27.554501 9.176000 0.099999
v -27.554501 9.176001 11.761799
v -27.554501 10.576001 11.761799
v -27.554501 10.576000 0.099999
v -27.454500 10.776000 -0.000001
v -27.454500 22.576000 -0.000002
v 72.345497 22.576000 -0.000002
v 72.345497 10.776000 -0.000001
v -27.454500 10.776000 1.599999
v 72.345497 10.776000 1.599999
v 72.345497 22.576000 1.599998
v -27.454500 22.576000 1.599998
v -27.454500 10.676000 0.099999
v 72.345497 10.676000 0.099999
v 72.345497 10.676000 1.499999
v -27.454500 10.676000 1.499999
v 72.445503 10.776000 0.099999
v 72.445503 22.576000 0.099998
v 72.445503 22.576000 1.499998
v 72.445503 10.776000 1.499999
v 72.345497 22.676001 0.099998
v -27.454500 22.676001 0.099998
v -27.454500 22.676001 1.499998
v 72.345497 22.676001 1.499998
v -27.554501 22.576000 0.099998
v -27.554501 10.776000 0.099999
v -27.554501 10.776000 1.499999
v -27.554501 22.576000 1.499998
v -3.290600 31.674101 11.899297
v -3.303100 31.736601 11.886797
v -3.303100 31.661600 11.961797
v -3.228100 31.661600 11.886797
v -3.290600 36.615002 11.899297
v -3.303100 36.552502 11.886797
v -3.228100 36.627499 11.886797
v -3.303100 36.627499 11.961797
v 76.634399 36.615002 11.899297
v 76.571899 36.627499 11.886797
v 76.646896 36.552502 11.886797
v 76.646896 36.627499 11.961797
v 76.634399 31.674101 11.899297
v 76.646896 31.736601 11.886797
v 76.571899 31.661600 11.886797
v 76.646896 31.661600 11.961797
v -3.290600 31.674103 13.424297
v -3.228100 31.661602 13.436797
v -3.303100 31.661602 13.361797
v -3.303100 31.736603 13.436797
v 76.634399 31.674103 13.424297
v 76.571899 31.661602 13.436797
v 76.646896 31.736603 13.436797
v 76.646896 31.661602 13.361797
v 76.634399 36.615002 13.424297
v 76.646896 36.552502 13.436797
v 76.571899 36.627499 13.436797
v 76.646896 36.627499 13.361797
v -3.290600 36.615002 13.424297
v -3.228100 36.627499 13.436797
v -3.303100 36.552502 13.436797
v -3.303100 36.627499 13.361797
v -3.290600 31.674101 11.824297
v -3.303100 31.661600 11.761797
v -3.303100 31.736601 11.836797
v -3.228100 31.661600 11.836797
v -3.290600 31.674101 0.037498
v -3.303100 31.661600 0.099998
v -3.228100 31.661600 0.024998
v -3.303100 31.736601 0.024998
v 76.634399 31.674101 0.037498
v 76.571899 31.661600 0.024998
v 76.646896 31.661600 0.099998
v 76.646896 31.736601 0.024998
v 76.634399 31.674101 11.824297
v 76.646896 31.661600 11.761797
v 76.571899 31.661600 11.836797
v 76.646896 31.736601 11.836797
v -3.290600 33.199100 11.824297
v -3.228100 33.211601 11.836797
v -3.303100 33.136600 11.836797
v -3.303100 33.211601 11.761797
v 76.634399 33.199100 11.824297
v 76.571899 33.211601 11.836797
v 76.646896 33.211601 11.761797
v 76.646896 33.136600 11.836797
v 76.634399 33.199100 0.037497
v 76.646896 33.211601 0.099997
v 76.571899 33.211601 0.024997
v 76.646896 33.136600 0.024997
v -3.290600 33.199100 0.037497
v -3.228100 33.211601 0.024997
v -3.303100 33.211601 0.099997
v -3.303100 33.136600 0.024997
v -3.290600 33.274101 0.037497
v -3.303100 33.336601 0.024997
v -3.303100 33.261600 0.099997
v -3.228100 33.261600 0.024997
v -3.290600 45.199100 0.037497
v -3.303100 45.136600 0.024997
v -3.228100 45.211601 0.024997
v -3.303100 45.211601 0.099997
v 76.634399 45.199100 0.037497
v 76.571899 45.211601 0.024997
v 76.646896 45.136600 0.024997
v 76.646896 45.211601 0.099997
v 76.634399 33.274101 0.037497
v 76.646896 33.336601 0.024997
v 76.571899 33.261600 0.024997
v 76.646896 33.261600 0.099997
v -3.290600 33.274101 1.562497
v -3.228100 33.261600 1.574998
v -3.303100 33.261600 1.499997
v -3.303100 33.336601 1.574998
v 76.634399 33.274101 1.562497
v 76.571899 33.261600 1.574998
v 76.646896 33.336601 1.574998
v 76.646896 33.261600 1.499997
v 76.634399 45.199100 1.562497
v 76.646896 45.136600 1.574997
v 76.571899 45.211601 1.574997
v 76.646896 45.211601 1.499997
v -3.290600 45.199100 1.562497
v -3.228100 45.211601 1.574997
v -3.303100 45.136600 1.574997
v -3.303100 45.211601 1.499997
v -3.228100 31.736601 11.861797
v -3.228100 36.552502 11.861797
v 76.571899 36.552502 11.861797
v 76.571899 31.736601 11.861797
v -3.228100 31.736603 13.461797
v 76.571899 31.736603 13.461797
v 76.571899 36.552502 13.461797
v -3.228100 36.552502 13.461797
v -3.228100 31.636600 11.961797
v 76.571899 31.636600 11.961797
v 76.571899 31.636602 13.361797
v -3.228100 31.636602 13.361797
v 76.671898 31.736601 11.961797
v 76.671898 36.552502 11.961797
v 76.671898 36.552502 13.361797
v 76.671898 31.736603 13.361797
v 76.571899 36.652500 11.961797
v -3.228100 36.652500 11.961797
v -3.228100 36.652500 13.361797
v 76.571899 36.652500 13.361797
v -3.328100 36.552502 11.961797
v -3.328100 31.736601 11.961797
v -3.328100 31.736603 13.361797
v -3.328100 36.552502 13.361797
v -3.228100 31.636600 11.761797
v -3.228100 31.636600 0.099998
v 76.571899 31.636600 0.099998
v 76.571899 31.636600 11.761797
v -3.228100 33.236599 11.761797
v 76.571899 33.236599 11.761797
v 76.571899 33.236599 0.099997
v -3.228100 33.236599 0.099997
v -3.228100 31.736601 11.861797
v 76.571899 31.736601 11.861797
v 76.571899 33.136600 11.861797
v -3.228100 33.136600 11.861797
v 76.671898 31.736601 11.761797
v 76.671898 31.736601 0.099998
v 76.671898 33.136600 0.099997
v 76.671898 33.136600 11.761797
v 76.571899 31.736601 -0.000002
v -3.228100 31.736601 -0.000002
v -3.228100 33.136600 -0.000003
v 76.571899 33.136600 -0.000003
v -3.328100 31.736601 0.099998
v -3.328100 31.736601 11.761797
v -3.328100 33.136600 11.761797
v -3.328100 33.136600 0.099997
v -3.228100 33.336601 -0.000003
v -3.228100 45.136600 -0.000003
v 76.571899 45.136600 -0.000003
v 76.571899 33.336601 -0.000003
v -3.228100 33.336601 1.599998
v 76.571899 33.336601 1.599998
v 76.571899 45.136600 1.599997
v -3.228100 45.136600 1.599997
v -3.228100 33.236599 0.099997
v 76.571899 33.236599 0.099997
v 76.571899 33.236599 1.499997
v -3.228100 33.236599 1.499997
v 76.671898 33.336601 0.099997
v 76.671898 45.136600 0.099997
v 76.671898 45.136600 1.499997
v 76.671898 33.336601 1.499997
v 76.571899 45.236599 0.099997
v -3.228100 45.236599 0.099997
v -3.228100 45.236599 1.499997
v 76.571899 45.236599 1.499997
v -3.328100 45.136600 0.099997
v -3.328100 33.336601 0.099997
v -3.328100 33.336601 1.499997
v -3.328100 45.136600 1.499997
v -39.496601 53.373402 11.899296
v -39.509102 53.435902 11.886796
v -39.509102 53.360901 11.961796
v -39.434101 53.360901 11.886796
v -39.496601 58.314301 11.899295
v -39.509102 58.251801 11.886795
v -39.434101 58.326801 11.886795
v -39.509102 58.326801 11.961795
v 20.428400 58.314301 11.899295
v 20.365900 58.326801 11.886795
v 20.440901 58.251801 11.886795
v 20.440901 58.326801 11.961795
v 20.428400 53.373402 11.899296
v 20.440901 53.435902 11.886796
v 20.365900 53.360901 11.886796
v 20.440901 53.360901 11.961796
v -39.496601 53.373402 13.424296
v -39.434101 53.360901 13.436796
v -39.509102 53.360901 13.361796
v -39.509102 53.435902 13.436796
v 20.428400 53.373402 13.424296
v 20.365900 53.360901 13.436796
v 20.440901 53.435902 13.436796
v 20.440901 53.360901 13.361796
v 20.428400 58.314301 13.424295
v 20.440901 58.251801 13.436795
v 20.365900 58.326801 13.436795
v 20.440901 58.326801 13.361795
v -39.496601 58.314301 13.424295
v -39.434101 58.326801 13.436795
v -39.509102 58.251801 13.436795
v -39.509102 58.326801 13.361795
v -39.496601 53.373402 11.824296
v -39.509102 53.360901 11.761796
v -39.509102 53.435902 11.836796
v -39.434101 53.360901 11.836796
v -39.496601 53.373402 0.037496
v -39.509102 53.360901 0.099996
v -39.434101 53.360901 0.024996
v -39.509102 53.435902 0.024996
v 20.428400 53.373402 0.037496
v 20.365900 53.360901 0.024996
v 20.440901 53.360901 0.099996
v 20.440901 53.435902 0.024996
v 20.428400 53.373402 11.824296
v 20.440901 53.360901 11.761796
v 20.365900 53.360901 11.836796
v 20.440901 53.435902 11.836796
v -39.496601 54.898399 11.824296
v -39.434101 54.910900 11.836796
v -39.509102 54.835899 11.836796
v -39.509102 54.910900 11.761796
v 20.428400 54.898399 11.824296
v 20.365900 54.910900 11.836796
v 20.440901 54.910900 11.761796
v 20.440901 54.835899 11.836796
v 20.428400 54.898399 0.037496
v 20.440901 54.910900 0.099996
v 20.365900 54.910900 0.024996
v 20.440901 54.835899 0.024996
v -39.496601 54.898399 0.037496
v -39.434101 54.910900 0.024996
v -39.509102 54.910900 0.099996
v -39.509102 54.835899 0.024996
v -39.496601 54.973400 0.037496
v -39.509102 55.035900 0.024996
v -39.509102 54.960899 0.099996
v -39.434101 54.960899 0.024996
v -39.496601 66.898399 0.037495
v -39.509102 66.835899 0.024995
v -39.434101 66.910896 0.024995
v -39.509102 66.910896 0.099995
v 20.428400 66.898399 0.037495
v 20.365900 66.910896 0.024995
v 20.440901 66.835899 0.024995
v 20.440901 66.910896 0.099995
v 20.428400 54.973400 0.037496
v 20.440901 55.035900 0.024996
v 20.365900 54.960899 0.024996
v 20.440901 54.960899 0.099996
v -39.496601 54.973400 1.562496
v -39.434101 54.960899 1.574996
v -39.509102 54.960899 1.499996
v -39.509102 55.035900 1.574996
v 20.428400 54.973400 1.562496
v 20.365900 54.960899 1.574996
v 20.440901 55.035900 1.574996
v 20.440901 54.960899 1.499996
v 20.428400 66.898399 1.562495
v 20.440901 66.835899 1.574995
v 20.365900 66.910896 1.574995
v 20.440901 66.910896 1.499995
v -39.496601 66.898399 1.562495
v -39.434101 66.910896 1.574995
v -39.509102 66.835899 1.574995
v -39.509102 66.910896 1.499995
v -39.434101 53.435902 11.861796
v -39.434101 58.251801 11.861795
v 20.365900 58.251801 11.861795
v 20.365900 53.435902 11.861796
v -39.434101 53.435902 13.461796
v 20.365900 53.435902 13.461796
v 20.365900 58.251801 13.461795
v -39.434101 58.251801 13.461795
v -39.434101 53.335899 11.961796
v 20.365900 53.335899 11.961796
v 20.365900 53.335899 13.361796
v -39.434101 53.335899 13.361796
v 20.465900 53.435902 11.961796
v 20.465900 58.251801 11.961795
v 20.465900 58.251801 13.361795
v 20.465900 53.435902 13.361796
v 20.365900 58.351799 11.961795
v -39.434101 58.351799 11.961795
v -39.434101 58.351799 13.361795
v 20.365900 58.351799 13.361795
v -39.534100 58.251801 11.961795
v -39.534100 53.435902 11.961796
v -39.534100 53.435902 13.361796
v -39.534100 58.251801 13.361795
v -39.434101 53.335899 11.761796
v -39.434101 53.335899 0.099996
v 20.365900 53.335899 0.099996
v 20.365900 53.335899 11.761796
v -39.434101 54.935902 11.761796
v 20.365900 54.935902 11.761796
v 20.365900 54.935902 0.099996
v -39.434101 54.935902 0.099996
v -39.434101 53.435902 11.861796
v 20.365900 53.435902 11.861796
v 20.365900 54.835899 11.861796
v -39.434101 54.835899 11.861796
v 20.465900 53.435902 11.761796
v 20.465900 53.435902 0.099996
v 20.465900 54.835899 0.099996
v 20.465900 54.835899 11.761796
v 20.365900 53.435902 -0.000004
v -39.434101 53.435902 -0.000004
v -39.434101 54.835899 -0.000004
v 20.365900 54.835899 -0.000004
v -39.534100 53.435902 0.099996
v -39.534100 53.435902 11.761796
v -39.534100 54.835899 11.761796
v -39.534100 54.835899 0.099996
v -39.434101 55.035900 -0.000004
v -39.434101 66.835899 -0.000005
v 20.365900 66.835899 -0.000005
v 20.365900 55.035900 -0.000004
v -39.434101 55.035900 1.599996
v 20.365900 55.035900 1.599996
v 20.365900 66.835899 1.599995
v -39.434101 66.835899 1.599995
v -39.434101 54.935902 0.099996
v 20.365900 54.935902 0.099996
v 20.365900 54.935902 1.499996
v -39.434101 54.935902 1.499996
v 20.465900 55.035900 0.099996
v 20.465900 66.835899 0.099995
v 20.465900 66.835899 1.499995
v 20.465900 55.035900 1.499996
v 20.365900 66.935898 0.099995
v -39.434101 66.935898 0.099995
v -39.434101 66.935898 1.499995
v 20.365900 66.935898 1.499995
v -39.534100 66.835899 0.099995
v -39.534100 55.035900 0.099996
v -39.534100 55.035900 1.499996
v -39.534100 66.835899 1.499995
vt 0.179840 0.226489
vt 0.179840 1.638741
vt 0.111614 1.638741
vt 0.111613 0.226489
vt 0.200355 0.226489
vt 0.268351 0.226489
vt 0.268351 1.638741
vt 0.200355 1.638741
vt 0.409645 0.226489
vt 0.429468 0.226489
vt 0.429468 1.638741
vt 0.409645 1.638741
vt -0.473156 -0.440107
vt -0.453333 -0.440107
vt -0.453333 -0.371880
vt -0.473156 -0.371880
vt 0.449752 0.226489
vt 0.469575 0.226489
vt 0.469575 1.638741
vt 0.449752 1.638741
vt -0.432819 -0.148990
vt -0.412997 -0.148990
vt -0.412997 -0.080763
vt -0.432819 -0.080763
vt -0.094220 0.226489
vt -0.094220 1.638741
vt -0.259255 1.638741
vt -0.259255 0.226489
vt -0.073706 0.226489
vt 0.091330 0.226489
vt 0.091330 1.638741
vt -0.073706 1.638741
vt 0.369309 0.226489
vt 0.389131 0.226489
vt 0.389131 1.638741
vt 0.369309 1.638741
vt -0.473156 -0.154983
vt -0.453333 -0.154983
vt -0.453333 0.010052
vt -0.473156 0.010052
vt 0.490089 0.226489
vt 0.509911 0.226489
vt 0.509911 1.638741
vt 0.490089 1.638741
vt -0.473156 0.036099
vt -0.453333 0.036099
vt -0.453333 0.201134
vt -0.473156 0.201134
vt -0.467163 0.226489
vt -0.467163 1.638741
vt -0.634043 1.638741
vt -0.634043 0.226489
vt -0.446649 0.226489
vt -0.279770 0.226489
vt -0.279769 1.638741
vt -0.446649 1.638741
vt 0.288865 0.226489
vt 0.308688 0.226489
vt 0.308688 1.638741
vt 0.288865 1.638741
vt -0.513263 0.034255
vt -0.493440 0.034255
vt -0.493440 0.201134
vt -0.513263 0.201134
vt 0.329202 0.226489
vt 0.348794 0.226489
vt 0.348794 1.638741
vt 0.329202 1.638741
vt -0.553599 -0.156827
vt -0.533777 -0.156827
vt -0.533777 0.010052
vt -0.553599 0.010052
vt 0.110461 0.226489
vt 0.110691 0.225567
vt 0.111613 0.225336
vt 0.179840 0.225336
vt 0.180762 0.225567
vt 0.180993 0.226489
vt 0.180993 1.638741
vt 0.180762 1.639663
vt 0.179840 1.639893
vt 0.111614 1.639893
vt 0.110691 1.639663
vt 0.110461 1.638741
vt 0.200355 1.639893
vt 0.199433 1.639663
vt 0.199202 1.638741
vt 0.199202 0.226489
vt 0.199433 0.225567
vt 0.200355 0.225336
vt 0.268351 0.225336
vt 0.269273 0.225567
vt 0.269504 0.226489
vt 0.269504 1.638741
vt 0.269273 1.639663
vt 0.268351 1.639893
vt 0.409645 1.639893
vt 0.408723 1.639663
vt 0.408493 1.638741
vt 0.408493 0.226489
vt 0.408723 0.225567
vt 0.409645 0.225336
vt 0.429468 0.225336
vt 0.430390 0.225567
vt 0.430621 0.226489
vt 0.430621 1.638741
vt 0.430390 1.639663
vt 0.429468 1.639893
vt -0.473156 -0.370958
vt -0.474078 -0.370958
vt -0.474309 -0.371880
vt -0.474309 -0.440107
vt -0.474078 -0.441029
vt -0.473156 -0.441260
vt -0.453333 -0.441260
vt -0.452411 -0.441029
vt -0.452181 -0.440107
vt -0.452181 -0.371880
vt -0.452411 -0.370958
vt -0.453333 -0.370958
vt 0.449752 1.639893
vt 0.448830 1.639663
vt 0.448599 1.638741
vt 0.448599 0.226489
vt 0.448830 0.225567
vt 0.449752 0.225336
vt 0.469575 0.225336
vt 0.470496 0.225567
vt 0.470727 0.226489
vt 0.470727 1.638741
vt 0.470497 1.639663
vt 0.469575 1.639893
vt -0.432819 -0.079611
vt -0.433741 -0.079841
vt -0.433972 -0.080763
vt -0.433972 -0.148990
vt -0.433741 -0.149912
vt -0.432819 -0.150142
vt -0.412997 -0.150142
vt -0.412075 -0.149912
vt -0.411844 -0.148990
vt -0.411844 -0.080763
vt -0.412075 -0.079841
vt -0.412997 -0.079611
vt -0.260408 0.226489
vt -0.260177 0.225567
vt -0.259255 0.225336
vt -0.094220 0.225336
vt -0.093298 0.225567
vt -0.093067 0.226489
vt -0.093067 1.638741
vt -0.093298 1.639663
vt -0.094220 1.639893
vt -0.259255 1.639893
vt -0.260177 1.639663
vt -0.260408 1.638741
vt -0.073706 1.639893
vt -0.074628 1.639663
vt -0.074858 1.638741
vt -0.074858 0.226489
vt -0.074628 0.225567
vt -0.073706 0.225336
vt 0.091330 0.225336
vt 0.092252 0.225567
vt 0.092252 0.226489
vt 0.092252 1.638741
vt 0.092252 1.639663
vt 0.091330 1.639893
vt 0.369309 1.639893
vt 0.368387 1.639663
vt 0.368156 1.638741
vt 0.368156 0.226489
vt 0.368387 0.225567
vt 0.369309 0.225336
vt 0.389131 0.225336
vt 0.390053 0.225567
vt 0.390284 0.226489
vt 0.390284 1.638741
vt 0.390053 1.639663
vt 0.389131 1.639893
vt -0.473156 0.011205
vt -0.474078 0.011205
vt -0.474309 0.010052
vt -0.474309 -0.154983
vt -0.474078 -0.155905
vt -0.473156 -0.155905
vt -0.453333 -0.155905
vt -0.452411 -0.155905
vt -0.452181 -0.154983
vt -0.452181 0.010052
vt -0.452411 0.011205
vt -0.453333 0.011205
vt 0.490089 1.639893
vt 0.489167 1.639663
vt 0.488936 1.638741
vt 0.488936 0.226489
vt 0.489167 0.225567
vt 0.490089 0.225336
vt 0.509911 0.225336
vt 0.510833 0.225567
vt 0.511064 0.226489
vt 0.511064 1.638741
vt 0.510833 1.639663
vt 0.509911 1.639893
vt -0.473156 0.202287
vt -0.474078 0.202056
vt -0.474309 0.201134
vt -0.474309 0.036099
vt -0.474078 0.035177
vt -0.473156 0.035177
vt -0.453333 0.035177
vt -0.452411 0.035177
vt -0.452181 0.036099
vt -0.452181 0.201134
vt -0.452411 0.202056
vt -0.453333 0.202287
vt -0.635195 0.226489
vt -0.634965 0.225567
vt -0.634043 0.225336
vt -0.467163 0.225336
vt -0.466241 0.225567
vt -0.466011 0.226489
vt -0.466011 1.638741
vt -0.466241 1.639663
vt -0.467163 1.639893
vt -0.634043 1.639893
vt -0.634965 1.639663
vt -0.635195 1.638741
vt -0.446649 1.639893
vt -0.447571 1.639662
vt -0.447801 1.638741
vt -0.447801 0.226489
vt -0.447571 0.225567
vt -0.446649 0.225336
vt -0.279770 0.225336
vt -0.278617 0.225567
vt -0.278617 0.226489
vt -0.278617 1.638741
vt -0.278617 1.639663
vt -0.279769 1.639893
vt 0.288865 1.639893
vt 0.287943 1.639663
vt 0.287713 1.638741
vt 0.287713 0.226489
vt 0.287943 0.225567
vt 0.288865 0.225336
vt 0.308688 0.225336
vt 0.309610 0.225567
vt 0.309840 0.226489
vt 0.309840 1.638741
vt 0.309610 1.639663
vt 0.308688 1.639893
vt -0.513263 0.202286
vt -0.514184 0.202056
vt -0.514415 0.201134
vt -0.514415 0.034255
vt -0.514185 0.033333
vt -0.513263 0.033102
vt -0.493440 0.033102
vt -0.492518 0.033333
vt -0.492287 0.034255
vt -0.492287 0.201134
vt -0.492518 0.202056
vt -0.493440 0.202286
vt 0.328972 1.639893
vt 0.328050 1.639663
vt 0.328050 1.638741
vt 0.328050 0.226489
vt 0.328050 0.225567
vt 0.328972 0.225336
vt 0.349025 0.225336
vt 0.349947 0.225567
vt 0.349947 0.226489
vt 0.349947 1.638741
vt 0.349947 1.639663
vt 0.349025 1.639893
vt -0.553599 0.011205
vt -0.554521 0.011205
vt -0.554752 0.010052
vt -0.554752 -0.156827
vt -0.554521 -0.157749
vt -0.553599 -0.157980
vt -0.533777 -0.157980
vt -0.532855 -0.157749
vt -0.532624 -0.156827
vt -0.532624 0.010052
vt -0.532855 0.011205
vt -0.533777 0.011205
vt 1.344308 0.509538
vt 1.344309 1.638741
vt 1.276082 1.638741
vt 1.276082 0.509538
vt 1.364592 0.509538
vt 1.432819 0.509538
vt 1.432819 1.638741
vt 1.364592 1.638741
vt 1.573883 0.509538
vt 1.593706 0.509538
vt 1.593706 1.638741
vt 1.573883 1.638741
vt -0.432819 -0.057944
vt -0.412997 -0.057944
vt -0.412997 0.010052
vt -0.432819 0.010052
vt 1.614220 0.509538
vt 1.634043 0.509538
vt 1.634043 1.638741
vt 1.614220 1.638741
vt -0.473156 -0.531153
vt -0.453333 -0.531153
vt -0.453333 -0.462926
vt -0.473156 -0.462926
vt 1.070248 0.509538
vt 1.070248 1.638741
vt 0.905213 1.638741
vt 0.905213 0.509538
vt 1.090532 0.509538
vt 1.255567 0.509538
vt 1.255568 1.638741
vt 1.090532 1.638741
vt 1.453333 0.509538
vt 1.472926 0.509538
vt 1.472926 1.638741
vt 1.453333 1.638741
vt -0.513263 -0.345834
vt -0.493440 -0.345834
vt -0.493440 -0.180799
vt -0.513263 -0.180799
vt 0.530425 -0.645940
vt 0.550018 -0.645940
vt 0.550018 0.483262
vt 0.530425 0.483262
vt -0.513263 -0.536916
vt -0.493440 -0.536916
vt -0.493440 -0.371880
vt -0.513263 -0.371880
vt 0.697305 0.509538
vt 0.697305 1.638741
vt 0.530426 1.638741
vt 0.530425 0.509538
vt 0.717819 0.509538
vt 0.884699 0.509538
vt 0.884699 1.638741
vt 0.717819 1.638741
vt 1.493440 0.509538
vt 1.513263 0.509538
vt 1.513262 1.638741
vt 1.493440 1.638741
vt -0.553599 0.034255
vt -0.533777 0.034255
vt -0.533777 0.201134
vt -0.553599 0.201134
vt 1.533777 0.509538
vt 1.553599 0.509538
vt 1.553599 1.638741
vt 1.533777 1.638741
vt -0.553599 -0.347909
vt -0.533777 -0.347909
vt -0.533777 -0.180799
vt -0.553599 -0.180799
vt 1.274929 0.509538
vt 1.275160 0.508616
vt 1.276082 0.508386
vt 1.344308 0.508386
vt 1.345231 0.508616
vt 1.345231 0.509538
vt 1.345231 1.638741
vt 1.345231 1.639663
vt 1.344309 1.639893
vt 1.276082 1.639893
vt 1.275160 1.639663
vt 1.274929 1.638741
vt 1.364592 1.639893
vt 1.363670 1.639663
vt 1.363440 1.638741
vt 1.363440 0.509538
vt 1.363670 0.508616
vt 1.364592 0.508386
vt 1.432819 0.508386
vt 1.433741 0.508616
vt 1.433972 0.509538
vt 1.433972 1.638741
vt 1.433741 1.639663
vt 1.432819 1.639893
vt 1.573883 1.639893
vt 1.572961 1.639663
vt 1.572731 1.638741
vt 1.572731 0.509538
vt 1.572961 0.508616
vt 1.573883 0.508386
vt 1.593706 0.508386
vt 1.594628 0.508616
vt 1.594858 0.509538
vt 1.594858 1.638741
vt 1.594628 1.639663
vt 1.593706 1.639893
vt -0.432819 0.011205
vt -0.433741 0.011205
vt -0.433972 0.010052
vt -0.433972 -0.057944
vt -0.433741 -0.058866
vt -0.432819 -0.059096
vt -0.412997 -0.059096
vt -0.412075 -0.058866
vt -0.411844 -0.057944
vt -0.411844 0.010052
vt -0.412075 0.011205
vt -0.412997 0.011205
vt 1.614220 1.639893
vt 1.613298 1.639663
vt 1.613068 1.638741
vt 1.613068 0.509538
vt 1.613298 0.508616
vt 1.614220 0.508386
vt 1.634043 0.508386
vt 1.634964 0.508616
vt 1.635195 0.509538
vt 1.635195 1.638741
vt 1.634965 1.639663
vt 1.634043 1.639893
vt -0.473156 -0.461774
vt -0.474078 -0.462004
vt -0.474309 -0.462926
vt -0.474309 -0.531153
vt -0.474078 -0.532075
vt -0.473156 -0.532306
vt -0.453333 -0.532306
vt -0.452411 -0.532075
vt -0.452181 -0.531153
vt -0.452181 -0.462926
vt -0.452411 -0.462004
vt -0.453333 -0.461774
vt 0.904060 0.509538
vt 0.904291 0.508616
vt 0.905213 0.508386
vt 1.070248 0.508386
vt 1.071170 0.508616
vt 1.071170 0.509538
vt 1.071170 1.638741
vt 1.071170 1.639663
vt 1.070248 1.639893
vt 0.905213 1.639893
vt 0.904291 1.639663
vt 0.904060 1.638741
vt 1.090532 1.639893
vt 1.089610 1.639663
vt 1.089380 1.638741
vt 1.089379 0.509538
vt 1.089610 0.508616
vt 1.090532 0.508386
vt 1.255567 0.508386
vt 1.256489 0.508616
vt 1.256720 0.509538
vt 1.256720 1.638741
vt 1.256490 1.639663
vt 1.255568 1.639893
vt 1.453103 1.639893
vt 1.452181 1.639663
vt 1.452181 1.638741
vt 1.452181 0.509538
vt 1.452181 0.508616
vt 1.453103 0.508386
vt 1.473156 0.508386
vt 1.474078 0.508616
vt 1.474078 0.509538
vt 1.474078 1.638741
vt 1.474078 1.639663
vt 1.473156 1.639893
vt -0.513263 -0.179877
vt -0.514184 -0.179877
vt -0.514415 -0.180799
vt -0.514415 -0.345834
vt -0.514184 -0.346987
vt -0.513263 -0.346987
vt -0.493440 -0.346987
vt -0.492518 -0.346987
vt -0.492287 -0.345834
vt -0.492287 -0.180799
vt -0.492518 -0.179877
vt -0.493440 -0.179877
vt 0.530195 0.484414
vt 0.529273 0.484184
vt 0.529273 0.483262
vt 0.529273 -0.645941
vt 0.529273 -0.646863
vt 0.530195 -0.647093
vt 0.550248 -0.647093
vt 0.551170 -0.646863
vt 0.551170 -0.645941
vt 0.551170 0.483262
vt 0.551170 0.484184
vt 0.550248 0.484414
vt -0.513263 -0.370958
vt -0.514184 -0.370958
vt -0.514415 -0.371880
vt -0.514415 -0.536916
vt -0.514185 -0.537838
vt -0.513263 -0.538068
vt -0.493440 -0.538068
vt -0.492518 -0.537838
vt -0.492288 -0.536916
vt -0.492287 -0.371880
vt -0.492518 -0.370958
vt -0.493440 -0.370958
vt 0.529273 0.509538
vt 0.529273 0.508616
vt 0.530195 0.508386
vt 0.697305 0.508386
vt 0.698227 0.508616
vt 0.698457 0.509538
vt 0.698457 1.638741
vt 0.698227 1.639663
vt 0.697305 1.639893
vt 0.530195 1.639893
vt 0.529273 1.639663
vt 0.529273 1.638741
vt 0.717819 1.639893
vt 0.716897 1.639663
vt 0.716667 1.638741
vt 0.716667 0.509538
vt 0.716897 0.508616
vt 0.717819 0.508386
vt 0.884699 0.508386
vt 0.885621 0.508616
vt 0.885851 0.509538
vt 0.885851 1.638741
vt 0.885621 1.639663
vt 0.884699 1.639893
vt 1.493440 1.639893
vt 1.492518 1.639663
vt 1.492287 1.638741
vt 1.492287 0.509538
vt 1.492518 0.508616
vt 1.493440 0.508386
vt 1.513263 0.508386
vt 1.514184 0.508616
vt 1.514415 0.509538
vt 1.514415 1.638741
vt 1.514184 1.639663
vt 1.513262 1.639893
vt -0.553599 0.202287
vt -0.554521 0.202056
vt -0.554752 0.201134
vt -0.554752 0.034255
vt -0.554521 0.033333
vt -0.553599 0.033102
vt -0.533777 0.033102
vt -0.532855 0.033333
vt -0.532624 0.034255
vt -0.532624 0.201134
vt -0.532855 0.202056
vt -0.533777 0.202287
vt 1.533777 1.639893
vt 1.532855 1.639663
vt 1.532624 1.638741
vt 1.532624 0.509538
vt 1.532855 0.508616
vt 1.533777 0.508386
vt 1.553599 0.508386
vt 1.554521 0.508616
vt 1.554752 0.509538
vt 1.554752 1.638741
vt 1.554521 1.639663
vt 1.553599 1.639893
vt -0.553599 -0.179877
vt -0.554521 -0.179877
vt -0.554752 -0.180799
vt -0.554752 -0.347909
vt -0.554521 -0.348831
vt -0.553599 -0.349061
vt -0.533777 -0.349061
vt -0.532855 -0.348831
vt -0.532624 -0.347909
vt -0.532624 -0.180799
vt -0.532855 -0.179877
vt -0.533777 -0.179877
vt 1.384415 -0.362891
vt 1.384415 0.483262
vt 1.316188 0.483262
vt 1.316188 -0.362891
vt 1.404929 -0.362891
vt 1.472926 -0.362891
vt 1.472926 0.483262
vt 1.404929 0.483262
vt 1.573883 -0.362891
vt 1.593706 -0.362891
vt 1.593706 0.483262
vt 1.573883 0.483262
vt -0.392482 0.133138
vt -0.372890 0.133138
vt -0.372890 0.201134
vt -0.392482 0.201134
vt 1.614220 -0.362891
vt 1.634043 -0.362891
vt 1.634043 0.483262
vt 1.614220 0.483262
vt -0.432819 -0.240036
vt -0.412997 -0.240036
vt -0.412997 -0.171809
vt -0.432819 -0.171809
vt 1.110355 -0.362891
vt 1.110355 0.483262
vt 0.945319 0.483262
vt 0.945319 -0.362891
vt 1.130869 -0.362891
vt 1.295904 -0.362891
vt 1.295904 0.483262
vt 1.130869 0.483262
vt -0.634043 -0.645018
vt -0.614220 -0.645018
vt -0.614220 0.201134
vt -0.634043 0.201134
vt -0.432819 0.036099
vt -0.412996 0.036099
vt -0.412997 0.201134
vt -0.432819 0.201134
vt -0.593706 -0.645018
vt -0.574114 -0.645018
vt -0.574114 0.201134
vt -0.593706 0.201134
vt -0.473156 -0.345834
vt -0.453333 -0.345834
vt -0.453333 -0.180799
vt -0.473156 -0.180799
vt 0.737642 -0.362891
vt 0.737642 0.483262
vt 0.570532 0.483262
vt 0.570532 -0.362891
vt 0.757926 -0.362891
vt 0.925036 -0.362891
vt 0.925036 0.483262
vt 0.757926 0.483262
vt 1.493440 -0.362891
vt 1.513263 -0.362891
vt 1.513263 0.483262
vt 1.493440 0.483262
vt -0.513263 -0.156827
vt -0.493440 -0.156827
vt -0.493440 0.010052
vt -0.513263 0.010052
vt 1.533777 -0.362891
vt 1.553599 -0.362891
vt 1.553599 0.483262
vt 1.533777 0.483262
vt -0.553599 -0.538990
vt -0.533777 -0.538990
vt -0.533777 -0.371880
vt -0.553599 -0.371880
vt 1.315266 -0.362891
vt 1.315266 -0.363813
vt 1.316188 -0.364043
vt 1.384415 -0.364043
vt 1.385337 -0.363813
vt 1.385567 -0.362891
vt 1.385567 0.483262
vt 1.385337 0.484184
vt 1.384415 0.484414
vt 1.316188 0.484414
vt 1.315266 0.484184
vt 1.315266 0.483262
vt 1.404929 0.484414
vt 1.404007 0.484184
vt 1.403777 0.483262
vt 1.403777 -0.362891
vt 1.404007 -0.363813
vt 1.404929 -0.364043
vt 1.473156 -0.364043
vt 1.474078 -0.363813
vt 1.474078 -0.362891
vt 1.474078 0.483262
vt 1.474078 0.484184
vt 1.473156 0.484414
vt 1.573883 0.484414
vt 1.572961 0.484184
vt 1.572731 0.483262
vt 1.572731 -0.362891
vt 1.572961 -0.363813
vt 1.573883 -0.364043
vt 1.593706 -0.364043
vt 1.594628 -0.363813
vt 1.594858 -0.362891
vt 1.594858 0.483262
vt 1.594628 0.484184
vt 1.593706 0.484414
vt -0.392713 0.202287
vt -0.393635 0.202056
vt -0.393635 0.201134
vt -0.393635 0.133138
vt -0.393635 0.132216
vt -0.392713 0.131985
vt -0.372660 0.131985
vt -0.371738 0.132216
vt -0.371738 0.133138
vt -0.371738 0.201134
vt -0.371738 0.202056
vt -0.372660 0.202286
vt 1.614220 0.484414
vt 1.613298 0.484184
vt 1.613068 0.483262
vt 1.613068 -0.362891
vt 1.613298 -0.363813
vt 1.614220 -0.364043
vt 1.634043 -0.364043
vt 1.634965 -0.363813
vt 1.635195 -0.362891
vt 1.635195 0.483262
vt 1.634965 0.484184
vt 1.634043 0.484414
vt -0.432819 -0.170657
vt -0.433741 -0.170887
vt -0.433972 -0.171809
vt -0.433972 -0.240036
vt -0.433741 -0.240958
vt -0.432819 -0.241189
vt -0.412997 -0.241189
vt -0.412075 -0.240958
vt -0.411844 -0.240036
vt -0.411844 -0.171809
vt -0.412075 -0.170887
vt -0.412997 -0.170657
vt 0.944167 -0.362891
vt 0.944397 -0.363813
vt 0.945319 -0.364043
vt 1.110355 -0.364043
vt 1.111277 -0.363813
vt 1.111507 -0.362891
vt 1.111507 0.483262
vt 1.111277 0.484184
vt 1.110355 0.484414
vt 0.945319 0.484414
vt 0.944397 0.484184
vt 0.944167 0.483262
vt 1.130869 0.484414
vt 1.129947 0.484184
vt 1.129716 0.483262
vt 1.129716 -0.362891
vt 1.129947 -0.363813
vt 1.130869 -0.364043
vt 1.295904 -0.364043
vt 1.296826 -0.363813
vt 1.297057 -0.362891
vt 1.297057 0.483262
vt 1.296826 0.484184
vt 1.295904 0.484414
vt -0.634043 0.202287
vt -0.634965 0.202056
vt -0.635195 0.201134
vt -0.635195 -0.645018
vt -0.634965 -0.645941
vt -0.634043 -0.646171
vt -0.614220 -0.646171
vt -0.613298 -0.645941
vt -0.613068 -0.645018
vt -0.613068 0.201134
vt -0.613298 0.202056
vt -0.614220 0.202287
vt -0.432819 0.202287
vt -0.433741 0.202056
vt -0.433972 0.201134
vt -0.433972 0.036099
vt -0.433741 0.035177
vt -0.432819 0.035177
vt -0.412997 0.035177
vt -0.412075 0.035177
vt -0.411844 0.036099
vt -0.411844 0.201134
vt -0.412075 0.202056
vt -0.412997 0.202286
vt -0.593936 0.202287
vt -0.594858 0.202056
vt -0.594858 0.201134
vt -0.594858 -0.645018
vt -0.594858 -0.645941
vt -0.593936 -0.646171
vt -0.573883 -0.646171
vt -0.572961 -0.645941
vt -0.572961 -0.645018
vt -0.572961 0.201134
vt -0.572961 0.202056
vt -0.573883 0.202287
vt -0.473156 -0.179877
vt -0.474078 -0.179877
vt -0.474309 -0.180799
vt -0.474309 -0.345834
vt -0.474078 -0.346987
vt -0.473156 -0.346987
vt -0.453333 -0.346987
vt -0.452411 -0.346987
vt -0.452181 -0.345834
vt -0.452181 -0.180799
vt -0.452411 -0.179877
vt -0.453333 -0.179877
vt 0.569379 -0.362891
vt 0.569610 -0.363813
vt 0.570532 -0.364043
vt 0.737642 -0.364043
vt 0.738564 -0.363813
vt 0.738564 -0.362891
vt 0.738564 0.483262
vt 0.738564 0.484184
vt 0.737642 0.484414
vt 0.570532 0.484414
vt 0.569610 0.484184
vt 0.569379 0.483262
vt 0.757926 0.484414
vt 0.757004 0.484184
vt 0.756773 0.483262
vt 0.756773 -0.362891
vt 0.757004 -0.363813
vt 0.757926 -0.364043
vt 0.925036 -0.364043
vt 0.925958 -0.363813
vt 0.926188 -0.362891
vt 0.926188 0.483262
vt 0.925958 0.484184
vt 0.925036 0.484414
vt 1.493440 0.484414
vt 1.492518 0.484184
vt 1.492287 0.483262
vt 1.492287 -0.362891
vt 1.492518 -0.363813
vt 1.493440 -0.364043
vt 1.513263 -0.364043
vt 1.514184 -0.363813
vt 1.514415 -0.362891
vt 1.514415 0.483262
vt 1.514184 0.484184
vt 1.513263 0.484414
vt -0.513263 0.011205
vt -0.514185 0.011205
vt -0.514415 0.010052
vt -0.514415 -0.156827
vt -0.514184 -0.157749
vt -0.513263 -0.157980
vt -0.493440 -0.157980
vt -0.492518 -0.157749
vt -0.492287 -0.156827
vt -0.492287 0.010052
vt -0.492518 0.011205
vt -0.493440 0.011205
vt 1.533777 0.484414
vt 1.532855 0.484184
vt 1.532624 0.483262
vt 1.532624 -0.362891
vt 1.532855 -0.363813
vt 1.533777 -0.364043
vt 1.553599 -0.364043
vt 1.554521 -0.363813
vt 1.554752 -0.362891
vt 1.554752 0.483262
vt 1.554521 0.484184
vt 1.553599 0.484414
vt -0.553599 -0.370958
vt -0.554521 -0.370958
vt -0.554752 -0.371880
vt -0.554752 -0.538990
vt -0.554522 -0.539912
vt -0.553599 -0.540143
vt -0.533777 -0.540143
vt -0.532855 -0.539912
vt -0.532624 -0.538990
vt -0.532624 -0.371880
vt -0.532855 -0.370958
vt -0.533777 -0.370958
s 0
usemtl shelves
f 98/1 99/2 100/3 97/4
f 102/5 103/6 104/7 101/8
f 106/9 107/10 108/11 105/12
f 110/13 111/14 112/15 109/16
f 114/17 115/18 116/19 113/20
f 118/21 119/22 120/23 117/24
f 122/25 123/26 124/27 121/28
f 126/29 127/30 128/31 125/32
f 130/33 131/34 132/35 129/36
f 134/37 135/38 136/39 133/40
f 138/41 139/42 140/43 137/44
f 142/45 143/46 144/47 141/48
f 146/49 147/50 148/51 145/52
f 150/53 151/54 152/55 149/56
f 154/57 155/58 156/59 153/60
f 158/61 159/62 160/63 157/64
f 162/65 163/66 164/67 161/68
f 166/69 167/70 168/71 165/72
f 97/4 4/73 1/74 2/75
f 98/1 6/76 5/77 7/78
f 99/2 10/79 9/80 11/81
f 100/3 14/82 13/83 15/84
f 101/8 20/85 17/86 18/87
f 102/5 22/88 21/89 23/90
f 103/6 26/91 25/92 27/93
f 104/7 30/94 29/95 31/96
f 105/12 3/97 1/98 4/99
f 106/9 15/100 13/101 16/102
f 107/10 24/103 21/104 22/105
f 108/11 18/106 17/107 19/108
f 109/16 16/109 13/110 14/111
f 110/13 11/112 9/113 12/114
f 111/14 28/115 25/116 26/117
f 112/15 23/118 21/119 24/120
f 113/20 12/121 9/122 10/123
f 114/17 7/124 5/125 8/126
f 115/18 32/127 29/128 30/129
f 116/19 27/130 25/131 28/132
f 117/24 8/133 5/134 6/135
f 118/21 2/136 1/137 3/138
f 119/22 19/139 17/140 20/141
f 120/23 31/142 29/143 32/144
f 121/28 36/145 33/146 34/147
f 122/25 38/148 37/149 39/150
f 123/26 42/151 41/152 43/153
f 124/27 46/154 45/155 47/156
f 125/32 52/157 49/158 50/159
f 126/29 54/160 53/161 55/162
f 127/30 58/163 57/164 59/165
f 128/31 62/166 61/167 63/168
f 129/36 35/169 33/170 36/171
f 130/33 47/172 45/173 48/174
f 131/34 56/175 53/176 54/177
f 132/35 50/178 49/179 51/180
f 133/40 48/181 45/182 46/183
f 134/37 43/184 41/185 44/186
f 135/38 60/187 57/188 58/189
f 136/39 55/190 53/191 56/192
f 137/44 44/193 41/194 42/195
f 138/41 39/196 37/197 40/198
f 139/42 64/199 61/200 62/201
f 140/43 59/202 57/203 60/204
f 141/48 40/205 37/206 38/207
f 142/45 34/208 33/209 35/210
f 143/46 51/211 49/212 52/213
f 144/47 63/214 61/215 64/216
f 145/52 68/217 65/218 66/219
f 146/49 70/220 69/221 71/222
f 147/50 74/223 73/224 75/225
f 148/51 78/226 77/227 79/228
f 149/56 84/229 81/230 82/231
f 150/53 86/232 85/233 87/234
f 151/54 90/235 89/236 91/237
f 152/55 94/238 93/239 95/240
f 153/60 67/241 65/242 68/243
f 154/57 79/244 77/245 80/246
f 155/58 88/247 85/248 86/249
f 156/59 82/250 81/251 83/252
f 157/64 80/253 77/254 78/255
f 158/61 75/256 73/257 76/258
f 159/62 92/259 89/260 90/261
f 160/63 87/262 85/263 88/264
f 161/68 76/265 73/266 74/267
f 162/65 71/268 69/269 72/270
f 163/66 96/271 93/272 94/273
f 164/67 91/274 89/275 92/276
f 165/72 72/277 69/278 70/279
f 166/69 66/280 65/281 67/282
f 167/70 83/283 81/284 84/285
f 168/71 95/286 93/287 96/288
f 98/1 97/4 2/75 6/76
f 99/2 98/1 7/78 10/79
f 100/3 99/2 11/81 14/82
f 97/4 100/3 15/84 4/73
f 102/5 101/8 18/87 22/88
f 103/6 102/5 23/90 26/91
f 104/7 103/6 27/93 30/94
f 101/8 104/7 31/96 20/85
f 106/9 105/12 4/99 15/100
f 107/10 106/9 16/102 24/103
f 108/11 107/10 22/105 18/106
f 105/12 108/11 19/108 3/97
f 110/13 109/16 14/111 11/112
f 111/14 110/13 12/114 28/115
f 112/15 111/14 26/117 23/118
f 109/16 112/15 24/120 16/109
f 114/17 113/20 10/123 7/124
f 115/18 114/17 8/126 32/127
f 116/19 115/18 30/129 27/130
f 113/20 116/19 28/132 12/121
f 118/21 117/24 6/135 2/136
f 119/22 118/21 3/138 19/139
f 120/23 119/22 20/141 31/142
f 117/24 120/23 32/144 8/133
f 122/25 121/28 34/147 38/148
f 123/26 122/25 39/150 42/151
f 124/27 123/26 43/153 46/154
f 121/28 124/27 47/156 36/145
f 126/29 125/32 50/159 54/160
f 127/30 126/29 55/162 58/163
f 128/31 127/30 59/165 62/166
f 125/32 128/31 63/168 52/157
f 130/33 129/36 36/171 47/172
f 131/34 130/33 48/174 56/175
f 132/35 131/34 54/177 50/178
f 129/36 132/35 51/180 35/169
f 134/37 133/40 46/183 43/184
f 135/38 134/37 44/186 60/187
f 136/39 135/38 58/189 55/190
f 133/40 136/39 56/192 48/181
f 138/41 137/44 42/195 39/196
f 139/42 138/41 40/198 64/199
f 140/43 139/42 62/201 59/202
f 137/44 140/43 60/204 44/193
f 142/45 141/48 38/207 34/208
f 143/46 142/45 35/210 51/211
f 144/47 143/46 52/213 63/214
f 141/48 144/47 64/216 40/205
f 146/49 145/52 66/219 70/220
f 147/50 146/49 71/222 74/223
f 148/51 147/50 75/225 78/226
f 145/52 148/51 79/228 68/217
f 150/53 149/56 82/231 86/232
f 151/54 150/53 87/234 90/235
f 152/55 151/54 91/237 94/238
f 149/56 152/55 95/240 84/229
f 154/57 153/60 68/243 79/244
f 155/58 154/57 80/246 88/247
f 156/59 155/58 86/249 82/250
f 153/60 156/59 83/252 67/241
f 158/61 157/64 78/255 75/256
f 159/62 158/61 76/258 92/259
f 160/63 159/62 90/261 87/262
f 157/64 160/63 88/264 80/253
f 162/65 161/68 74/267 71/268
f 163/66 162/65 72/270 96/271
f 164/67 163/66 94/273 91/274
f 161/68 164/67 92/276 76/265
f 166/69 165/72 70/279 66/280
f 167/70 166/69 67/282 83/283
f 168/71 167/70 84/285 95/286
f 165/72 168/71 96/288 72/277
f 266/289 267/290 268/291 265/292
f 270/293 271/294 272/295 269/296
f 274/297 275/298 276/299 273/300
f 278/301 279/302 280/303 277/304
f 282/305 283/306 284/307 281/308
f 286/309 287/310 288/311 285/312
f 290/313 291/314 292/315 289/316
f 294/317 295/318 296/319 293/320
f 298/321 299/322 300/323 297/324
f 302/325 303/326 304/327 301/328
f 306/329 307/330 308/331 305/332
f 310/333 311/334 312/335 309/336
f 314/337 315/338 316/339 313/340
f 318/341 319/342 320/343 317/344
f 322/345 323/346 324/347 321/348
f 326/349 327/350 328/351 325/352
f 330/353 331/354 332/355 329/356
f 334/357 335/358 336/359 333/360
f 265/292 172/361 169/362 170/363
f 266/289 174/364 173/365 175/366
f 267/290 178/367 177/368 179/369
f 268/291 182/370 181/371 183/372
f 269/296 188/373 185/374 186/375
f 270/293 190/376 189/377 191/378
f 271/294 194/379 193/380 195/381
f 272/295 198/382 197/383 199/384
f 273/300 171/385 169/386 172/387
f 274/297 183/388 181/389 184/390
f 275/298 192/391 189/392 190/393
f 276/299 186/394 185/395 187/396
f 277/304 184/397 181/398 182/399
f 278/301 179/400 177/401 180/402
f 279/302 196/403 193/404 194/405
f 280/303 191/406 189/407 192/408
f 281/308 180/409 177/410 178/411
f 282/305 175/412 173/413 176/414
f 283/306 200/415 197/416 198/417
f 284/307 195/418 193/419 196/420
f 285/312 176/421 173/422 174/423
f 286/309 170/424 169/425 171/426
f 287/310 187/427 185/428 188/429
f 288/311 199/430 197/431 200/432
f 289/316 204/433 201/434 202/435
f 290/313 206/436 205/437 207/438
f 291/314 210/439 209/440 211/441
f 292/315 214/442 213/443 215/444
f 293/320 220/445 217/446 218/447
f 294/317 222/448 221/449 223/450
f 295/318 226/451 225/452 227/453
f 296/319 230/454 229/455 231/456
f 297/324 203/457 201/458 204/459
f 298/321 215/460 213/461 216/462
f 299/322 224/463 221/464 222/465
f 300/323 218/466 217/467 219/468
f 301/328 216/469 213/470 214/471
f 302/325 211/472 209/473 212/474
f 303/326 228/475 225/476 226/477
f 304/327 223/478 221/479 224/480
f 305/332 212/481 209/482 210/483
f 306/329 207/484 205/485 208/486
f 307/330 232/487 229/488 230/489
f 308/331 227/490 225/491 228/492
f 309/336 208/493 205/494 206/495
f 310/333 202/496 201/497 203/498
f 311/334 219/499 217/500 220/501
f 312/335 231/502 229/503 232/504
f 313/340 236/505 233/506 234/507
f 314/337 238/508 237/509 239/510
f 315/338 242/511 241/512 243/513
f 316/339 246/514 245/515 247/516
f 317/344 252/517 249/518 250/519
f 318/341 254/520 253/521 255/522
f 319/342 258/523 257/524 259/525
f 320/343 262/526 261/527 263/528
f 321/348 235/529 233/530 236/531
f 322/345 247/532 245/533 248/534
f 323/346 256/535 253/536 254/537
f 324/347 250/538 249/539 251/540
f 325/352 248/541 245/542 246/543
f 326/349 243/544 241/545 244/546
f 327/350 260/547 257/548 258/549
f 328/351 255/550 253/551 256/552
f 329/356 244/553 241/554 242/555
f 330/353 239/556 237/557 240/558
f 331/354 264/559 261/560 262/561
f 332/355 259/562 257/563 260/564
f 333/360 240/565 237/566 238/567
f 334/357 234/568 233/569 235/570
f 335/358 251/571 249/572 252/573
f 336/359 263/574 261/575 264/576
f 266/289 265/292 170/363 174/364
f 267/290 266/289 175/366 178/367
f 268/291 267/290 179/369 182/370
f 265/292 268/291 183/372 172/361
f 270/293 269/296 186/375 190/376
f 271/294 270/293 191/378 194/379
f 272/295 271/294 195/381 198/382
f 269/296 272/295 199/384 188/373
f 274/297 273/300 172/387 183/388
f 275/298 274/297 184/390 192/391
f 276/299 275/298 190/393 186/394
f 273/300 276/299 187/396 171/385
f 278/301 277/304 182/399 179/400
f 279/302 278/301 180/402 196/403
f 280/303 279/302 194/405 191/406
f 277/304 280/303 192/408 184/397
f 282/305 281/308 178/411 175/412
f 283/306 282/305 176/414 200/415
f 284/307 283/306 198/417 195/418
f 281/308 284/307 196/420 180/409
f 286/309 285/312 174/423 170/424
f 287/310 286/309 171/426 187/427
f 288/311 287/310 188/429 199/430
f 285/312 288/311 200/432 176/421
f 290/313 289/316 202/435 206/436
f 291/314 290/313 207/438 210/439
f 292/315 291/314 211/441 214/442
f 289/316 292/315 215/444 204/433
f 294/317 293/320 218/447 222/448
f 295/318 294/317 223/450 226/451
f 296/319 295/318 227/453 230/454
f 293/320 296/319 231/456 220/445
f 298/321 297/324 204/459 215/460
f 299/322 298/321 216/462 224/463
f 300/323 299/322 222/465 218/466
f 297/324 300/323 219/468 203/457
f 302/325 301/328 214/471 211/472
f 303/326 302/325 212/474 228/475
f 304/327 303/326 226/477 223/478
f 301/328 304/327 224/480 216/469
f 306/329 305/332 210/483 207/484
f 307/330 306/329 208/486 232/487
f 308/331 307/330 230/489 227/490
f 305/332 308/331 228/492 212/481
f 310/333 309/336 206/495 202/496
f 311/334 310/333 203/498 219/499
f 312/335 311/334 220/501 231/502
f 309/336 312/335 232/504 208/493
f 314/337 313/340 234/507 238/508
f 315/338 314/337 239/510 242/511
f 316/339 315/338 243/513 246/514
f 313/340 316/339 247/516 236/505
f 318/341 317/344 250/519 254/520
f 319/342 318/341 255/522 258/523
f 320/343 319/342 259/525 262/526
f 317/344 320/343 263/528 252/517
f 322/345 321/348 236/531 247/532
f 323/346 322/345 248/534 256/535
f 324/347 323/346 254/537 250/538
f 321/348 324/347 251/540 235/529
f 326/349 325/352 246/543 243/544
f 327/350 326/349 244/546 260/547
f 328/351 327/350 258/549 255/550
f 325/352 328/351 256/552 248/541
f 330/353 329/356 242/555 239/556
f 331/354 330/353 240/558 264/559
f 332/355 331/354 262/561 259/562
f 329/356 332/355 260/564 244/553
f 334/357 333/360 238/567 234/568
f 335/358 334/357 235/570 251/571
f 336/359 335/358 252/573 263/574
f 333/360 336/359 264/576 240/565
f 434/577 435/578 436/579 433/580
f 438/581 439/582 440/583 437/584
f 442/585 443/586 444/587 441/588
f 446/589 447/590 448/591 445/592
f 450/593 451/594 452/595 449/596
f 454/597 455/598 456/599 453/600
f 458/601 459/602 460/603 457/604
f 462/605 463/606 464/607 461/608
f 466/609 467/610 468/611 465/612
f 470/613 471/614 472/615 469/616
f 474/617 475/618 476/619 473/620
f 478/621 479/622 480/623 477/624
f 482/625 483/626 484/627 481/628
f 486/629 487/630 488/631 485/632
f 490/633 491/634 492/635 489/636
f 494/637 495/638 496/639 493/640
f 498/641 499/642 500/643 497/644
f 502/645 503/646 504/647 501/648
f 433/580 340/649 337/650 338/651
f 434/577 342/652 341/653 343/654
f 435/578 346/655 345/656 347/657
f 436/579 350/658 349/659 351/660
f 437/584 356/661 353/662 354/663
f 438/581 358/664 357/665 359/666
f 439/582 362/667 361/668 363/669
f 440/583 366/670 365/671 367/672
f 441/588 339/673 337/674 340/675
f 442/585 351/676 349/677 352/678
f 443/586 360/679 357/680 358/681
f 444/587 354/682 353/683 355/684
f 445/592 352/685 349/686 350/687
f 446/589 347/688 345/689 348/690
f 447/590 364/691 361/692 362/693
f 448/591 359/694 357/695 360/696
f 449/596 348/697 345/698 346/699
f 450/593 343/700 341/701 344/702
f 451/594 368/703 365/704 366/705
f 452/595 363/706 361/707 364/708
f 453/600 344/709 341/710 342/711
f 454/597 338/712 337/713 339/714
f 455/598 355/715 353/716 356/717
f 456/599 367/718 365/719 368/720
f 457/604 372/721 369/722 370/723
f 458/601 374/724 373/725 375/726
f 459/602 378/727 377/728 379/729
f 460/603 382/730 381/731 383/732
f 461/608 388/733 385/734 386/735
f 462/605 390/736 389/737 391/738
f 463/606 394/739 393/740 395/741
f 464/607 398/742 397/743 399/744
f 465/612 371/745 369/746 372/747
f 466/609 383/748 381/749 384/750
f 467/610 392/751 389/752 390/753
f 468/611 386/754 385/755 387/756
f 469/616 384/757 381/758 382/759
f 470/613 379/760 377/761 380/762
f 471/614 396/763 393/764 394/765
f 472/615 391/766 389/767 392/768
f 473/620 380/769 377/770 378/771
f 474/617 375/772 373/773 376/774
f 475/618 400/775 397/776 398/777
f 476/619 395/778 393/779 396/780
f 477/624 376/781 373/782 374/783
f 478/621 370/784 369/785 371/786
f 479/622 387/787 385/788 388/789
f 480/623 399/790 397/791 400/792
f 481/628 404/793 401/794 402/795
f 482/625 406/796 405/797 407/798
f 483/626 410/799 409/800 411/801
f 484/627 414/802 413/803 415/804
f 485/632 420/805 417/806 418/807
f 486/629 422/808 421/809 423/810
f 487/630 426/811 425/812 427/813
f 488/631 430/814 429/815 431/816
f 489/636 403/817 401/818 404/819
f 490/633 415/820 413/821 416/822
f 491/634 424/823 421/824 422/825
f 492/635 418/826 417/827 419/828
f 493/640 416/829 413/830 414/831
f 494/637 411/832 409/833 412/834
f 495/638 428/835 425/836 426/837
f 496/639 423/838 421/839 424/840
f 497/644 412/841 409/842 410/843
f 498/641 407/844 405/845 408/846
f 499/642 432/847 429/848 430/849
f 500/643 427/850 425/851 428/852
f 501/648 408/853 405/854 406/855
f 502/645 402/856 401/857 403/858
f 503/646 419/859 417/860 420/861
f 504/647 431/862 429/863 432/864
f 434/577 433/580 338/651 342/652
f 435/578 434/577 343/654 346/655
f 436/579 435/578 347/657 350/658
f 433/580 436/579 351/660 340/649
f 438/581 437/584 354/663 358/664
f 439/582 438/581 359/666 362/667
f 440/583 439/582 363/669 366/670
f 437/584 440/583 367/672 356/661
f 442/585 441/588 340/675 351/676
f 443/586 442/585 352/678 360/679
f 444/587 443/586 358/681 354/682
f 441/588 444/587 355/684 339/673
f 446/589 445/592 350/687 347/688
f 447/590 446/589 348/690 364/691
f 448/591 447/590 362/693 359/694
f 445/592 448/591 360/696 352/685
f 450/593 449/596 346/699 343/700
f 451/594 450/593 344/702 368/703
f 452/595 451/594 366/705 363/706
f 449/596 452/595 364/708 348/697
f 454/597 453/600 342/711 338/712
f 455/598 454/597 339/714 355/715
f 456/599 455/598 356/717 367/718
f 453/600 456/599 368/720 344/709
f 458/601 457/604 370/723 374/724
f 459/602 458/601 375/726 378/727
f 460/603 459/602 379/729 382/730
f 457/604 460/603 383/732 372/721
f 462/605 461/608 386/735 390/736
f 463/606 462/605 391/738 394/739
f 464/607 463/606 395/741 398/742
f 461/608 464/607 399/744 388/733
f 466/609 465/612 372/747 383/748
f 467/610 466/609 384/750 392/751
f 468/611 467/610 390/753 386/754
f 465/612 468/611 387/756 371/745
f 470/613 469/616 382/759 379/760
f 471/614 470/613 380/762 396/763
f 472/615 471/614 394/765 391/766
f 469/616 472/615 392/768 384/757
f 474/617 473/620 378/771 375/772
f 475/618 474/617 376/774 400/775
f 476/619 475/618 398/777 395/778
f 473/620 476/619 396/780 380/769
f 478/621 477/624 374/783 370/784
f 479/622 478/621 371/786 387/787
f 480/623 479/622 388/789 399/790
f 477/624 480/623 400/792 376/781
f 482/625 481/628 402/795 406/796
f 483/626 482/625 407/798 410/799
f 484/627 483/626 411/801 414/802
f 481/628 484/627 415/804 404/793
f 486/629 485/632 418/807 422/808
f 487/630 486/629 423/810 426/811
f 488/631 487/630 427/813 430/814
f 485/632 488/631 431/816 420/805
f 490/633 489/636 404/819 415/820
f 491/634 490/633 416/822 424/823
f 492/635 491/634 422/825 418/826
f 489/636 492/635 419/828 403/817
f 494/637 493/640 414/831 411/832
f 495/638 494/637 412/834 428/835
f 496/639 495/638 426/837 423/838
f 493/640 496/639 424/840 416/829
f 498/641 497/644 410/843 407/844
f 499/642 498/641 408/846 432/847
f 500/643 499/642 430/849 427/850
f 497/644 500/643 428/852 412/841
f 502/645 501/648 406/855 402/856
f 503/646 502/645 403/858 419/859
f 504/647 503/646 420/861 431/862
f 501/648 504/647 432/864 408/853
