# Blender 5.0.0
# www.blender.org
mtllib photo-frame-2.mtl
o Lifestyle_099
v -7.077393 4.398014 -0.955566
v 7.165771 4.398015 -0.955567
v 7.165772 -4.402986 0.596313
v -7.077392 -4.402987 0.596314
v -9.425780 -6.833687 0.964722
v 9.637696 -6.833686 0.964721
v 9.637694 6.808114 -1.440796
v -9.425782 6.808113 -1.440796
v -9.425780 -6.823386 1.023072
v 9.637696 -6.823384 1.023071
v 9.637694 6.818414 -1.382325
v -9.425782 6.818412 -1.382324
v -9.425781 -4.394686 0.594849
v -9.408448 6.402015 -1.395874
v -9.410890 6.509712 -0.798706
v 9.502929 6.482316 -0.793824
v 9.500731 6.374616 -1.391114
v -9.380858 -6.414687 0.864136
v -9.383056 -6.311587 1.462036
v 9.556153 -6.414685 0.864135
v 9.558595 -6.311585 1.462036
v -9.755860 6.849612 -0.857421
v 9.845946 6.821214 -0.852539
v -9.726806 -6.650586 1.522950
v 9.904298 -6.650584 1.522949
v -9.748780 6.837913 -0.880981
v 9.838622 6.809613 -0.875977
v -9.719237 -6.647687 1.496949
v 9.896974 -6.647685 1.496948
v -9.760987 6.845714 -0.907836
v 9.850829 6.817315 -0.902832
v -9.731444 -6.664187 1.474366
v 9.909425 -6.664186 1.474365
v -9.785157 6.865111 -0.936767
v 9.874755 6.836614 -0.931763
v -9.755614 -6.692286 1.453736
v 9.933595 -6.692285 1.453735
v -9.813233 6.888412 -0.966308
v 9.902587 6.859815 -0.961304
v -9.783690 -6.724187 1.433960
v 9.961915 -6.724185 1.433959
v -9.837403 6.907813 -0.995239
v 9.926757 6.879216 -0.990235
v -9.807616 -6.752288 1.413453
v 9.985841 -6.752286 1.413452
v -9.849610 6.915515 -1.022216
v 9.938964 6.886914 -1.017090
v -9.820067 -6.768786 1.390870
v 9.998292 -6.768785 1.390869
v -9.842286 6.903914 -1.045532
v 9.931396 6.875215 -1.040528
v -9.812499 -6.765786 1.364747
v 9.990724 -6.765784 1.364746
v -9.846681 6.901313 -1.084716
v 9.935790 6.872716 -1.079712
v -9.816894 -6.776887 1.327149
v 9.995118 -6.776885 1.327148
v -9.871095 6.921115 -1.113403
v 9.960204 6.892514 -1.108399
v -9.841308 -6.805287 1.306885
v 10.019776 -6.805285 1.306884
v -9.908448 6.955012 -1.135620
v 9.997069 6.926213 -1.130494
v -9.878417 -6.844586 1.297608
v 10.056886 -6.844584 1.297607
v -9.950685 6.994613 -1.155029
v 10.039306 6.965714 -1.150025
v -9.920653 -6.888387 1.292969
v 10.099610 -6.888385 1.292968
v -9.990724 7.031611 -1.175659
v 10.079101 7.002515 -1.170533
v -9.960448 -6.930087 1.286255
v 10.139649 -6.930085 1.286254
v -10.020997 7.057612 -1.201416
v 10.109130 7.028516 -1.196290
v -9.990478 -6.963387 1.270875
v 10.169923 -6.963386 1.270874
v -10.033692 7.064513 -1.236206
v 10.121581 7.035314 -1.231080
v -10.003173 -6.981687 1.240601
v 10.182618 -6.981685 1.240478
v -10.040284 7.065913 -1.265869
v 10.128417 7.036817 -1.260743
v -10.009521 -6.993186 1.213135
v 10.189454 -6.993184 1.213134
v -10.059327 7.080413 -1.292602
v 10.146972 7.051213 -1.287476
v -10.028563 -7.015986 1.192872
v 10.208253 -7.015985 1.192871
v -10.087647 7.104915 -1.317626
v 10.175292 7.075616 -1.312500
v -10.056884 -7.047486 1.177735
v 10.236573 -7.047484 1.177734
v -10.122804 7.136214 -1.342163
v 10.210204 7.106816 -1.337037
v -10.091796 -7.085187 1.165406
v 10.271974 -7.085185 1.165405
v -10.161866 7.171412 -1.367431
v 10.249022 7.141915 -1.362183
v -10.130858 -7.126786 1.153809
v 10.311036 -7.126784 1.153808
v -10.201905 7.207313 -1.394531
v 10.288817 7.177716 -1.389283
v -10.170897 -7.169787 1.140625
v 10.351319 -7.169785 1.140625
v -10.240235 7.241012 -1.424682
v 10.327147 7.211213 -1.419434
v -10.208983 -7.211686 1.123658
v 10.389894 -7.211684 1.123657
v -10.279054 7.277514 -1.440673
v 10.365722 7.247617 -1.435425
v -10.247558 -7.251388 1.121216
v 10.428468 -7.251386 1.121215
v -10.312745 7.308112 -1.460327
v 10.398925 7.278214 -1.455201
v -10.281005 -7.286887 1.113160
v 10.462403 -7.286885 1.113159
v -10.340821 7.332713 -1.482421
v 10.426757 7.302716 -1.477173
v -10.308837 -7.317487 1.100831
v 10.490235 -7.317485 1.100830
v -10.362794 7.350814 -1.505249
v 10.448485 7.320813 -1.500000
v -10.330565 -7.342387 1.085572
v 10.512208 -7.342385 1.085571
v -10.377687 7.362414 -1.527465
v 10.463622 7.332215 -1.522339
v -10.345946 -7.360787 1.068604
v 10.527589 -7.360785 1.068603
v -10.385987 7.366912 -1.547729
v 10.471679 7.336816 -1.542359
v -10.354003 -7.371987 1.051148
v 10.535645 -7.371985 1.051147
v -10.386231 7.364413 -1.564331
v 10.471923 7.334214 -1.559083
v -10.354247 -7.375287 1.034668
v 10.535890 -7.375285 1.034667
vn -0.0000 0.1736 0.9848
vn -0.0000 -0.1737 -0.9848
vn -0.0000 -0.9847 0.1740
vn 1.0000 -0.0000 0.0031
vn -0.0000 0.9849 -0.1734
vn -1.0000 -0.0000 0.0024
vn 0.0006 -0.1742 -0.9847
vn 0.0006 -0.1730 -0.9849
vn -0.0015 -0.9841 0.1775
vn 1.0000 0.0028 0.0029
vn -0.0000 0.9855 -0.1699
vn -1.0000 -0.0035 0.0042
vn -0.0016 0.1719 0.9851
vn 0.0017 0.1720 0.9851
vn 0.0017 0.1753 0.9845
vn -0.0016 0.1753 0.9845
vn 0.0014 0.8968 -0.4425
vn -0.9602 -0.0506 -0.2745
vn -0.0000 -0.9938 -0.1108
vn 0.9610 -0.0447 -0.2729
vn 0.0013 0.9607 0.2775
vn 0.0012 0.8851 0.4653
vn 0.0012 0.8850 0.4656
vn -0.8990 0.0740 0.4317
vn -0.7918 0.1045 0.6018
vn -0.7920 0.1044 0.6016
vn -0.0000 -0.8064 0.5913
vn -0.0000 -0.6738 0.7390
vn -0.0000 -0.6734 0.7393
vn 0.8974 0.0803 0.4339
vn 0.7934 0.1097 0.5987
vn 0.7937 0.1096 0.5984
vn 0.0010 0.7996 0.6005
vn 0.0010 0.7995 0.6006
vn -0.6803 0.1249 0.7222
vn -0.6804 0.1249 0.7221
vn -0.0000 -0.5476 0.8367
vn -0.0000 -0.5476 0.8368
vn 0.6838 0.1297 0.7181
vn 0.6838 0.1297 0.7180
vn 0.0010 0.8190 0.5738
vn 0.0010 0.8191 0.5737
vn -0.7052 0.1215 0.6985
vn -0.7051 0.1215 0.6986
vn -0.0000 -0.5711 0.8208
vn -0.0000 -0.5712 0.8208
vn 0.7062 0.1261 0.6967
vn 0.7061 0.1261 0.6968
vn 0.0012 0.9287 0.3709
vn 0.0012 0.9287 0.3707
vn -0.8489 0.0899 0.5209
vn -0.0000 -0.7435 0.6687
vn 0.8515 0.0955 0.5155
vn 0.8511 0.0956 0.5162
vn 0.0013 0.9612 0.2760
vn -0.8971 0.0744 0.4355
vn -0.0000 -0.8070 0.5906
vn 0.9001 0.0806 0.4282
vn 0.0014 0.8958 -0.4445
vn 0.0015 0.9631 -0.2692
vn 0.0015 0.9632 -0.2688
vn -0.9592 -0.0515 -0.2779
vn -0.9951 -0.0191 -0.0970
vn -0.9951 -0.0190 -0.0968
vn -0.0000 -0.9935 -0.1138
vn -0.0000 -0.9970 0.0768
vn 0.9619 -0.0462 -0.2693
vn 0.9958 -0.0132 -0.0910
vn 0.0015 0.9979 -0.0651
vn -0.9942 0.0174 0.1061
vn -0.0000 -0.9590 0.2833
vn 0.9938 0.0237 0.1084
vn 0.0010 0.8239 0.5667
vn 0.0007 0.6382 0.7699
vn 0.0007 0.6379 0.7701
vn -0.7139 0.1203 0.6898
vn -0.4965 0.1502 0.8549
vn -0.4969 0.1502 0.8547
vn -0.0000 -0.5796 0.8149
vn -0.0000 -0.3382 0.9411
vn -0.0000 -0.3379 0.9412
vn 0.7127 0.1252 0.6902
vn 0.4958 0.1529 0.8549
vn 0.4961 0.1528 0.8547
vn 0.1585 0.3256 0.9321
vn -0.1579 0.3242 0.9327
vn -0.1581 0.0131 0.9873
vn 0.1581 0.0140 0.9873
vn 0.1622 0.3301 0.9299
vn -0.1620 0.3292 0.9303
vn -0.1623 0.0101 0.9867
vn 0.1622 0.0113 0.9867
vn 0.2741 0.4308 0.8598
vn -0.2735 0.4298 0.8605
vn -0.2740 -0.1101 0.9554
vn 0.2742 -0.1087 0.9555
vn 0.0008 0.7041 0.7101
vn -0.5713 0.1420 0.8083
vn -0.0000 -0.4217 0.9068
vn 0.5715 0.1457 0.8075
vn 0.0014 0.9811 0.1933
vn 0.0014 0.9942 0.1079
vn -0.9331 0.0603 0.3545
vn -0.9610 0.0458 0.2728
vn -0.9609 0.0458 0.2729
vn -0.0000 -0.8558 0.5173
vn -0.0000 -0.8979 0.4403
vn -0.0000 -0.8980 0.4400
vn 0.9317 0.0654 0.3573
vn 0.9598 0.0529 0.2756
vn 0.9598 0.0529 0.2757
vn 0.0013 0.9485 0.3168
vn 0.0013 0.9485 0.3169
vn -0.8789 0.0811 0.4701
vn -0.8790 0.0811 0.4700
vn -0.0000 -0.7831 0.6219
vn -0.0000 -0.7825 0.6227
vn 0.8789 0.0864 0.4691
vn 0.8791 0.0863 0.4688
vn 0.0010 0.7731 0.6342
vn 0.0010 0.7726 0.6349
vn -0.6500 0.1303 0.7487
vn -0.6502 0.1303 0.7485
vn -0.0000 -0.5089 0.8608
vn -0.0000 -0.5092 0.8606
vn 0.6527 0.1344 0.7456
vn 0.6530 0.1343 0.7453
vn 0.0007 0.6456 0.7637
vn 0.0007 0.6455 0.7638
vn -0.5041 0.1492 0.8506
vn -0.5043 0.1492 0.8506
vn -0.0000 -0.3462 0.9382
vn -0.0000 -0.3461 0.9382
vn 0.5028 0.1522 0.8509
vn 0.5030 0.1522 0.8508
vn 0.0007 0.5930 0.8052
vn -0.4440 0.1553 0.8824
vn -0.4441 0.1553 0.8824
vn -0.0000 -0.2801 0.9600
vn -0.0000 -0.2800 0.9600
vn 0.4413 0.1572 0.8835
vn 0.0007 0.5972 0.8021
vn -0.4484 0.1541 0.8805
vn -0.4483 0.1541 0.8805
vn -0.0000 -0.2873 0.9578
vn 0.4477 0.1566 0.8803
vn 0.4477 0.1566 0.8804
vn 0.0007 0.6494 0.7604
vn 0.0007 0.6495 0.7603
vn -0.5080 0.1475 0.8486
vn -0.5079 0.1475 0.8487
vn -0.0000 -0.3536 0.9354
vn -0.0000 -0.3537 0.9354
vn 0.5083 0.1514 0.8478
vn 0.5081 0.1514 0.8479
vn 0.1640 0.3312 0.9292
vn -0.1620 0.3298 0.9300
vn -0.1624 0.0081 0.9867
vn 0.1636 0.0103 0.9865
vn 0.1806 0.3458 0.9207
vn -0.1794 0.3453 0.9212
vn -0.1797 -0.0098 0.9837
vn 0.1799 -0.0092 0.9836
vn 0.0007 0.6368 0.7710
vn 0.0007 0.6372 0.7707
vn -0.4914 0.1496 0.8580
vn -0.4913 0.1496 0.8580
vn -0.0000 -0.3342 0.9425
vn -0.0000 -0.3344 0.9424
vn 0.4949 0.1533 0.8553
vn 0.4948 0.1533 0.8554
vn 0.0009 0.7522 0.6590
vn 0.0009 0.7523 0.6588
vn -0.6281 0.1340 0.7665
vn -0.6280 0.1340 0.7665
vn -0.0000 -0.4818 0.8763
vn -0.0000 -0.4819 0.8762
vn 0.6278 0.1379 0.7661
vn 0.6275 0.1380 0.7663
vn 0.0011 0.8600 0.5103
vn 0.0011 0.8601 0.5101
vn -0.7595 0.1118 0.6408
vn -0.7594 0.1118 0.6409
vn -0.0000 -0.6330 0.7741
vn -0.0000 -0.6332 0.7740
vn 0.7565 0.1164 0.6435
vn 0.7563 0.1165 0.6438
vn 0.0013 0.9523 0.3052
vn -0.8848 0.0798 0.4591
vn -0.8845 0.0799 0.4596
vn -0.0000 -0.7905 0.6125
vn 0.8809 0.0849 0.4656
vn 0.8808 0.0849 0.4659
vn 0.0014 1.0000 0.0091
vn 0.0014 1.0000 0.0085
vn -0.9815 0.0293 0.1891
vn -0.9815 0.0293 0.1890
vn -0.0000 -0.9365 0.3506
vn 0.9828 0.0352 0.1812
vn 0.9828 0.0352 0.1814
vn 0.0015 0.9885 -0.1515
vn -0.9993 0.0004 0.0377
vn -0.0000 -0.9807 0.1956
vn 0.9998 0.0067 0.0178
vn -0.0006 -0.1730 -0.9849
vn -0.0006 -0.1742 -0.9847
vt 0.158100 0.200700
vt 0.838900 0.200700
vt 0.838900 0.797800
vt 0.158100 0.797800
vt 0.045900 0.962000
vt 0.957100 0.962000
vt 0.957100 0.036400
vt 0.045900 0.036400
vt 0.045900 0.201200
vt 1.000000 0.000000
vt 0.953200 0.065200
vt 0.950500 0.932900
vt 0.996900 0.998000
vt 0.950600 0.933000
vt 0.046600 0.934900
vt 0.046700 0.934700
vt 0.047900 0.065000
vt 0.048100 0.065200
vt 0.953300 0.065000
vt 0.967000 0.956000
vt 0.030100 0.957900
vt 0.031500 0.042000
vt 0.969800 0.042000
vt 0.966700 0.955500
vt 0.030500 0.957400
vt 0.031900 0.042500
vt 0.969500 0.042500
vt 0.967200 0.956300
vt 0.029900 0.958300
vt 0.031300 0.041700
vt 0.970100 0.041700
vt 0.968400 0.957900
vt 0.028700 0.959900
vt 0.030100 0.040100
vt 0.971200 0.040100
vt 0.969700 0.959800
vt 0.027400 0.961700
vt 0.028800 0.038200
vt 0.972600 0.038200
vt 0.970900 0.961400
vt 0.026200 0.963400
vt 0.027700 0.036600
vt 0.973700 0.036600
vt 0.971500 0.962200
vt 0.025600 0.964200
vt 0.027100 0.035800
vt 0.974300 0.035800
vt 0.971100 0.961700
vt 0.026000 0.963700
vt 0.027400 0.036300
vt 0.973900 0.036300
vt 0.971300 0.962000
vt 0.025800 0.964000
vt 0.027200 0.036000
vt 0.974200 0.036000
vt 0.972500 0.963700
vt 0.024600 0.965600
vt 0.026000 0.034300
vt 0.975300 0.034300
vt 0.974200 0.966100
vt 0.022800 0.968100
vt 0.024300 0.031900
vt 0.977100 0.031900
vt 0.976300 0.969000
vt 0.020800 0.970900
vt 0.022300 0.029000
vt 0.979100 0.029000
vt 0.978200 0.971600
vt 0.018900 0.973600
vt 0.020400 0.026400
vt 0.981100 0.026400
vt 0.979600 0.973600
vt 0.017500 0.975600
vt 0.018900 0.024400
vt 0.982500 0.024400
vt 0.980200 0.974500
vt 0.016900 0.976500
vt 0.018300 0.023500
vt 0.983100 0.023500
vt 0.980500 0.974900
vt 0.016500 0.976900
vt 0.018000 0.023100
vt 0.983400 0.023100
vt 0.981400 0.976200
vt 0.015600 0.978200
vt 0.017100 0.021800
vt 0.984300 0.021800
vt 0.982800 0.978100
vt 0.014300 0.980100
vt 0.015700 0.019900
vt 0.985700 0.019900
vt 0.984400 0.980400
vt 0.012600 0.982400
vt 0.014100 0.017600
vt 0.987400 0.017600
vt 0.986300 0.983000
vt 0.010700 0.985000
vt 0.012200 0.015000
vt 0.989300 0.015000
vt 0.988200 0.985700
vt 0.008800 0.987700
vt 0.010300 0.012300
vt 0.991200 0.012300
vt 0.990000 0.988200
vt 0.007000 0.990300
vt 0.008500 0.009700
vt 0.993000 0.009700
vt 0.991900 0.990800
vt 0.005100 0.992800
vt 0.006600 0.007100
vt 0.994900 0.007100
vt 0.993500 0.993100
vt 0.003500 0.995100
vt 0.005000 0.004900
vt 0.996500 0.004900
vt 0.994800 0.994900
vt 0.002200 0.997000
vt 0.003700 0.003000
vt 0.997800 0.003000
vt 0.995800 0.996400
vt 0.001100 0.998400
vt 0.002700 0.001600
vt 0.998900 0.001600
vt 0.996500 0.997400
vt 0.000400 0.999400
vt 0.001900 0.000600
vt 0.999600 0.000600
vt 0.996900 0.997900
vt 0.000000 1.000000
vt 0.001500 0.000000
s 1
usemtl Picture
f 4/1/1 3/2/1 2/3/1 1/4/1
f 8/5/2 7/6/2 6/7/2 5/8/2
f 5/8/3 6/7/3 10/7/3 9/8/3
f 10/7/4 6/7/4 7/6/4 11/6/4
f 7/6/5 8/5/5 12/5/5 11/6/5
f 12/5/6 8/5/6 5/8/6 9/8/6 13/9/6
f 10/7/1 11/6/1 12/5/1 2/3/1 3/2/1 4/1/1 13/9/1 9/8/1
f 13/9/1 4/1/1 1/4/1 2/3/1 12/5/1
usemtl Base.004
f 137/10/7 20/11/7 17/12/8 135/13/8
f 17/12/9 16/14/9 15/15/9 14/16/9
f 14/16/10 15/15/10 19/17/10 18/18/10
f 18/18/11 19/17/11 21/19/11 20/11/11
f 20/11/12 21/19/12 16/14/12 17/12/12
f 16/14/13 23/20/13 22/21/14 15/15/14
f 15/15/14 22/21/14 24/22/15 19/17/15
f 19/17/15 24/22/15 25/23/16 21/19/16
f 21/19/16 25/23/16 23/20/13 16/14/13
f 23/20/17 27/24/17 26/25/17 22/21/17
f 22/21/18 26/25/18 28/26/18 24/22/18
f 24/22/19 28/26/19 29/27/19 25/23/19
f 25/23/20 29/27/20 27/24/20 23/20/20
f 27/24/21 31/28/22 30/29/23 26/25/21
f 26/25/24 30/29/25 32/30/26 28/26/24
f 28/26/27 32/30/28 33/31/29 29/27/27
f 29/27/30 33/31/31 31/28/32 27/24/30
f 31/28/22 35/32/33 34/33/34 30/29/23
f 30/29/25 34/33/35 36/34/36 32/30/26
f 32/30/28 36/34/37 37/35/38 33/31/29
f 33/31/31 37/35/39 35/32/40 31/28/32
f 35/32/33 39/36/41 38/37/42 34/33/34
f 34/33/35 38/37/43 40/38/44 36/34/36
f 36/34/37 40/38/45 41/39/46 37/35/38
f 37/35/39 41/39/47 39/36/48 35/32/40
f 39/36/41 43/40/49 42/41/50 38/37/42
f 38/37/43 42/41/51 44/42/51 40/38/44
f 40/38/45 44/42/52 45/43/52 41/39/46
f 41/39/47 45/43/53 43/40/54 39/36/48
f 43/40/49 47/44/55 46/45/55 42/41/50
f 42/41/51 46/45/56 48/46/56 44/42/51
f 44/42/52 48/46/57 49/47/57 45/43/52
f 45/43/53 49/47/58 47/44/58 43/40/54
f 47/44/59 51/48/60 50/49/61 46/45/59
f 46/45/62 50/49/63 52/50/64 48/46/62
f 48/46/65 52/50/66 53/51/66 49/47/65
f 49/47/67 53/51/68 51/48/68 47/44/67
f 51/48/60 55/52/69 54/53/69 50/49/61
f 50/49/63 54/53/70 56/54/70 52/50/64
f 52/50/66 56/54/71 57/55/71 53/51/66
f 53/51/68 57/55/72 55/52/72 51/48/68
f 55/52/73 59/56/74 58/57/75 54/53/73
f 54/53/76 58/57/77 60/58/78 56/54/76
f 56/54/79 60/58/80 61/59/81 57/55/79
f 57/55/82 61/59/83 59/56/84 55/52/82
f 59/56/74 63/60/85 62/61/86 58/57/75
f 58/57/77 62/61/86 64/62/87 60/58/78
f 60/58/80 64/62/87 65/63/88 61/59/81
f 61/59/83 65/63/88 63/60/85 59/56/84
f 63/60/85 67/64/89 66/65/90 62/61/86
f 62/61/86 66/65/90 68/66/91 64/62/87
f 64/62/87 68/66/91 69/67/92 65/63/88
f 65/63/88 69/67/92 67/64/89 63/60/85
f 67/64/89 71/68/93 70/69/94 66/65/90
f 66/65/90 70/69/94 72/70/95 68/66/91
f 68/66/91 72/70/95 73/71/96 69/67/92
f 69/67/92 73/71/96 71/68/93 67/64/89
f 71/68/93 75/72/97 74/73/97 70/69/94
f 70/69/94 74/73/98 76/74/98 72/70/95
f 72/70/95 76/74/99 77/75/99 73/71/96
f 73/71/96 77/75/100 75/72/100 71/68/93
f 75/72/101 79/76/102 78/77/102 74/73/101
f 74/73/103 78/77/104 80/78/105 76/74/103
f 76/74/106 80/78/107 81/79/108 77/75/106
f 77/75/109 81/79/110 79/76/111 75/72/109
f 79/76/102 83/80/112 82/81/113 78/77/102
f 78/77/104 82/81/114 84/82/115 80/78/105
f 80/78/107 84/82/116 85/83/117 81/79/108
f 81/79/110 85/83/118 83/80/119 79/76/111
f 83/80/112 87/84/120 86/85/121 82/81/113
f 82/81/114 86/85/122 88/86/123 84/82/115
f 84/82/116 88/86/124 89/87/125 85/83/117
f 85/83/118 89/87/126 87/84/127 83/80/119
f 87/84/120 91/88/128 90/89/129 86/85/121
f 86/85/122 90/89/130 92/90/131 88/86/123
f 88/86/124 92/90/132 93/91/133 89/87/125
f 89/87/126 93/91/134 91/88/135 87/84/127
f 91/88/128 95/92/136 94/93/136 90/89/129
f 90/89/130 94/93/137 96/94/138 92/90/131
f 92/90/132 96/94/139 97/95/140 93/91/133
f 93/91/134 97/95/141 95/92/141 91/88/135
f 95/92/136 99/96/142 98/97/142 94/93/136
f 94/93/137 98/97/143 100/98/144 96/94/138
f 96/94/139 100/98/145 101/99/145 97/95/140
f 97/95/141 101/99/146 99/96/147 95/92/141
f 99/96/142 103/100/148 102/101/149 98/97/142
f 98/97/143 102/101/150 104/102/151 100/98/144
f 100/98/145 104/102/152 105/103/153 101/99/145
f 101/99/146 105/103/154 103/100/155 99/96/147
f 103/100/148 107/104/156 106/105/157 102/101/149
f 102/101/150 106/105/157 108/106/158 104/102/151
f 104/102/152 108/106/158 109/107/159 105/103/153
f 105/103/154 109/107/159 107/104/156 103/100/155
f 107/104/156 111/108/160 110/109/161 106/105/157
f 106/105/157 110/109/161 112/110/162 108/106/158
f 108/106/158 112/110/162 113/111/163 109/107/159
f 109/107/159 113/111/163 111/108/160 107/104/156
f 111/108/160 115/112/164 114/113/165 110/109/161
f 110/109/161 114/113/166 116/114/167 112/110/162
f 112/110/162 116/114/168 117/115/169 113/111/163
f 113/111/163 117/115/170 115/112/171 111/108/160
f 115/112/164 119/116/172 118/117/173 114/113/165
f 114/113/166 118/117/174 120/118/175 116/114/167
f 116/114/168 120/118/176 121/119/177 117/115/169
f 117/115/170 121/119/178 119/116/179 115/112/171
f 119/116/172 123/120/180 122/121/181 118/117/173
f 118/117/174 122/121/182 124/122/183 120/118/175
f 120/118/176 124/122/184 125/123/185 121/119/177
f 121/119/178 125/123/186 123/120/187 119/116/179
f 123/120/180 127/124/188 126/125/188 122/121/181
f 122/121/182 126/125/189 128/126/190 124/122/183
f 124/122/184 128/126/191 129/127/191 125/123/185
f 125/123/186 129/127/192 127/124/193 123/120/187
f 127/124/188 131/128/194 130/129/195 126/125/188
f 126/125/189 130/129/196 132/130/197 128/126/190
f 128/126/191 132/130/198 133/10/198 129/127/191
f 129/127/192 133/10/199 131/128/200 127/124/193
f 131/128/194 135/13/201 134/129/201 130/129/195
f 130/129/196 134/129/202 136/130/202 132/130/197
f 132/130/198 136/130/203 137/10/203 133/10/198
f 133/10/199 137/10/204 135/13/204 131/128/200
f 135/13/8 17/12/8 14/16/205 134/129/205
f 134/129/205 14/16/205 18/18/206 136/130/206
f 136/130/206 18/18/206 20/11/7 137/10/7
